<?xml version="1.0" encoding="UTF-8" standalone="no"?>
<!-- Created with Inkscape (http://www.inkscape.org/) -->

<svg
   width="595.90002"
   height="97.515999"
   viewBox="0 0 157.66521 25.80111"
   version="1.1"
   id="svg8"
   inkscape:version="1.1 (c68e22c387, 2021-05-23)"
   sodipodi:docname="brand-light.svg"
   xmlns:inkscape="http://www.inkscape.org/namespaces/inkscape"
   xmlns:sodipodi="http://sodipodi.sourceforge.net/DTD/sodipodi-0.dtd"
   xmlns:xlink="http://www.w3.org/1999/xlink"
   xmlns="http://www.w3.org/2000/svg"
   xmlns:svg="http://www.w3.org/2000/svg"
   xmlns:rdf="http://www.w3.org/1999/02/22-rdf-syntax-ns#"
   xmlns:cc="http://creativecommons.org/ns#"
   xmlns:dc="http://purl.org/dc/elements/1.1/">
  <defs
     id="defs2">
    <linearGradient
       inkscape:collect="always"
       id="linearGradient1061">
      <stop
         style="stop-color:#383838;stop-opacity:1"
         offset="0"
         id="stop1057" />
      <stop
         id="stop1065"
         offset="0.12679945"
         style="stop-color:#5c5c5c;stop-opacity:1" />
      <stop
         style="stop-color:#626262;stop-opacity:1"
         offset="0.24210788"
         id="stop1067" />
      <stop
         id="stop1069"
         offset="0.40060747"
         style="stop-color:#6e6e6e;stop-opacity:1" />
      <stop
         style="stop-color:#4a4a4a;stop-opacity:1"
         offset="0.53414333"
         id="stop1071" />
      <stop
         id="stop1073"
         offset="0.64984804"
         style="stop-color:#484848;stop-opacity:1" />
      <stop
         style="stop-color:#444444;stop-opacity:1"
         offset="0.77030772"
         id="stop1075" />
      <stop
         style="stop-color:#383838;stop-opacity:1"
         offset="1"
         id="stop1059" />
    </linearGradient>
    <linearGradient
       id="linearGradient943"
       inkscape:collect="always">
      <stop
         id="stop933"
         offset="0"
         style="stop-color:#ffffff;stop-opacity:0" />
      <stop
         style="stop-color:#ffffff;stop-opacity:0.27322406"
         offset="0.27646455"
         id="stop935" />
      <stop
         id="stop937"
         offset="0.50381261"
         style="stop-color:#ffffff;stop-opacity:0.37704918" />
      <stop
         style="stop-color:#ffffff;stop-opacity:0.77049178"
         offset="0.74453408"
         id="stop939" />
      <stop
         id="stop941"
         offset="1"
         style="stop-color:#f8f8f8;stop-opacity:0" />
    </linearGradient>
    <linearGradient
       inkscape:collect="always"
       id="linearGradient919">
      <stop
         style="stop-color:#f8f8f8;stop-opacity:1"
         offset="0"
         id="stop915" />
      <stop
         id="stop923"
         offset="0.27646455"
         style="stop-color:#a7a7a7;stop-opacity:0.72156864" />
      <stop
         style="stop-color:#a6a6a6;stop-opacity:0.49411765"
         offset="0.50381261"
         id="stop925" />
      <stop
         id="stop927"
         offset="0.74453408"
         style="stop-color:#f2f2f2;stop-opacity:0.25098041" />
      <stop
         style="stop-color:#ffffff;stop-opacity:0"
         offset="1"
         id="stop917" />
    </linearGradient>
    <filter
       id="filter833"
       style="color-interpolation-filters:sRGB"
       inkscape:menu-tooltip="Adds a small scale graininess"
       inkscape:menu="Image Effects"
       inkscape:label="BrushedMetal">
      <feTurbulence
         id="feTurbulence823"
         result="result0"
         seed="0"
         baseFrequency="0.0040000000000000001 1"
         numOctaves="3"
         type="fractalNoise" />
      <feColorMatrix
         id="feColorMatrix825"
         type="saturate"
         values="0"
         result="result4" />
      <feComposite
         k4="0.1"
         id="feComposite827"
         result="result2"
         k3="0.6"
         k2="0.2"
         k1="-0.08"
         operator="arithmetic"
         in2="result4"
         in="SourceGraphic" />
      <feBlend
         id="feBlend829"
         in2="SourceGraphic"
         in="result2"
         mode="normal"
         result="result5" />
      <feComposite
         id="feComposite831"
         result="result3"
         operator="in"
         in2="SourceGraphic"
         in="result5" />
    </filter>
    <linearGradient
       inkscape:collect="always"
       xlink:href="#linearGradient919"
       id="linearGradient921"
       x1="1366.8574"
       y1="294.19336"
       x2="1954.377"
       y2="294.19336"
       gradientUnits="userSpaceOnUse" />
    <linearGradient
       inkscape:collect="always"
       xlink:href="#linearGradient943"
       id="linearGradient931"
       gradientUnits="userSpaceOnUse"
       x1="1954.3789"
       y1="294.19336"
       x2="1352.326"
       y2="294.19336"
       gradientTransform="matrix(-0.26458333,0,0,0.26458333,753.55866,38.085905)" />
    <filter
       inkscape:label="Film Grain"
       inkscape:menu="Image Effects"
       inkscape:menu-tooltip="Adds a small scale graininess"
       style="color-interpolation-filters:sRGB"
       id="filter1016">
      <feTurbulence
         type="fractalNoise"
         numOctaves="3"
         baseFrequency="1"
         seed="0"
         result="result0"
         id="feTurbulence1006" />
      <feColorMatrix
         result="result4"
         values="0"
         type="saturate"
         id="feColorMatrix1008" />
      <feComposite
         in="SourceGraphic"
         in2="result4"
         operator="arithmetic"
         k1="1.25"
         k2="0.5"
         k3="0.5"
         result="result2"
         id="feComposite1010"
         k4="0" />
      <feBlend
         result="result5"
         mode="normal"
         in="result2"
         in2="SourceGraphic"
         id="feBlend1012" />
      <feComposite
         in="result5"
         in2="SourceGraphic"
         operator="in"
         result="result3"
         id="feComposite1014" />
    </filter>
    <filter
       inkscape:label="Film Grain"
       inkscape:menu="Image Effects"
       inkscape:menu-tooltip="Adds a small scale graininess"
       style="color-interpolation-filters:sRGB"
       id="filter1028">
      <feTurbulence
         type="fractalNoise"
         numOctaves="3"
         baseFrequency="1"
         seed="0"
         result="result0"
         id="feTurbulence1018" />
      <feColorMatrix
         result="result4"
         values="0"
         type="saturate"
         id="feColorMatrix1020" />
      <feComposite
         in="SourceGraphic"
         in2="result4"
         operator="arithmetic"
         k1="1.25"
         k2="0.5"
         k3="0.5"
         result="result2"
         id="feComposite1022"
         k4="0" />
      <feBlend
         result="result5"
         mode="normal"
         in="result2"
         in2="SourceGraphic"
         id="feBlend1024" />
      <feComposite
         in="result5"
         in2="SourceGraphic"
         operator="in"
         result="result3"
         id="feComposite1026" />
    </filter>
    <filter
       inkscape:label="Film Grain"
       inkscape:menu="Image Effects"
       inkscape:menu-tooltip="Adds a small scale graininess"
       style="color-interpolation-filters:sRGB"
       id="filter1040">
      <feTurbulence
         type="fractalNoise"
         numOctaves="3"
         baseFrequency="0.033000000000000002"
         seed="0"
         result="result0"
         id="feTurbulence1030" />
      <feColorMatrix
         result="result4"
         values="0"
         type="saturate"
         id="feColorMatrix1032" />
      <feComposite
         in="SourceGraphic"
         in2="result4"
         operator="arithmetic"
         k1="1.25"
         k2="0.5"
         k3="0.5"
         result="result2"
         id="feComposite1034"
         k4="0" />
      <feBlend
         result="result5"
         mode="normal"
         in="result2"
         in2="SourceGraphic"
         id="feBlend1036" />
      <feComposite
         in="result5"
         in2="SourceGraphic"
         operator="in"
         result="result3"
         id="feComposite1038" />
    </filter>
    <linearGradient
       inkscape:collect="always"
       xlink:href="#linearGradient1061"
       id="linearGradient1063"
       x1="297.75079"
       y1="77.838684"
       x2="536.22223"
       y2="77.838684"
       gradientUnits="userSpaceOnUse" />
  </defs>
  <sodipodi:namedview
     id="base"
     pagecolor="#ffffff"
     bordercolor="#666666"
     borderopacity="1.0"
     inkscape:pageopacity="0.0"
     inkscape:pageshadow="2"
     inkscape:zoom="1.4"
     inkscape:cx="285.35714"
     inkscape:cy="155.35714"
     inkscape:document-units="px"
     inkscape:current-layer="layer1"
     showgrid="false"
     inkscape:window-width="1920"
     inkscape:window-height="991"
     inkscape:window-x="-9"
     inkscape:window-y="-9"
     inkscape:window-maximized="1"
     inkscape:object-paths="true"
     inkscape:snap-intersection-paths="true"
     inkscape:snap-smooth-nodes="true"
     inkscape:snap-nodes="false"
     units="px"
     inkscape:pagecheckerboard="1"
     height="97.516px" />
  <metadata
     id="metadata5">
    <rdf:RDF>
      <cc:Work
         rdf:about="">
        <dc:format>image/svg+xml</dc:format>
        <dc:type
           rdf:resource="http://purl.org/dc/dcmitype/StillImage" />
      </cc:Work>
    </rdf:RDF>
  </metadata>
  <g
     inkscape:label="Layer 1"
     inkscape:groupmode="layer"
     id="layer1"
     transform="translate(0,-271.199)">
    <flowRoot
       xml:space="preserve"
       id="flowRoot902"
       style="font-style:normal;font-variant:normal;font-weight:normal;font-stretch:normal;font-size:26.6667px;line-height:1.25;font-family:'Product Sans';-inkscape-font-specification:'Product Sans';letter-spacing:0px;word-spacing:0px;fill:#000000;fill-opacity:1;stroke:none"
       transform="translate(-0.47338515,21.959351)"><flowRegion
         id="flowRegion904"><rect
           id="rect906"
           width="61.07143"
           height="31.428572"
           x="305"
           y="682.16254" /></flowRegion><flowPara
         id="flowPara908" /></flowRoot>
    <path
       id="path894-1"
       style="fill:#ffffff;stroke:none;stroke-width:0.172493px;stroke-linecap:butt;stroke-linejoin:miter;stroke-opacity:1"
       d="m 45.429269,277.11182 c -0.236479,0 -0.451427,0.0247 -0.644922,0.0749 -0.193487,0.043 -0.358389,0.11834 -0.494543,0.22582 -0.128992,0.1075 -0.229098,0.25079 -0.300757,0.42995 -0.07166,0.17916 -0.107487,0.3978 -0.107487,0.65578 v 0.65577 h -0.752409 v 1.01027 h 0.752409 v 4.77284 h 1.483114 v -4.77284 h 0.859896 v -1.01027 h -0.859896 v -0.5054 c 0,-0.16482 0.0432,-0.28284 0.12919,-0.3545 0.08599,-0.0717 0.232982,-0.10748 0.440802,-0.10748 h 0.139525 c 0.06447,0 0.11452,0.004 0.150379,0.0109 v -1.05368 c -0.265147,-0.0215 -0.530146,-0.032 -0.795301,-0.032 z m 41.825356,0 c -0.494467,0 -0.906455,0.0822 -1.236099,0.24701 -0.32965,0.16483 -0.594649,0.41192 -0.795301,0.74156 -0.200655,0.32248 -0.343956,0.7276 -0.429948,1.21491 -0.07883,0.4873 -0.11834,1.05365 -0.11834,1.6986 0,0.66647 0.02845,1.25389 0.08578,1.76269 0.05733,0.50163 0.168492,0.92467 0.333312,1.26865 0.171987,0.34398 0.404852,0.59792 0.698666,0.76275 0.30098,0.16482 0.688198,0.24753 1.161169,0.24753 0.365475,0 0.677358,-0.0611 0.935345,-0.18294 0.265147,-0.12898 0.490641,-0.34394 0.67696,-0.64492 h 0.0217 v 0.70952 h 1.139465 v -4.13825 h -2.504755 v 1.13895 h 1.021125 v 0.78496 c 0,0.20782 -0.03217,0.39063 -0.09663,0.54829 -0.06447,0.15049 -0.146661,0.27588 -0.247015,0.37621 -0.09316,0.10032 -0.197471,0.17566 -0.312123,0.22582 -0.107495,0.0501 -0.207598,0.0749 -0.300757,0.0749 -0.222155,0 -0.404961,-0.068 -0.548288,-0.20412 -0.13616,-0.14332 -0.243634,-0.34404 -0.322461,-0.60203 -0.07166,-0.26515 -0.121711,-0.58388 -0.150379,-0.95653 -0.02867,-0.37264 -0.04289,-0.78831 -0.04289,-1.24695 0,-0.96027 0.08219,-1.64832 0.247015,-2.06396 0.16482,-0.41564 0.433504,-0.62322 0.806151,-0.62322 0.157655,0 0.290415,0.0427 0.39791,0.12868 0.11466,0.0788 0.207388,0.18261 0.279053,0.31161 0.07166,0.12182 0.122235,0.25827 0.150895,0.40876 0.03587,0.15049 0.05374,0.29747 0.05374,0.4408 h 1.483114 c 0,-0.78112 -0.185981,-1.3796 -0.558623,-1.79524 -0.372639,-0.42281 -0.982181,-0.63407 -1.827794,-0.63407 z m 27.733195,0 c -0.73812,0 -1.31869,0.18649 -1.7415,0.55914 -0.42281,0.37264 -0.63407,0.93846 -0.63407,1.69808 0,0.31532 0.0395,0.59507 0.11834,0.83871 0.0788,0.23649 0.20052,0.44775 0.36535,0.63407 0.17199,0.17916 0.38325,0.33668 0.63407,0.47284 0.25082,0.13616 0.54847,0.26155 0.89245,0.37621 0.25798,0.086 0.47293,0.17187 0.64493,0.25786 0.17915,0.0788 0.32245,0.16839 0.42994,0.26872 0.1075,0.10033 0.18284,0.21517 0.22583,0.34416 0.0502,0.12183 0.0749,0.26882 0.0749,0.4408 0,0.32248 -0.0964,0.56272 -0.2899,0.72037 -0.18633,0.1505 -0.39759,0.22531 -0.63407,0.22531 -0.20066,0 -0.36924,-0.0284 -0.5054,-0.0858 -0.12899,-0.0573 -0.23278,-0.13635 -0.31161,-0.23668 -0.0788,-0.10032 -0.13256,-0.22203 -0.16123,-0.36535 -0.0287,-0.15049 -0.0434,-0.31539 -0.0434,-0.49454 v -0.22583 h -1.54771 v 0.31213 c 0,0.70946 0.1865,1.25368 0.55914,1.63349 0.37981,0.3798 1.00674,0.56999 1.88102,0.56999 0.83845,0 1.49068,-0.18281 1.95647,-0.54829 0.47297,-0.37264 0.70952,-0.96375 0.70952,-1.77353 0,-0.23648 -0.0216,-0.45143 -0.0646,-0.64493 -0.043,-0.19348 -0.12202,-0.36944 -0.23668,-0.52709 -0.10749,-0.16483 -0.25448,-0.31499 -0.4408,-0.45114 -0.18632,-0.14333 -0.42604,-0.27977 -0.71985,-0.40876 l -1.19321,-0.51573 c -0.32965,-0.13616 -0.5446,-0.28315 -0.64492,-0.4408 -0.10033,-0.16483 -0.1509,-0.36555 -0.1509,-0.60203 0,-0.11466 0.0111,-0.22582 0.0326,-0.33331 0.0287,-0.1075 0.075,-0.20023 0.13952,-0.27906 0.0717,-0.086 0.16491,-0.15448 0.27957,-0.20464 0.11466,-0.0501 0.25796,-0.0749 0.42995,-0.0749 0.30098,0 0.51593,0.10011 0.64492,0.30076 0.129,0.19349 0.19379,0.47323 0.19379,0.83871 h 1.48311 v -0.21498 c 0,-0.36548 -0.0606,-0.67736 -0.18242,-0.93534 -0.11466,-0.26515 -0.27955,-0.48009 -0.49454,-0.64492 -0.20782,-0.17199 -0.45859,-0.29369 -0.75241,-0.36535 -0.28665,-0.0788 -0.60221,-0.11834 -0.94619,-0.11834 z m -53.671147,0.0646 v 1.26814 h 1.48363 v -1.26814 z m 70.601377,0 v 1.26814 h 1.48311 v -1.26814 z m -102.634048,0.0858 v 7.67498 h 1.547709 v -3.06338 h 0.827855 c 0.36548,0 0.698442,-0.0469 0.999424,-0.14004 0.30098,-0.0932 0.55544,-0.23277 0.76326,-0.4191 0.214987,-0.18632 0.379883,-0.42655 0.494543,-0.72037 0.121827,-0.29381 0.182935,-0.63784 0.182935,-1.03198 0,-0.28664 -0.03582,-0.56587 -0.107487,-0.83819 -0.07166,-0.27948 -0.190198,-0.52657 -0.355018,-0.74155 -0.164824,-0.21499 -0.382942,-0.38727 -0.655256,-0.51625 -0.265152,-0.13616 -0.594947,-0.20412 -0.989087,-0.20412 z m 50.317343,0 v 7.67498 h 1.483114 v -7.67498 z m 28.109395,0 v 2.42931 h -0.0217 c -0.15765,-0.22932 -0.33678,-0.40108 -0.53743,-0.51574 -0.19349,-0.11465 -0.43003,-0.17208 -0.70952,-0.17208 -0.60912,0 -1.05694,0.23972 -1.34358,0.71985 -0.28665,0.47297 -0.42995,1.24741 -0.42995,2.32234 0,1.07493 0.1433,1.84517 0.42995,2.31097 0.28664,0.4658 0.73446,0.69867 1.34358,0.69867 0.30098,0 0.55176,-0.0537 0.75241,-0.16123 0.20782,-0.10749 0.39431,-0.29768 0.55914,-0.56999 h 0.0217 v 0.61288 h 1.41851 v -7.67498 z m 46.39355,0 c -0.28664,0 -0.55165,0.0395 -0.7953,0.11833 -0.23648,0.0717 -0.44038,0.17914 -0.61236,0.32247 -0.172,0.13616 -0.30844,0.30422 -0.40876,0.50487 -0.0932,0.19349 -0.13953,0.41582 -0.13953,0.66663 0,0.10749 0.007,0.21128 0.0212,0.31161 0.0143,0.10033 0.0396,0.20463 0.0754,0.31213 0.0358,0.10749 0.0858,0.22182 0.15038,0.34364 0.0717,0.12183 0.16122,0.26196 0.26872,0.41962 l 0.26871,0.39739 c -0.48013,0.30098 -0.85998,0.63446 -1.13946,0.99994 -0.27231,0.35831 -0.40825,0.76293 -0.40825,1.21439 0,0.21499 0.0322,0.45153 0.0966,0.70952 0.0645,0.25798 0.18255,0.49822 0.3545,0.72037 0.17199,0.22215 0.41222,0.40497 0.72037,0.54829 0.30815,0.13616 0.70221,0.20412 1.18236,0.20412 0.38697,0 0.74153,-0.0611 1.06401,-0.18294 0.32965,-0.12182 0.59148,-0.29726 0.78497,-0.52658 l 0.42995,0.59118 h 1.64434 l -1.01027,-1.41903 c 0.22932,-0.32965 0.41581,-0.68422 0.55913,-1.06402 0.1505,-0.38698 0.22583,-0.78842 0.22583,-1.20406 h -1.33325 c 0,0.16482 -0.0248,0.35817 -0.0749,0.58032 -0.0502,0.22216 -0.115,0.41603 -0.19379,0.58085 l -1.1498,-1.55857 c 0.45147,-0.32248 0.78444,-0.63804 0.99942,-0.94619 0.22216,-0.30815 0.33332,-0.65585 0.33332,-1.04283 0,-0.22215 -0.0395,-0.42973 -0.11834,-0.62322 -0.0717,-0.19349 -0.186,-0.36207 -0.34365,-0.50539 -0.15766,-0.1505 -0.35839,-0.26483 -0.60203,-0.34365 -0.23649,-0.086 -0.51992,-0.12919 -0.84956,-0.12919 z m -0.032,0.94567 c 0.20066,0 0.36188,0.0574 0.4837,0.17209 0.12899,0.10749 0.19378,0.26553 0.19378,0.47335 0,0.13616 -0.0395,0.27577 -0.11834,0.4191 -0.0717,0.13615 -0.19387,0.27577 -0.36587,0.4191 l -0.27905,0.23667 -0.18293,-0.25838 c -0.25798,-0.34397 -0.38706,-0.6232 -0.38706,-0.83819 0,-0.20065 0.0611,-0.35449 0.18293,-0.46199 0.12899,-0.10749 0.28652,-0.16175 0.47284,-0.16175 z m -123.240539,0.19379 h 0.644922 c 0.386972,0 0.663036,0.1001 0.827855,0.30076 0.164828,0.20065 0.247015,0.49462 0.247015,0.8816 0,0.39414 -0.09641,0.68443 -0.289906,0.87075 -0.18632,0.18632 -0.433409,0.27957 -0.741556,0.27957 h -0.68833 z m 9.735323,0.60152 c -0.02718,-9e-5 -0.05439,6e-5 -0.08217,5.2e-4 -0.422807,0 -0.781055,0.068 -1.07487,0.20413 -0.286647,0.12899 -0.520028,0.32234 -0.699183,0.58032 -0.17916,0.25082 -0.307713,0.56639 -0.386537,0.9462 -0.07883,0.37981 -0.118341,0.81708 -0.118341,1.31155 0,0.50163 0.03583,0.94576 0.107487,1.33273 0.07166,0.37981 0.193361,0.69854 0.365353,0.95653 0.171987,0.25082 0.404852,0.43731 0.698664,0.55914 0.293817,0.11466 0.66312,0.1684 1.107427,0.16123 0.422807,0 0.777372,-0.0611 1.064019,-0.18293 0.293812,-0.12182 0.530363,-0.30781 0.709517,-0.55863 0.17916,-0.25798 0.308229,-0.57724 0.387057,-0.95704 0.07883,-0.37981 0.117821,-0.81657 0.117821,-1.31103 0,-0.5088 -0.03583,-0.95344 -0.107487,-1.33326 -0.07166,-0.3798 -0.19336,-0.69855 -0.365352,-0.95653 -0.171987,-0.25798 -0.404852,-0.44816 -0.698664,-0.56999 -0.275453,-0.12092 -0.617024,-0.18167 -1.024745,-0.18293 z m 25.443408,0 c -0.02718,-9e-5 -0.05439,6e-5 -0.08217,5.2e-4 -0.422807,0 -0.781055,0.068 -1.07487,0.20413 -0.286644,0.12899 -0.519504,0.32234 -0.698664,0.58032 -0.179154,0.25082 -0.308229,0.56639 -0.387056,0.9462 -0.07883,0.37981 -0.11834,0.81708 -0.11834,1.31155 0,0.50163 0.03583,0.94576 0.107487,1.33273 0.07166,0.37981 0.19336,0.69854 0.365352,0.95653 0.171987,0.25082 0.404852,0.43731 0.698667,0.55914 0.293812,0.11466 0.66312,0.1684 1.107424,0.16123 0.422807,0 0.777372,-0.0611 1.064019,-0.18293 0.293812,-0.12182 0.530363,-0.30781 0.709518,-0.55863 0.17916,-0.25798 0.308229,-0.57724 0.387056,-0.95704 0.07883,-0.37981 0.11834,-0.81657 0.11834,-1.31103 0,-0.5088 -0.03583,-0.95344 -0.107487,-1.33326 -0.07167,-0.3798 -0.193884,-0.69855 -0.365871,-0.95653 -0.171987,-0.25798 -0.404852,-0.44816 -0.698664,-0.56999 -0.27545,-0.12092 -0.617024,-0.18167 -1.024745,-0.18293 z m -28.417388,5.2e-4 c -0.308144,0 -0.56946,0.0859 -0.784447,0.25787 -0.21498,0.16482 -0.397793,0.38715 -0.548286,0.66663 h -0.0217 v -0.77412 h -1.419034 v 5.78311 h 1.48363 v -3.47215 c 0,-0.19349 0.03217,-0.3547 0.09664,-0.48369 0.06447,-0.13616 0.150344,-0.24364 0.257866,-0.32246 0.107492,-0.086 0.226023,-0.14659 0.355015,-0.18242 0.128998,-0.0359 0.258064,-0.0543 0.387059,-0.0543 0.07883,0 0.153649,0.004 0.225309,0.0109 0.07883,0 0.157845,0.004 0.236677,0.0109 v -1.41904 c -0.043,-0.007 -0.08937,-0.0103 -0.139525,-0.0103 -0.043,-0.007 -0.08619,-0.0109 -0.129193,-0.0109 z m 11.232907,0 c -0.501632,0 -0.902563,0.0822 -1.203545,0.24702 -0.300979,0.16482 -0.533844,0.38714 -0.698664,0.66662 -0.15766,0.27948 -0.265652,0.59823 -0.322977,0.95653 -0.05013,0.35832 -0.07493,0.73079 -0.07493,1.11777 0,0.36548 0.01423,0.7311 0.04289,1.09657 0.03587,0.36547 0.125431,0.69527 0.268719,0.98909 0.143325,0.29381 0.365646,0.53036 0.666626,0.70951 0.300979,0.17916 0.720333,0.26872 1.257805,0.26872 0.709451,0 1.228921,-0.17544 1.55856,-0.52658 0.329647,-0.35115 0.508767,-0.86376 0.537435,-1.53738 h -1.332736 c -0.043,0.36548 -0.122017,0.63786 -0.236677,0.81701 -0.11466,0.17916 -0.297474,0.26872 -0.548288,0.26872 -0.13616,0 -0.251005,-0.0358 -0.344165,-0.10749 -0.09316,-0.0788 -0.167976,-0.17945 -0.225309,-0.30127 -0.05733,-0.129 -0.100531,-0.2723 -0.12919,-0.42995 -0.02146,-0.16482 -0.03204,-0.33289 -0.03204,-0.50488 l -5.3e-4,-0.4625 h 2.934706 v -0.33332 c 0,-0.4443 -0.02845,-0.84523 -0.08578,-1.20354 -0.05733,-0.36548 -0.164807,-0.67367 -0.322461,-0.92449 -0.157655,-0.25798 -0.376288,-0.45502 -0.655775,-0.59118 -0.272312,-0.14332 -0.623708,-0.21498 -1.053682,-0.21498 z m 4.815726,0 c -0.379812,0 -0.705921,0.0464 -0.978233,0.13953 -0.265147,0.0932 -0.48378,0.21855 -0.655775,0.37621 -0.171987,0.15766 -0.297376,0.34415 -0.376203,0.55913 -0.07883,0.20782 -0.117822,0.43015 -0.117822,0.66663 0,0.40847 0.103788,0.74512 0.311608,1.01027 0.207819,0.25798 0.516017,0.45871 0.924491,0.60203 l 1.042313,0.37621 c 0.143322,0.0573 0.268711,0.13583 0.376206,0.23616 0.107492,0.0932 0.161229,0.23329 0.161229,0.41961 0,0.22932 -0.06796,0.40107 -0.204121,0.51573 -0.136155,0.11466 -0.318968,0.17209 -0.548288,0.17209 -0.25082,0 -0.444172,-0.0753 -0.580327,-0.22583 -0.128992,-0.15765 -0.193267,-0.36155 -0.193267,-0.61237 v -0.19378 h -1.333254 v 0.20412 c 0,0.27948 0.03269,0.53394 0.09715,0.76326 0.06447,0.22215 0.175117,0.41234 0.332796,0.56999 0.164827,0.15766 0.38346,0.27568 0.655775,0.3545 0.279487,0.0788 0.627197,0.11834 1.042829,0.11834 0.315317,0 0.601911,-0.0322 0.859895,-0.0966 0.26515,-0.0645 0.49116,-0.17194 0.677479,-0.32246 0.193495,-0.15049 0.343644,-0.33699 0.451136,-0.55914 0.107487,-0.22932 0.161229,-0.49801 0.161229,-0.80616 0,-0.43714 -0.09642,-0.78116 -0.289904,-1.03197 -0.193487,-0.25799 -0.523287,-0.46557 -0.989086,-0.62322 l -0.892453,-0.30128 c -0.25082,-0.0788 -0.422569,-0.17576 -0.515729,-0.29042 -0.086,-0.11465 -0.129193,-0.24321 -0.129193,-0.38654 0,-0.20782 0.06848,-0.36217 0.204639,-0.4625 0.14332,-0.10749 0.3077,-0.16123 0.494028,-0.16123 0.243647,0 0.412231,0.0716 0.505396,0.21497 0.100325,0.13616 0.150376,0.3548 0.150376,0.65578 h 1.333254 v -0.23668 c 0,-0.52313 -0.161213,-0.92775 -0.483693,-1.2144 -0.322479,-0.28664 -0.820862,-0.42995 -1.494483,-0.42995 z m 4.772838,0 c -0.379815,0 -0.705922,0.0464 -0.978236,0.13953 -0.265147,0.0932 -0.483781,0.21854 -0.655773,0.37621 -0.171987,0.15765 -0.297378,0.34415 -0.376206,0.55913 -0.07883,0.20782 -0.118337,0.43014 -0.118337,0.66663 0,0.40847 0.103788,0.74513 0.311608,1.01027 0.207819,0.25799 0.516016,0.45871 0.924491,0.60203 l 1.042831,0.37621 c 0.14332,0.0573 0.268711,0.13584 0.376203,0.23616 0.107495,0.0932 0.161232,0.23329 0.161232,0.41961 0,0.22932 -0.06796,0.40107 -0.204123,0.51573 -0.136152,0.11466 -0.318966,0.17209 -0.548286,0.17209 -0.250819,0 -0.444174,-0.0753 -0.580326,-0.22583 -0.128995,-0.15765 -0.193789,-0.36155 -0.193786,-0.61237 v -0.19378 h -1.332736 v 0.20412 c 0,0.27948 0.03217,0.53394 0.09663,0.76326 0.06447,0.22215 0.175625,0.41234 0.333314,0.56999 0.16482,0.15766 0.383453,0.27568 0.655773,0.3545 0.279479,0.0788 0.627189,0.11834 1.042831,0.11834 0.315312,0 0.601917,-0.0322 0.859896,-0.0966 0.265152,-0.0645 0.490641,-0.17194 0.67696,-0.32246 0.193487,-0.15049 0.34416,-0.33699 0.451652,-0.55914 0.107495,-0.22932 0.161232,-0.49801 0.161232,-0.80616 0,-0.43714 -0.09694,-0.78116 -0.290423,-1.03197 -0.193487,-0.25799 -0.522764,-0.46557 -0.988571,-0.62322 l -0.89245,-0.30128 c -0.250819,-0.0788 -0.422571,-0.17576 -0.515731,-0.29042 -0.086,-0.11466 -0.129191,-0.24321 -0.129191,-0.38654 0,-0.20782 0.06796,-0.36217 0.204121,-0.4625 0.14332,-0.10749 0.308216,-0.16123 0.494543,-0.16123 0.243647,0 0.412237,0.0716 0.505397,0.21497 0.100325,0.13616 0.150378,0.3548 0.150378,0.65578 h 1.332736 v -0.23668 c 0,-0.52313 -0.161213,-0.92775 -0.483693,-1.2144 -0.322479,-0.28664 -0.820346,-0.42995 -1.493964,-0.42995 z m 13.500984,0 c -0.32248,0 -0.609082,0.068 -0.859896,0.20413 -0.25082,0.12899 -0.455229,0.33657 -0.612884,0.62321 h -0.02119 v -0.67696 h -1.419034 v 5.78311 h 1.48363 v -3.8375 c 0,-0.6378 0.261313,-0.95653 0.784447,-0.95653 0.222155,0 0.383365,0.0606 0.483693,0.18242 0.100324,0.11465 0.150375,0.32275 0.150375,0.62373 v 3.98787 h 1.483633 v -4.28914 c 0,-0.58046 -0.129072,-0.99931 -0.387056,-1.25729 -0.25082,-0.25798 -0.612757,-0.38706 -1.085723,-0.38706 z m 4.482414,0 c -0.279482,0 -0.54448,0.0322 -0.7953,0.0966 -0.243655,0.0573 -0.458602,0.15744 -0.644922,0.30076 -0.179155,0.13615 -0.322456,0.31896 -0.429948,0.54828 -0.107495,0.22216 -0.161232,0.5019 -0.161232,0.83871 v 0.13953 h 1.332736 v -0.16123 c 0,-0.22932 0.05743,-0.41214 0.172082,-0.54829 0.11466,-0.13616 0.286412,-0.20412 0.515731,-0.20412 0.25082,0 0.426773,0.0648 0.527101,0.19379 0.107487,0.12182 0.161229,0.29358 0.161229,0.51573 0,0.19348 -0.0432,0.34047 -0.129191,0.4408 -0.08599,0.10032 -0.239834,0.17882 -0.461986,0.23616 l -0.838708,0.22582 c -0.257988,0.0717 -0.480306,0.15437 -0.666626,0.24753 -0.179155,0.0932 -0.329311,0.21118 -0.451136,0.3545 -0.11466,0.13616 -0.200538,0.30475 -0.257865,0.5054 -0.05733,0.19349 -0.0863,0.42634 -0.0863,0.69866 0,0.19349 0.02532,0.39053 0.07545,0.59118 0.05013,0.19349 0.128643,0.36893 0.236162,0.52659 0.107492,0.15766 0.250796,0.28304 0.429948,0.3762 0.17916,0.086 0.397793,0.12919 0.655775,0.12919 0.358312,0 0.648595,-0.0432 0.870747,-0.12919 0.229314,-0.0932 0.430038,-0.2902 0.60203,-0.59118 h 0.0217 c 0.02146,0.10033 0.04255,0.20412 0.06408,0.31161 0.02867,0.10033 0.06818,0.19726 0.11834,0.29042 h 1.419035 c -0.07167,-0.17198 -0.121719,-0.3332 -0.150379,-0.48369 -0.02146,-0.15049 -0.03256,-0.36175 -0.03256,-0.63407 v -3.0422 c 0,-0.25798 -0.02845,-0.49453 -0.08578,-0.70952 -0.0502,-0.22215 -0.150302,-0.41181 -0.300757,-0.56947 -0.150492,-0.15766 -0.362273,-0.27988 -0.634585,-0.36587 -0.272319,-0.086 -0.630571,-0.12868 -1.074869,-0.12868 z m 21.681364,0 c -0.279487,0 -0.544486,0.0322 -0.7953,0.0966 -0.243652,0.0573 -0.458602,0.15744 -0.644922,0.30076 -0.179152,0.13615 -0.322456,0.31896 -0.429948,0.54828 -0.107492,0.22216 -0.161229,0.5019 -0.161232,0.83871 v 0.13953 h 1.332736 v -0.16123 c 0,-0.22932 0.05742,-0.41214 0.172082,-0.54829 0.114665,-0.13616 0.286411,-0.20412 0.515731,-0.20412 0.250815,0 0.426773,0.0648 0.5271,0.19379 0.107495,0.12182 0.161232,0.29358 0.161232,0.51573 0,0.19348 -0.0432,0.34047 -0.129193,0.4408 -0.08599,0.10032 -0.24035,0.17882 -0.462502,0.23616 l -0.838193,0.22582 c -0.257987,0.0717 -0.480306,0.15437 -0.666625,0.24753 -0.179155,0.0932 -0.329309,0.21118 -0.451136,0.3545 -0.11466,0.13616 -0.201054,0.30475 -0.258381,0.5054 -0.05734,0.19349 -0.08578,0.42634 -0.08578,0.69866 0,0.19349 0.02524,0.39053 0.07545,0.59118 0.05013,0.19349 0.12864,0.36893 0.236159,0.52659 0.107495,0.15766 0.250796,0.28304 0.429948,0.3762 0.179155,0.086 0.397788,0.12919 0.655775,0.12919 0.358307,0 0.648594,-0.0432 0.870746,-0.12919 0.229323,-0.0932 0.430044,-0.2902 0.602033,-0.59118 h 0.0217 c 0.02146,0.10033 0.04254,0.20412 0.06408,0.31161 0.02867,0.10033 0.06818,0.19726 0.11834,0.29042 h 1.419033 c -0.0717,-0.17198 -0.12171,-0.3332 -0.15038,-0.48369 -0.0215,-0.15049 -0.0326,-0.36175 -0.0326,-0.63407 v -3.0422 c 0,-0.25798 -0.0284,-0.49453 -0.0858,-0.70952 -0.0501,-0.22215 -0.150233,-0.41181 -0.300752,-0.56947 -0.150495,-0.15766 -0.362272,-0.27988 -0.634587,-0.36587 -0.27232,-0.086 -0.630571,-0.12868 -1.07487,-0.12868 z m 5.923153,0 c -0.30815,0 -0.56998,0.0859 -0.78497,0.25787 -0.21498,0.16482 -0.3978,0.38715 -0.54828,0.66663 h -0.0212 v -0.77412 h -1.41904 v 5.78311 h 1.48311 v -3.47215 c 0,-0.19349 0.0326,-0.3547 0.0972,-0.48369 0.0645,-0.13616 0.15034,-0.24364 0.25786,-0.32246 0.1075,-0.086 0.22551,-0.14659 0.3545,-0.18242 0.129,-0.0359 0.25807,-0.0543 0.38706,-0.0543 0.0788,0 0.15416,0.004 0.22582,0.0109 0.0788,0 0.15786,0.004 0.23668,0.0109 v -1.41904 c -0.043,-0.007 -0.0899,-0.0103 -0.14004,-0.0103 -0.043,-0.007 -0.0857,-0.0109 -0.12867,-0.0109 z m 16.42484,0 c -0.50163,0 -0.90308,0.0822 -1.20406,0.24702 -0.30098,0.16482 -0.53385,0.38714 -0.69867,0.66662 -0.15766,0.27948 -0.26513,0.59823 -0.32246,0.95653 -0.0501,0.35832 -0.0755,0.73079 -0.0755,1.11777 0,0.36548 0.0142,0.7311 0.0429,1.09657 0.0359,0.36547 0.12544,0.69527 0.26872,0.98909 0.14333,0.29381 0.36565,0.53036 0.66663,0.70951 0.30098,0.17916 0.72033,0.26872 1.2578,0.26872 0.70946,0 1.22892,-0.17544 1.55856,-0.52658 0.32964,-0.35115 0.50877,-0.86376 0.53744,-1.53738 h -1.33274 c -0.043,0.36548 -0.12201,0.63786 -0.23667,0.81701 -0.11466,0.17916 -0.29748,0.26872 -0.54829,0.26872 -0.13616,0 -0.25049,-0.0358 -0.34365,-0.10749 -0.0932,-0.0788 -0.1685,-0.17945 -0.22583,-0.30127 -0.0573,-0.129 -0.10052,-0.2723 -0.12919,-0.42995 -0.0215,-0.16482 -0.032,-0.33289 -0.032,-0.50488 v -0.4625 h 2.93419 v -0.33332 c 0,-0.4443 -0.0285,-0.84523 -0.0858,-1.20354 -0.0573,-0.36548 -0.16481,-0.67367 -0.32246,-0.92449 -0.15766,-0.25798 -0.3763,-0.45502 -0.65578,-0.59118 -0.27232,-0.14332 -0.62319,-0.21498 -1.05316,-0.21498 z m 5.66477,0 c -0.30815,0 -0.56998,0.0859 -0.78497,0.25787 -0.21498,0.16482 -0.3978,0.38715 -0.54828,0.66663 h -0.0212 v -0.77412 h -1.41903 v 5.78311 h 1.48363 v -3.47215 c 0,-0.19349 0.0322,-0.3547 0.0966,-0.48369 0.0645,-0.13616 0.15035,-0.24364 0.25787,-0.32246 0.10749,-0.086 0.22551,-0.14659 0.3545,-0.18242 0.12899,-0.0359 0.25807,-0.0543 0.38706,-0.0543 0.0788,0 0.15416,0.004 0.22582,0.0109 0.0788,0 0.15785,0.004 0.23668,0.0109 v -1.41904 c -0.043,-0.007 -0.0899,-0.0103 -0.14004,-0.0103 -0.043,-0.007 -0.0857,-0.0109 -0.12868,-0.0109 z m 10.4805,0 c -0.34398,0 -0.65955,0.0464 -0.9462,0.13953 -0.28665,0.0932 -0.53374,0.25806 -0.74156,0.49454 -0.20782,0.22932 -0.36903,0.54121 -0.48369,0.93535 -0.11465,0.38698 -0.17208,0.87798 -0.17208,1.47278 0,0.58046 0.0469,1.06727 0.14004,1.46141 0.0932,0.38697 0.22909,0.69885 0.40825,0.93534 0.18632,0.22932 0.4155,0.39053 0.68781,0.48369 0.27949,0.086 0.60559,0.12919 0.97824,0.12919 0.78827,0 1.35093,-0.19704 1.68775,-0.59118 0.34398,-0.4013 0.51573,-0.98187 0.51573,-1.74149 h -1.41852 c 0,0.47297 -0.0574,0.81699 -0.17208,1.03198 -0.11466,0.21498 -0.29748,0.32246 -0.54829,0.32246 -0.16483,0 -0.30075,-0.0358 -0.40824,-0.10749 -0.10033,-0.0788 -0.17936,-0.20053 -0.23668,-0.36535 -0.0573,-0.16483 -0.0969,-0.37292 -0.11834,-0.62374 -0.0215,-0.25798 -0.032,-0.56618 -0.032,-0.92449 0,-0.33681 0.0105,-0.62709 0.032,-0.87075 0.0215,-0.25081 0.061,-0.4547 0.11834,-0.61236 0.0573,-0.16482 0.14321,-0.28653 0.25786,-0.36535 0.11466,-0.086 0.26165,-0.1292 0.4408,-0.1292 0.14333,0 0.25818,0.0358 0.34417,0.10749 0.086,0.0645 0.15027,0.15403 0.19327,0.26872 0.0501,0.10749 0.0823,0.22919 0.0966,0.36535 0.0215,0.13615 0.0326,0.27577 0.0326,0.4191 h 1.41852 c 0,-0.68796 -0.17544,-1.23219 -0.52658,-1.6335 -0.34398,-0.4013 -0.85975,-0.60203 -1.54771,-0.60203 z m 4.93406,0 c -0.50163,0 -0.90308,0.0822 -1.20406,0.24702 -0.30098,0.16482 -0.53384,0.38714 -0.69866,0.66662 -0.15766,0.27948 -0.26513,0.59823 -0.32247,0.95653 -0.0501,0.35832 -0.0754,0.73079 -0.0754,1.11777 0,0.36548 0.0142,0.7311 0.0429,1.09657 0.0358,0.36547 0.12536,0.69527 0.26872,0.98909 0.14332,0.29381 0.36564,0.53036 0.66662,0.70951 0.30099,0.17916 0.72035,0.26872 1.2578,0.26872 0.70946,0 1.22892,-0.17544 1.55857,-0.52658 0.32964,-0.35115 0.50876,-0.86376 0.53743,-1.53738 h -1.33273 c -0.043,0.36548 -0.12203,0.63786 -0.23668,0.81701 -0.11466,0.17916 -0.29747,0.26872 -0.54829,0.26872 -0.13615,0 -0.25048,-0.0358 -0.34365,-0.10749 -0.0932,-0.0788 -0.16849,-0.17945 -0.22582,-0.30127 -0.0573,-0.129 -0.10053,-0.2723 -0.12919,-0.42995 -0.0215,-0.16482 -0.032,-0.33289 -0.032,-0.50488 v -0.4625 h 2.93419 v -0.33332 c 0,-0.4443 -0.0285,-0.84523 -0.0858,-1.20354 -0.0573,-0.36548 -0.16481,-0.67367 -0.32246,-0.92449 -0.15766,-0.25798 -0.37629,-0.45502 -0.65577,-0.59118 -0.27232,-0.14332 -0.62319,-0.21498 -1.05317,-0.21498 z m 4.81521,0 c -0.37981,0 -0.70591,0.0464 -0.97823,0.13953 -0.26515,0.0932 -0.48327,0.21854 -0.65526,0.37621 -0.17199,0.15765 -0.29738,0.34415 -0.3762,0.55913 -0.0788,0.20782 -0.11834,0.43014 -0.11834,0.66663 0,0.40847 0.10379,0.74513 0.31161,1.01027 0.20781,0.25799 0.51601,0.45871 0.92449,0.60203 l 1.04283,0.37621 c 0.14332,0.0573 0.26871,0.13584 0.3762,0.23616 0.1075,0.0932 0.16123,0.23329 0.16123,0.41961 0,0.22932 -0.0685,0.40107 -0.20464,0.51573 -0.13616,0.11466 -0.31845,0.17209 -0.54777,0.17209 -0.25081,0 -0.44468,-0.0753 -0.58084,-0.22583 -0.12899,-0.15765 -0.19327,-0.36155 -0.19327,-0.61237 v -0.19378 h -1.33273 v 0.20412 c 0,0.27948 0.0322,0.53394 0.0966,0.76326 0.0645,0.22215 0.17563,0.41234 0.33331,0.56999 0.16483,0.15766 0.38295,0.27568 0.65526,0.3545 0.27948,0.0788 0.62719,0.11834 1.04283,0.11834 0.31531,0 0.60191,-0.0322 0.85989,-0.0966 0.26515,-0.0645 0.49116,-0.17194 0.67748,-0.32246 0.19349,-0.15049 0.34365,-0.33699 0.45114,-0.55914 0.10749,-0.22932 0.16123,-0.49801 0.16123,-0.80616 0,-0.43714 -0.0964,-0.78116 -0.28991,-1.03197 -0.19348,-0.25799 -0.52328,-0.46557 -0.98908,-0.62322 l -0.89194,-0.30128 c -0.25081,-0.0788 -0.42308,-0.17576 -0.51625,-0.29042 -0.086,-0.11466 -0.12919,-0.24321 -0.12919,-0.38654 0,-0.20782 0.0685,-0.36217 0.20464,-0.4625 0.14333,-0.10749 0.30823,-0.16123 0.49455,-0.16123 0.24365,0 0.41171,0.0716 0.50487,0.21497 0.10033,0.13616 0.15038,0.3548 0.15038,0.65578 H 148.3 v -0.23668 c 0,-0.52313 -0.16122,-0.92775 -0.4837,-1.2144 -0.32248,-0.28664 -0.82086,-0.42995 -1.49448,-0.42995 z m -85.005147,0.15038 v 5.78311 h 1.48363 v -5.78312 z m 29.3672,0 v 4.28915 c 0,0.58046 0.125384,0.99613 0.376204,1.24695 0.257979,0.24365 0.623601,0.36535 1.096573,0.36535 0.322474,0 0.609076,-0.0611 0.859896,-0.18293 0.25082,-0.12182 0.454713,-0.32572 0.612368,-0.61237 h 0.0217 v 0.67696 h 1.419035 v -5.78312 h -1.48363 v 3.83749 c 0,0.63779 -0.261316,0.95653 -0.78445,0.95653 -0.222147,0 -0.383363,-0.0574 -0.48369,-0.17208 -0.100327,-0.12182 -0.150895,-0.33309 -0.150895,-0.63407 v -3.98787 z m 35.966797,0 1.49448,5.78311 h 1.71979 l 1.45108,-5.78311 h -1.48312 l -0.78496,4.13825 h -0.0217 l -0.82734,-4.13825 z m 5.26738,0 v 5.78311 h 1.48311 v -5.78312 z m -91.433182,0.8599 c 0.300979,0 0.508558,0.15752 0.623218,0.47284 0.11466,0.31531 0.172082,0.83529 0.172082,1.55908 0,0.72378 -0.05742,1.24324 -0.172082,1.55856 -0.11466,0.31531 -0.322239,0.47284 -0.623218,0.47284 -0.179152,0 -0.322453,-0.05 -0.429948,-0.15038 -0.107492,-0.10033 -0.190193,-0.24046 -0.247531,-0.41961 -0.05013,-0.17916 -0.0823,-0.39411 -0.09663,-0.64493 -0.01434,-0.25081 -0.0217,-0.52267 -0.0217,-0.81648 0,-0.29382 0.0074,-0.56619 0.0217,-0.81701 0.01434,-0.25081 0.0465,-0.46576 0.09663,-0.64492 0.05734,-0.17915 0.140039,-0.31929 0.247531,-0.41961 0.107495,-0.10033 0.250796,-0.15038 0.429948,-0.15038 z m 8.287351,0 c 0.150492,0 0.272192,0.0322 0.365352,0.0966 0.100325,0.0573 0.175665,0.1469 0.225825,0.26872 0.05734,0.11466 0.09684,0.25796 0.11834,0.42995 0.02146,0.16483 0.03569,0.35869 0.04289,0.58084 h -1.515671 v -0.22582 c 0,-0.13616 0.01109,-0.2726 0.03256,-0.40876 0.02867,-0.13616 0.07135,-0.25787 0.128674,-0.36536 0.05733,-0.11466 0.132665,-0.20421 0.225825,-0.26871 0.100327,-0.0717 0.225719,-0.10749 0.376206,-0.10749 z m 17.156057,0 c 0.300982,0 0.508558,0.15752 0.623218,0.47284 0.114655,0.31531 0.172083,0.83529 0.172083,1.55908 0,0.72378 -0.05743,1.24324 -0.172083,1.55856 -0.11466,0.31531 -0.322236,0.47284 -0.623218,0.47284 -0.17916,0 -0.322453,-0.05 -0.429948,-0.15038 -0.107492,-0.10033 -0.190201,-0.24046 -0.247528,-0.41961 -0.05013,-0.17916 -0.0823,-0.39411 -0.09664,-0.64493 -0.01434,-0.25081 -0.02119,-0.52267 -0.02119,-0.81648 0,-0.29382 0.0069,-0.56619 0.02119,-0.81701 0.01434,-0.25081 0.0465,-0.46576 0.09664,-0.64492 0.05733,-0.17915 0.140044,-0.31929 0.247528,-0.41961 0.107495,-0.10033 0.250788,-0.15038 0.429948,-0.15038 z m 54.444744,0 c 0.15049,0 0.27271,0.0322 0.36587,0.0966 0.10032,0.0573 0.17566,0.1469 0.22582,0.26872 0.0573,0.11466 0.0963,0.25796 0.11783,0.42995 0.0215,0.16483 0.0363,0.35869 0.0434,0.58084 h -1.51567 v -0.22582 c 0,-0.13616 0.0106,-0.2726 0.032,-0.40876 0.0287,-0.13616 0.0719,-0.25787 0.12919,-0.36536 0.0573,-0.11466 0.13216,-0.20421 0.22531,-0.26871 0.10033,-0.0717 0.22571,-0.10749 0.37621,-0.10749 z m 21.07985,0 c 0.15049,0 0.27219,0.0322 0.36535,0.0966 0.10033,0.0573 0.17566,0.1469 0.22583,0.26872 0.0573,0.11466 0.0968,0.25796 0.11834,0.42995 0.0215,0.16483 0.0357,0.35869 0.0429,0.58084 h -1.51567 v -0.22582 c 0,-0.13616 0.0105,-0.2726 0.032,-0.40876 0.0287,-0.13616 0.0719,-0.25787 0.12919,-0.36536 0.0573,-0.11466 0.13266,-0.20421 0.22582,-0.26871 0.10033,-0.0717 0.22572,-0.10749 0.37621,-0.10749 z m -34.52709,0.12919 c 0.32964,0 0.54142,0.16121 0.63458,0.48369 0.10033,0.31531 0.15038,0.78841 0.15038,1.41904 0,0.63062 -0.05,1.10689 -0.15038,1.42937 -0.0932,0.31531 -0.30494,0.47284 -0.63458,0.47284 -0.32249,0 -0.53375,-0.15753 -0.63407,-0.47284 -0.0932,-0.32248 -0.13953,-0.79875 -0.13953,-1.42937 0,-0.63063 0.0464,-1.10373 0.13953,-1.41904 0.10032,-0.32248 0.31158,-0.48369 0.63407,-0.48369 z m -88.424067,0.0822 c -0.363989,-0.004 -3.276285,0.0336 -3.276285,2.14044 0,2.2473 1.864654,2.3859 3.004984,2.3859 h 3.898987 c 0,0 0.855245,-0.0923 0.855245,0.50798 0,0.6003 -0.416478,0.59221 -0.925008,0.59221 h -7.134449 l -1.44849,1.94717 h 8.582939 c 0,0 3.228744,0.0926 3.228744,-2.34714 0,-2.4397 -2.989482,-2.18592 -2.989482,-2.18592 h -4.106726 c 0,0 -0.716752,0.0616 -0.716752,-0.50798 0,-0.56952 0.562257,-0.56172 0.993737,-0.56172 h 5.085478 l 1.487248,-1.9699 H 18.53892 c 0,0 -0.01294,-8e-4 -0.03721,-10e-4 z m 135.151447,1.34721 1.28984,1.82728 c -0.25799,0.32248 -0.59146,0.4842 -0.99994,0.4842 -0.17199,0 -0.32582,-0.029 -0.46198,-0.0863 -0.13616,-0.0645 -0.25101,-0.14348 -0.34417,-0.23667 -0.086,-0.10033 -0.15396,-0.21097 -0.20412,-0.3328 -0.043,-0.12182 -0.0646,-0.24036 -0.0646,-0.35502 0,-0.23648 0.0537,-0.45512 0.16123,-0.65577 0.11466,-0.20065 0.32276,-0.4156 0.62374,-0.64492 z m -76.57776,0.47335 v 1.13895 c 0,0.15766 -0.02897,0.2941 -0.0863,0.40876 -0.05733,0.11466 -0.132665,0.20791 -0.225825,0.27957 -0.086,0.0717 -0.182412,0.1254 -0.289907,0.16123 -0.107492,0.0287 -0.21128,0.0429 -0.311607,0.0429 -0.200655,0 -0.344472,-0.079 -0.430464,-0.23667 -0.086,-0.15766 -0.128675,-0.34732 -0.128675,-0.56948 0,-0.25799 0.06428,-0.46239 0.19327,-0.61288 0.128993,-0.15049 0.34394,-0.25797 0.644922,-0.32246 0.09316,-0.0215 0.197464,-0.0537 0.312124,-0.0966 0.11466,-0.0502 0.222136,-0.11447 0.322461,-0.19327 z m 21.681366,0 v 1.13895 c 0,0.15766 -0.02897,0.2941 -0.0863,0.40876 -0.05733,0.11466 -0.132664,0.20791 -0.225824,0.27957 -0.086,0.0717 -0.182412,0.1254 -0.289904,0.16123 -0.107495,0.0287 -0.211799,0.0429 -0.312126,0.0429 -0.200655,0 -0.343956,-0.079 -0.429948,-0.23667 -0.08599,-0.15766 -0.128675,-0.34732 -0.128675,-0.56948 0,-0.25799 0.06428,-0.46239 0.19327,-0.61288 0.128987,-0.15049 0.343942,-0.25797 0.644922,-0.32246 0.09316,-0.0215 0.196948,-0.0537 0.311608,-0.0966 0.114659,-0.0502 0.222652,-0.11447 0.322979,-0.19327 z m -87.229304,1.06505 -1.389579,1.65365 h 1.96112 v 1.08624 H 9.1389774 c -1.2277101,0.73835 -3.5289838,0.50798 -3.5289838,0.50798 1.4177,1.64699 4.2374676,1.43144 4.2374676,1.43144 h 3.0437418 l 1.509986,-1.93942 h -0.0078 V 283.111 Z m 13.832748,3.74448 c -0.08935,0.1575 -0.195492,0.29755 -0.315743,0.41909 -0.1242,0.12555 -0.262034,0.23334 -0.406694,0.32557 -0.28932,0.18448 -0.607014,0.30765 -0.901753,0.38964 -0.294751,0.082 -0.566501,0.12264 -0.764812,0.14314 -0.19831,0.0205 -0.322978,0.0207 -0.322978,0.0207 l -0.0057,0.002 c -1.59286,3.88934 -5.406594,6.6213 -9.878984,6.6213 -4.4730396,0 -8.2871502,-2.73313 -9.8795001,-6.62337 H 0.52554932 c 1.70516998,5.13062 6.54334308,8.84649 12.23801268,8.84649 5.6939,0 10.526892,-3.71661 12.231812,-8.84649 0.14113,-0.42464 0.267966,-0.85535 0.364836,-1.29811 z" />
    <path
       id="path1253"
       style="fill:#008000;stroke:none;stroke-width:0.172493px;stroke-linecap:butt;stroke-linejoin:miter;stroke-opacity:1"
       d="m 12.763562,271.199 c -5.6180698,-1e-5 -10.3973751,3.61882 -12.16256507,8.64237 -0.16018,0.45587 -0.28720855,0.92648 -0.39790855,1.40301 l 1.17563882,-1.40301 h 1.5911173 c 1.6408001,-3.78127 5.3993578,-6.41873 9.7937175,-6.41873 4.39436,0 8.152838,2.63746 9.793718,6.41873 h 2.368848 C 23.160938,274.81782 18.381642,271.199 12.763562,271.199 Z m -3.4096107,9.04493 c -0.8232272,0.001 -4.1468271,0.19528 -4.6426108,3.21427 l 2.3972698,-0.0109 c 0,0 0.1085988,-1.24075 2.3750488,-1.24075 h 5.3164719 c -0.003,-0.0265 -0.0068,-0.0186 -0.0078,-0.0486 -0.006,-0.10128 -0.0042,-0.22193 0.01499,-0.3545 0.0195,-0.13256 0.05644,-0.27745 0.120923,-0.4284 0.0645,-0.15095 0.156494,-0.30761 0.285254,-0.46405 0.12876,-0.15643 0.294636,-0.31246 0.506946,-0.46147 0.102093,-0.0716 0.25296,-0.13434 0.377755,-0.20206 H 9.538436 c 0,0 -0.066881,-0.004 -0.1844847,-0.004 z M 1.6024862,280.26356 0,282.21848 h 4.6234904 c 0.4931101,-1.4315 2.1574912,-1.95492 2.1574912,-1.95492 z m 7.4899822,2.4319 c 0,0 -0.7241606,0.0462 -1.0092407,0.28473 0,0 0.038454,0.94672 -0.8629965,0.94672 H 0.39377441 l 0.007751,3.86333 H 2.7745077 v -1.92392 h 3.8059694 c 0,0 4.0991309,0.23087 3.8679809,-3.17086 z m 128.3063816,4.41161 c -0.16456,0 -0.31191,0.0258 -0.44183,0.0734 -0.12992,0.0476 -0.2427,0.11286 -0.33797,0.19947 -0.0953,0.0866 -0.17294,0.19501 -0.23357,0.31626 -0.0606,0.12126 -0.0996,0.25532 -0.12558,0.40256 h 0.46767 c 0.0303,-0.16456 0.0951,-0.30287 0.19896,-0.41547 0.10394,-0.10826 0.24257,-0.16485 0.42013,-0.16485 0.12125,0 0.22997,0.0345 0.32091,0.10387 0.091,0.0693 0.13849,0.17354 0.13849,0.31212 0,0.10827 -0.022,0.19465 -0.061,0.25528 -0.039,0.065 -0.0905,0.11263 -0.15554,0.14728 -0.065,0.0346 -0.1389,0.0605 -0.22118,0.0693 -0.0866,0.013 -0.1728,0.0176 -0.25941,0.0176 h -0.10439 l -0.0775,0.36845 h 0.12971 c 0.0693,0 0.13431,0.009 0.2036,0.0171 0.0693,0.013 0.12993,0.0347 0.1819,0.0651 0.052,0.0303 0.0951,0.0734 0.12971,0.12971 0.0346,0.0563 0.0522,0.12578 0.0522,0.21239 0,0.19488 -0.0608,0.35093 -0.17777,0.46353 -0.11693,0.11259 -0.27247,0.16847 -0.46302,0.16847 -0.17322,0 -0.31225,-0.0432 -0.41186,-0.13849 -0.0996,-0.0909 -0.14728,-0.2165 -0.14728,-0.37673 v -0.0605 c 0,-0.0216 0.004,-0.0432 0.009,-0.0692 h -0.46767 c -0.004,0.0346 -0.009,0.065 -0.009,0.0909 v 0.108 c 0,0.2685 0.0826,0.48095 0.2558,0.63252 0.16889,0.15158 0.39838,0.22531 0.6842,0.22531 0.16456,0 0.32456,-0.0217 0.4718,-0.0651 0.14724,-0.0433 0.27291,-0.11286 0.38551,-0.19947 0.11259,-0.0866 0.19912,-0.19048 0.26407,-0.3204 0.065,-0.12992 0.0997,-0.27707 0.0997,-0.44597 0,-0.14291 -0.03,-0.26826 -0.0863,-0.38085 -0.0563,-0.1126 -0.15184,-0.19504 -0.29042,-0.24701 v -0.009 c 0.16457,-0.039 0.29863,-0.12122 0.40256,-0.25114 0.10394,-0.12991 0.15606,-0.29004 0.15606,-0.48059 0,-0.12992 -0.026,-0.24269 -0.078,-0.33797 -0.052,-0.0953 -0.11667,-0.17295 -0.19895,-0.23358 -0.0866,-0.0606 -0.18215,-0.10404 -0.29043,-0.13435 -0.10825,-0.0303 -0.22071,-0.0476 -0.33331,-0.0476 z m -107.46941,5.3e-4 -0.645438,3.0918 h 0.541052 l 0.286287,-1.37252 h 1.359606 l 0.09509,-0.44184 h -1.363742 l 0.168466,-0.80977 h 1.571998 l 0.0956,-0.46767 z m 9.734291,0 -0.09509,0.46767 h 0.489376 l 0.09509,-0.46767 z m 1.847948,0 -0.641305,3.0918 h 0.494027 l 0.640789,-3.0918 z m 1.847432,0 -0.0956,0.46767 h 0.489376 l 0.0956,-0.46767 z m 4.093292,0 -0.09509,0.46767 h 0.489376 l 0.09509,-0.46767 z m 10.105843,0 -0.64079,3.0918 h 0.519348 l 0.472324,-2.47685 h 0.0088 l 0.389642,2.47684 h 0.42478 l 1.398363,-2.47685 h 0.0093 l -0.536919,2.47685 h 0.519351 l 0.636651,-3.0918 h -0.766361 l -1.342554,2.35593 h -0.0088 l -0.337963,-2.35593 z m 40.842468,0 -0.640787,3.0918 h 0.549836 l 0.264584,-1.2733 h 0.644921 c 0.0693,0 0.1431,0.004 0.212392,0.009 0.0693,0.004 0.129736,0.0171 0.186034,0.0388 0.052,0.0216 0.0956,0.0562 0.130225,0.10387 0.0346,0.052 0.05168,0.12164 0.05168,0.20825 0,0.1126 -0.0088,0.22486 -0.02582,0.33745 -0.0173,0.1126 -0.02585,0.22537 -0.02585,0.33796 0,0.0433 -2.65e-4,0.0868 0.0036,0.12144 0.004,0.039 0.01318,0.0778 0.03049,0.11679 h 0.567401 c -0.026,-0.039 -0.0389,-0.0823 -0.0475,-0.12557 -0.009,-0.0433 -0.009,-0.0864 -0.009,-0.12971 -0.004,-0.10393 0.004,-0.21264 0.0217,-0.32091 0.0173,-0.10393 0.0264,-0.21213 0.0264,-0.32039 0,-0.12992 -0.026,-0.24218 -0.0692,-0.33745 -0.0433,-0.0953 -0.13001,-0.16921 -0.25993,-0.22118 v -0.009 c 0.21653,-0.039 0.38962,-0.12549 0.51521,-0.26407 0.12125,-0.13858 0.18604,-0.32934 0.18604,-0.57619 0,-0.18622 -0.0389,-0.33324 -0.11679,-0.43718 -0.078,-0.10393 -0.16892,-0.18626 -0.27285,-0.23823 -0.10394,-0.052 -0.21214,-0.0826 -0.3204,-0.0956 -0.112593,-0.009 -0.199102,-0.017 -0.264062,-0.017 z m 10.380246,0 -0.0951,0.46767 h 0.48937 l 0.0951,-0.46767 z m 17.49454,0 -0.2465,1.16066 h -0.009 c -0.0606,-0.13425 -0.14695,-0.22948 -0.2682,-0.28578 -0.12126,-0.052 -0.25997,-0.0827 -0.40721,-0.0827 -0.19488,0 -0.36797,0.0433 -0.51521,0.12558 -0.15157,0.0823 -0.27744,0.19079 -0.38138,0.32504 -0.10393,0.13859 -0.18625,0.29032 -0.23823,0.46354 -0.0563,0.17323 -0.0822,0.34624 -0.0822,0.52813 0,0.2122 0.0304,0.37691 0.0997,0.49816 0.065,0.12126 0.14295,0.21636 0.23823,0.27699 0.0953,0.0606 0.1903,0.0995 0.28991,0.11679 0.0953,0.0173 0.1774,0.0263 0.24236,0.0263 0.12991,0 0.25546,-0.0261 0.37672,-0.078 0.11693,-0.052 0.22544,-0.14732 0.32505,-0.29456 l 0.009,0.009 -0.0692,0.30334 0.47232,-5.3e-4 0.65836,-3.0918 z m 24.07863,0 c -0.2252,0 -0.42029,0.0431 -0.57619,0.12971 -0.16023,0.0866 -0.29448,0.19513 -0.39842,0.32505 -0.10826,0.13424 -0.19466,0.27714 -0.25529,0.43304 -0.0606,0.1559 -0.10817,0.30719 -0.13849,0.45011 -0.0346,0.14724 -0.0524,0.27311 -0.061,0.38137 -0.009,0.10827 -0.0129,0.17723 -0.0129,0.21187 0,0.19055 0.0173,0.36416 0.0563,0.51573 0.039,0.15157 0.0994,0.27692 0.18603,0.38086 0.0866,0.10393 0.19493,0.18606 0.32918,0.24236 0.13425,0.0563 0.29883,0.0827 0.48938,0.0827 0.14291,0 0.27729,-0.0264 0.40721,-0.0827 0.12992,-0.0563 0.24269,-0.13398 0.33796,-0.23358 0.0953,-0.0996 0.17316,-0.21643 0.22945,-0.35502 0.0563,-0.13425 0.0863,-0.28179 0.0863,-0.43769 0,-0.13425 -0.0212,-0.2598 -0.0558,-0.37673 -0.039,-0.11259 -0.0954,-0.21208 -0.16898,-0.29869 -0.0779,-0.0823 -0.16903,-0.14718 -0.28163,-0.19482 -0.1126,-0.0476 -0.23795,-0.0739 -0.38086,-0.0739 -0.12992,0 -0.2512,0.0259 -0.3638,0.0692 -0.11259,0.0476 -0.20814,0.12138 -0.29042,0.22531 l -0.009,-0.009 c 0.026,-0.10393 0.0647,-0.21639 0.10801,-0.33331 0.0433,-0.1126 0.0997,-0.22099 0.16898,-0.31626 0.0693,-0.0953 0.15173,-0.17347 0.24701,-0.2341 0.0953,-0.0606 0.20785,-0.0909 0.3421,-0.0909 0.12125,0 0.22062,0.0391 0.2899,0.11266 0.0693,0.0779 0.10853,0.17775 0.10853,0.30334 h 0.49402 c -0.004,-0.13425 -0.0306,-0.25109 -0.0739,-0.35502 -0.0433,-0.10394 -0.10396,-0.19064 -0.18191,-0.25993 -0.0779,-0.0693 -0.17305,-0.12091 -0.27698,-0.15555 -0.10827,-0.0346 -0.2251,-0.0563 -0.35502,-0.0563 z m 6.42338,0 c -0.22519,0 -0.42029,0.0431 -0.57619,0.12971 -0.16024,0.0866 -0.29449,0.19513 -0.39842,0.32505 -0.10827,0.13424 -0.19465,0.27714 -0.25529,0.43304 -0.0606,0.1559 -0.10818,0.30719 -0.13849,0.45011 -0.0346,0.14724 -0.0524,0.27311 -0.061,0.38137 -0.009,0.10827 -0.0129,0.17723 -0.0129,0.21187 0,0.19055 0.0173,0.36416 0.0563,0.51573 0.039,0.15157 0.0999,0.27692 0.18655,0.38086 0.0866,0.10393 0.19441,0.18606 0.32867,0.24236 0.13425,0.0563 0.29883,0.0827 0.48937,0.0827 0.14292,0 0.2773,-0.0264 0.40721,-0.0827 0.12992,-0.0563 0.2427,-0.13398 0.33796,-0.23358 0.0953,-0.0996 0.17315,-0.21643 0.22945,-0.35502 0.0563,-0.13425 0.0868,-0.28179 0.0868,-0.43769 0,-0.13425 -0.0216,-0.2598 -0.0563,-0.37673 -0.039,-0.11259 -0.0954,-0.21208 -0.16899,-0.29869 -0.0779,-0.0823 -0.16904,-0.14718 -0.28163,-0.19482 -0.1126,-0.0476 -0.23795,-0.0739 -0.38086,-0.0739 -0.12992,0 -0.25121,0.0259 -0.3638,0.0692 -0.1126,0.0476 -0.20813,0.12138 -0.29042,0.22531 l -0.009,-0.009 c 0.026,-0.10393 0.0647,-0.21639 0.108,-0.33331 0.0433,-0.1126 0.0997,-0.22099 0.16898,-0.31626 0.0693,-0.0953 0.15174,-0.17347 0.24701,-0.2341 0.0953,-0.0606 0.20785,-0.0909 0.3421,-0.0909 0.12126,0 0.22062,0.0391 0.28991,0.11266 0.0693,0.0779 0.10852,0.17775 0.10852,0.30334 h 0.49402 c -0.004,-0.13425 -0.0306,-0.25109 -0.0739,-0.35502 -0.0433,-0.10394 -0.10394,-0.19064 -0.18191,-0.25993 -0.0779,-0.0693 -0.17304,-0.12091 -0.27698,-0.15555 -0.10826,-0.0346 -0.2251,-0.0563 -0.35502,-0.0563 z m -12.02872,0.06 -1.66708,5.3e-4 -0.49816,1.65416 h 0.4377 c 0.0606,-0.0866 0.13831,-0.15132 0.23358,-0.19896 0.0953,-0.0476 0.20378,-0.0739 0.32504,-0.0739 0.1559,0 0.28144,0.0524 0.37672,0.15193 0.0953,0.0996 0.14728,0.24217 0.14728,0.42839 0,0.0996 -0.0175,0.19503 -0.0522,0.28164 -0.0346,0.0866 -0.0866,0.16448 -0.14728,0.22944 -0.0606,0.065 -0.13405,0.11728 -0.22066,0.15193 -0.0866,0.039 -0.17738,0.0563 -0.27698,0.0563 -0.17324,0 -0.2991,-0.0436 -0.38138,-0.13022 -0.0823,-0.0866 -0.1257,-0.21216 -0.13436,-0.37673 h -0.49351 c -0.009,0.1559 0.0129,0.28996 0.0605,0.40256 0.0476,0.1126 0.11698,0.20782 0.2036,0.28577 0.0866,0.078 0.19035,0.13466 0.31161,0.17364 0.12126,0.039 0.25119,0.0563 0.39842,0.0563 0.17323,0 0.33781,-0.0262 0.48938,-0.0868 0.14724,-0.0563 0.27756,-0.13842 0.39016,-0.24236 0.10827,-0.10393 0.19465,-0.23414 0.25528,-0.38138 0.0606,-0.14724 0.0909,-0.31575 0.0909,-0.49764 0,-0.12559 -0.0215,-0.24261 -0.0605,-0.35088 -0.0433,-0.10826 -0.0995,-0.20349 -0.17312,-0.28577 -0.0736,-0.0779 -0.16479,-0.14325 -0.26872,-0.18656 -0.10394,-0.0433 -0.22097,-0.0692 -0.35088,-0.0692 -0.10394,0 -0.20341,0.0133 -0.29869,0.0393 -0.0953,0.026 -0.18179,0.0732 -0.26407,0.13384 l -0.009,-0.009 0.22531,-0.71469 h 1.26452 z m 9.63507,0 -1.66708,5.3e-4 -0.49816,1.65416 h 0.4377 c 0.0606,-0.0866 0.1383,-0.15132 0.23358,-0.19896 0.0953,-0.0476 0.20379,-0.0739 0.32504,-0.0739 0.15591,0 0.28144,0.0524 0.37672,0.15193 0.0953,0.0996 0.14728,0.24217 0.14728,0.42839 0,0.0996 -0.0175,0.19503 -0.0522,0.28164 -0.0346,0.0866 -0.0866,0.16448 -0.14728,0.22944 -0.0606,0.065 -0.13405,0.11728 -0.22066,0.15193 -0.0866,0.039 -0.17739,0.0563 -0.27699,0.0563 -0.17323,0 -0.29909,-0.0436 -0.38137,-0.13022 -0.0823,-0.0866 -0.1257,-0.21216 -0.13436,-0.37673 h -0.49351 c -0.009,0.1559 0.0129,0.28996 0.0605,0.40256 0.0476,0.1126 0.11699,0.20782 0.20361,0.28577 0.0866,0.078 0.19088,0.13466 0.31213,0.17364 0.12126,0.039 0.25118,0.0563 0.39842,0.0563 0.17323,0 0.33781,-0.0262 0.48938,-0.0868 0.14725,-0.0563 0.27705,-0.13842 0.38964,-0.24236 0.10827,-0.10393 0.19465,-0.23414 0.25528,-0.38138 0.0606,-0.14724 0.0909,-0.31575 0.0909,-0.49764 0,-0.12559 -0.0215,-0.24261 -0.0605,-0.35088 -0.0433,-0.10826 -0.0995,-0.20349 -0.17312,-0.28577 -0.0736,-0.0779 -0.16478,-0.14325 -0.26872,-0.18656 -0.10393,-0.0433 -0.22096,-0.0692 -0.35088,-0.0692 -0.10394,0 -0.20341,0.0133 -0.29869,0.0393 -0.0953,0.026 -0.18177,0.0732 -0.26406,0.13384 l -0.009,-0.009 0.22531,-0.71469 h 1.26452 z m -23.99337,5.3e-4 -0.12557,0.9095 h -0.40669 l -0.0434,0.32453 h 0.40721 l -0.078,0.56327 h -0.41135 l -0.0434,0.32451 h 0.40721 l -0.12557,0.9095 h 0.34623 l 0.13023,-0.9095 h 0.47594 l -0.12557,0.9095 h 0.34674 l 0.12971,-0.9095 h 0.41134 l 0.0434,-0.32453 h -0.41134 l 0.078,-0.56328 h 0.41548 l 0.0434,-0.32452 h -0.41548 l 0.12971,-0.90951 h -0.35089 l -0.12557,0.90951 h -0.48059 l 0.12971,-0.90951 z m 3.93103,0 c -0.052,0.0866 -0.11261,0.16468 -0.1819,0.22531 -0.0693,0.065 -0.15162,0.11688 -0.23823,0.16019 -0.0866,0.0433 -0.18171,0.0736 -0.27698,0.0909 -0.0996,0.0173 -0.19961,0.0258 -0.29921,0.0258 l -0.0822,0.38964 c 0.12992,0 0.25992,-0.004 0.38551,-0.0129 0.12558,-0.009 0.25559,-0.0302 0.38551,-0.0605 l -0.45941,2.21279 h 0.524 l 0.63666,-3.03134 z m 5.35368,0 -0.0951,0.44183 h 1.5415 c -0.36378,0.37244 -0.67976,0.771 -0.94826,1.20406 -0.2685,0.43307 -0.47637,0.89608 -0.61495,1.38545 h 0.54984 c 0.0476,-0.18189 0.10382,-0.35957 0.17311,-0.53279 0.065,-0.17323 0.14315,-0.34631 0.2341,-0.51521 0.11259,-0.20787 0.22943,-0.39832 0.35502,-0.57154 0.12125,-0.17323 0.23828,-0.32484 0.35088,-0.45476 0.10827,-0.12992 0.20349,-0.23378 0.28577,-0.32039 0.0823,-0.0823 0.13866,-0.13867 0.16898,-0.16898 l 0.0951,-0.46767 z m 6.42338,0 -0.0951,0.44183 h 1.5415 c -0.36377,0.37244 -0.67976,0.771 -0.94826,1.20406 -0.2685,0.43307 -0.47637,0.89608 -0.61495,1.38545 h 0.54984 c 0.0476,-0.18189 0.10383,-0.35957 0.17311,-0.53279 0.065,-0.17323 0.14315,-0.34631 0.2341,-0.51521 0.1126,-0.20787 0.22943,-0.39832 0.35501,-0.57154 0.12127,-0.17323 0.23829,-0.32484 0.35089,-0.45476 0.10826,-0.12992 0.20349,-0.23378 0.28577,-0.32039 l 0.16898,-0.16898 0.0951,-0.46767 z m -100.7923,0.12144 -0.138493,0.67127 h -0.389642 l -0.07803,0.36794 h 0.389642 l -0.255799,1.22576 c -0.009,0.0217 -0.01259,0.056 -0.02119,0.10801 -0.009,0.052 -0.0093,0.0998 -0.0093,0.14314 0,0.052 0.0043,0.10358 0.01757,0.15555 0.01299,0.052 0.03455,0.0954 0.06925,0.13436 0.0346,0.039 0.07781,0.0693 0.138494,0.091 0.0563,0.026 0.129717,0.0346 0.220657,0.0346 0.0606,0 0.129987,-0.004 0.203607,-0.0129 0.0693,-0.009 0.138645,-0.0173 0.203605,-0.0346 l 0.08216,-0.3638 c -0.052,0.013 -0.09932,0.0217 -0.142626,0.0217 h -0.121439 c -0.0779,0 -0.125629,-0.0131 -0.147278,-0.0434 -0.02159,-0.0303 -0.02997,-0.0695 -0.02997,-0.12144 0,-0.026 0.0039,-0.0605 0.01291,-0.10387 0.009,-0.0433 0.01699,-0.0865 0.02997,-0.13849 l 0.229444,-1.09554 h 0.446485 l 0.07751,-0.36845 h -0.445969 l 0.138494,-0.67076 z m 44.387988,0 -0.138491,0.67127 H 89.16562 l -0.07752,0.36794 h 0.389639 l -0.255797,1.22574 c -0.009,0.0217 -0.01299,0.056 -0.0217,0.108 -0.009,0.052 -0.0088,0.0998 -0.0088,0.14315 0,0.052 0.0038,0.10357 0.01707,0.15554 0.01299,0.052 0.03454,0.0954 0.06924,0.13436 0.0346,0.039 0.07843,0.0693 0.139009,0.0909 0.0563,0.026 0.12971,0.0346 0.22066,0.0346 0.0606,0 0.129985,-0.004 0.203605,-0.0129 0.0693,-0.009 0.138644,-0.0173 0.203605,-0.0346 l 0.08217,-0.3638 c -0.052,0.013 -0.09932,0.0217 -0.142626,0.0217 h -0.121441 c -0.078,0 -0.125627,-0.0131 -0.147278,-0.0434 -0.0217,-0.0303 -0.03049,-0.0695 -0.03049,-0.12144 0,-0.026 0.0039,-0.0605 0.01291,-0.10387 0.009,-0.0433 0.01749,-0.0865 0.03049,-0.1385 l 0.229444,-1.09554 h 0.445965 l 0.07803,-0.36845 h -0.445969 l 0.138494,-0.67076 z m 24.003192,0 -0.1385,0.67127 h -0.39015 l -0.078,0.36794 h 0.39016 l -0.2558,1.22574 c -0.009,0.0217 -0.0131,0.056 -0.0217,0.108 -0.009,0.052 -0.009,0.0998 -0.009,0.14315 0,0.052 0.004,0.10357 0.0171,0.15554 0.013,0.052 0.0345,0.0954 0.0692,0.13436 0.0346,0.039 0.0783,0.0693 0.139,0.0909 0.0563,0.026 0.12972,0.0346 0.22066,0.0346 0.0606,0 0.12999,-0.004 0.20361,-0.0129 0.0693,-0.009 0.13864,-0.0173 0.2036,-0.0346 l 0.0822,-0.3638 c -0.052,0.013 -0.0993,0.0217 -0.14263,0.0217 h -0.12144 c -0.078,0 -0.12563,-0.0131 -0.14728,-0.0434 -0.0217,-0.0303 -0.0305,-0.0695 -0.0305,-0.12144 0,-0.026 0.004,-0.0605 0.0129,-0.10387 0.009,-0.0433 0.0175,-0.0865 0.0305,-0.1385 l 0.22945,-1.09554 h 0.44597 l 0.078,-0.36845 h -0.44545 l 0.13849,-0.67076 z m -14.837342,0.25993 h 0.757576 c 0.0693,0 0.138967,0.009 0.208256,0.0171 0.065,0.009 0.12528,0.0303 0.17725,0.0563 0.052,0.0303 0.0911,0.0736 0.12144,0.12557 0.0303,0.052 0.0475,0.12133 0.0475,0.20361 0,0.18189 -0.0648,0.32486 -0.186033,0.42013 -0.125589,0.0953 -0.303262,0.14262 -0.532783,0.14262 h -0.792718 z m -64.900434,0.35036 c -0.134249,0 -0.260318,0.0133 -0.377237,0.0393 -0.11693,0.026 -0.220668,0.065 -0.311608,0.12557 -0.0953,0.0606 -0.172947,0.13418 -0.233579,0.22945 -0.065,0.0953 -0.108379,0.20816 -0.134358,0.34674 h 0.467672 c 0.0346,-0.13858 0.09967,-0.22986 0.203605,-0.2775 0.0996,-0.0476 0.216437,-0.0734 0.355018,-0.0734 0.0996,0 0.186113,0.0216 0.264067,0.0563 0.0736,0.0346 0.112654,0.10794 0.112654,0.21187 0,0.0866 -0.0218,0.1563 -0.06511,0.20826 -0.0433,0.052 -0.108198,0.082 -0.19482,0.0863 -0.0823,0.009 -0.164733,0.0131 -0.247013,0.0217 -0.0823,0.009 -0.164216,0.0127 -0.246496,0.017 -0.12559,0.009 -0.242417,0.0303 -0.355018,0.0563 -0.112599,0.0303 -0.212585,0.0737 -0.299207,0.13436 -0.0866,0.0606 -0.155768,0.13882 -0.207737,0.23409 -0.052,0.0953 -0.07803,0.20766 -0.07803,0.34624 0,0.0996 0.01733,0.18631 0.05633,0.25993 0.0346,0.0779 0.08695,0.13839 0.151929,0.18603 0.065,0.052 0.138181,0.0867 0.22479,0.11266 0.0823,0.026 0.168788,0.0393 0.264067,0.0393 0.138581,0 0.27296,-0.0215 0.40721,-0.0692 0.129921,-0.0433 0.24715,-0.11692 0.34675,-0.21653 0.004,0.0866 0.03465,0.15577 0.09095,0.20774 0.052,0.052 0.121129,0.078 0.20774,0.078 0.065,0 0.129858,-0.004 0.194821,-0.0176 0.0606,-0.013 0.125725,-0.0261 0.190685,-0.0434 l 0.07751,-0.35501 c -0.0303,0.004 -0.0603,0.009 -0.0863,0.0176 -0.0303,0.009 -0.06082,0.009 -0.08682,0.009 -0.0433,0 -0.06916,-0.009 -0.08217,-0.0258 -0.0173,-0.0173 -0.0217,-0.0393 -0.0217,-0.0739 0,-0.0303 0.0039,-0.0649 0.01291,-0.10387 0.009,-0.0346 0.02188,-0.0735 0.03049,-0.11679 v -5.3e-4 l 0.164332,-0.7922 c 0.02601,-0.12992 0.04341,-0.2427 0.04341,-0.33797 0,-0.039 -0.0088,-0.0866 -0.01704,-0.14727 -0.01299,-0.0606 -0.04774,-0.11682 -0.09974,-0.17312 -0.052,-0.052 -0.138546,-0.0995 -0.251145,-0.13849 -0.11259,-0.039 -0.272597,-0.061 -0.471807,-0.061 z m 3.228745,0 c -0.199199,0 -0.381018,0.0391 -0.536919,0.11266 -0.155911,0.078 -0.290166,0.17755 -0.398425,0.30747 -0.112599,0.12991 -0.194847,0.27708 -0.251148,0.44597 -0.0606,0.17323 -0.08682,0.3507 -0.08682,0.53692 0,0.14291 0.01717,0.27323 0.06046,0.39016 0.039,0.11693 0.0957,0.21621 0.173633,0.30282 0.078,0.0866 0.173172,0.15152 0.285771,0.19482 0.112591,0.0476 0.24239,0.0698 0.389641,0.0698 0.294479,0 0.537065,-0.0653 0.727604,-0.19947 0.190551,-0.12992 0.329063,-0.34185 0.411345,-0.632 H 37.47006 c -0.0433,0.13858 -0.108326,0.24658 -0.203605,0.32453 -0.0953,0.0779 -0.212428,0.11679 -0.359669,0.11679 -0.0953,0 -0.172948,-0.0126 -0.233577,-0.0429 -0.065,-0.0303 -0.117091,-0.0736 -0.156062,-0.12558 -0.039,-0.052 -0.06487,-0.11261 -0.08217,-0.1819 -0.0173,-0.0693 -0.02635,-0.14747 -0.02635,-0.23409 0,-0.10393 0.0131,-0.2164 0.04341,-0.33332 0.0303,-0.11693 0.07781,-0.22544 0.138493,-0.32504 0.0606,-0.0953 0.134692,-0.1774 0.22996,-0.24236 0.0909,-0.0606 0.198938,-0.0956 0.324528,-0.0956 0.134255,0 0.242766,0.0351 0.325046,0.10439 0.0823,0.0693 0.121118,0.1689 0.116789,0.30748 h 0.493509 c 0,-0.12991 -0.0213,-0.24281 -0.06459,-0.34675 -0.0433,-0.0996 -0.108405,-0.18186 -0.190685,-0.25115 -0.0823,-0.065 -0.177512,-0.11676 -0.285772,-0.15141 -0.112601,-0.0346 -0.229623,-0.0522 -0.350882,-0.0522 z m 12.809554,0 c -0.19921,0 -0.376883,0.0435 -0.532784,0.12144 -0.1559,0.0779 -0.285699,0.18169 -0.389641,0.31161 -0.103928,0.12992 -0.186266,0.27727 -0.238228,0.44184 -0.0563,0.16456 -0.08217,0.33372 -0.08217,0.50694 0,0.1559 0.02138,0.29009 0.07338,0.41135 0.0476,0.12126 0.116993,0.22085 0.203605,0.30747 0.0866,0.0866 0.186213,0.15151 0.307475,0.19482 0.121258,0.0433 0.25138,0.0651 0.39429,0.0651 0.268501,0 0.493842,-0.0565 0.680063,-0.17776 0.18622,-0.12126 0.319958,-0.31204 0.397907,-0.5762 h -5.29e-4 -0.493511 c -0.0346,0.12127 -0.09954,0.21223 -0.194818,0.27286 -0.0953,0.0606 -0.21218,0.091 -0.342099,0.091 -0.190539,0 -0.324921,-0.0473 -0.407209,-0.14263 -0.0866,-0.0953 -0.125574,-0.22082 -0.125574,-0.37672 v -0.0693 c 0,-0.0216 -2.17e-4,-0.0479 0.0088,-0.0739 h 1.667597 c 0.004,-0.0346 0.0088,-0.078 0.01707,-0.12557 0.004,-0.0433 0.0093,-0.0951 0.0093,-0.15142 0,-0.10827 -0.01328,-0.22548 -0.03927,-0.34674 -0.02601,-0.12125 -0.06921,-0.22938 -0.138493,-0.33332 -0.0693,-0.0996 -0.168646,-0.18185 -0.289907,-0.25114 -0.12559,-0.065 -0.28603,-0.0997 -0.48524,-0.0997 z m 3.055109,0 c -0.116919,0 -0.229692,0.0133 -0.337962,0.0393 -0.112591,0.026 -0.207428,0.0695 -0.29404,0.12144 -0.0866,0.0563 -0.160419,0.12526 -0.212389,0.21187 -0.052,0.0866 -0.07803,0.19087 -0.07803,0.31213 0,0.0866 0.01328,0.15589 0.03927,0.21652 0.02601,0.0606 0.06034,0.1169 0.108006,0.1602 0.0433,0.0433 0.09546,0.0824 0.156062,0.11265 0.0606,0.0346 0.121396,0.0605 0.190685,0.0822 0.078,0.0303 0.155948,0.0564 0.238231,0.078 0.0823,0.0217 0.155697,0.0474 0.220657,0.0734 0.065,0.0303 0.116888,0.0651 0.160197,0.0997 0.0433,0.039 0.06511,0.0863 0.06511,0.14262 0,0.065 -0.01725,0.1169 -0.04754,0.1602 -0.0303,0.0433 -0.06935,0.0739 -0.112655,0.0956 -0.0476,0.026 -0.09996,0.043 -0.151929,0.0517 -0.0563,0.009 -0.108235,0.0129 -0.160194,0.0129 -0.0736,0 -0.138324,-0.004 -0.198956,-0.0212 -0.0606,-0.013 -0.116885,-0.0347 -0.160198,-0.0651 -0.0433,-0.0303 -0.07784,-0.0695 -0.103867,-0.12144 -0.02601,-0.052 -0.03479,-0.11261 -0.03049,-0.1819 h -0.467672 c 0,0.1559 0.02614,0.28176 0.07803,0.38137 0.0476,0.0996 0.112334,0.1776 0.198953,0.23823 0.0823,0.0606 0.181954,0.0996 0.294555,0.12557 0.112599,0.026 0.233881,0.0346 0.363802,0.0346 0.121251,0 0.238409,-0.0133 0.359667,-0.0393 0.121261,-0.026 0.225116,-0.0737 0.320395,-0.13436 0.0909,-0.0606 0.164679,-0.13417 0.225308,-0.22944 0.0563,-0.0909 0.0863,-0.20339 0.0863,-0.33331 0,-0.0866 -0.01741,-0.16035 -0.04341,-0.22531 -0.0303,-0.065 -0.06916,-0.12135 -0.116787,-0.16899 -0.0476,-0.0433 -0.103701,-0.0822 -0.164333,-0.11678 -0.065,-0.0303 -0.130376,-0.0603 -0.195337,-0.0863 -0.0779,-0.026 -0.155617,-0.0523 -0.233576,-0.0739 -0.0779,-0.0216 -0.15176,-0.0433 -0.212389,-0.0693 -0.065,-0.026 -0.116568,-0.0522 -0.155546,-0.0868 -0.039,-0.0303 -0.05633,-0.0736 -0.05633,-0.12558 0,-0.052 0.0087,-0.0992 0.02998,-0.13384 0.02159,-0.0346 0.05221,-0.0652 0.08681,-0.0868 0.0346,-0.0216 0.07818,-0.0389 0.121441,-0.0475 0.0433,-0.009 0.09061,-0.0129 0.142626,-0.0129 0.129918,0 0.238101,0.0256 0.320395,0.0775 0.0823,0.052 0.125894,0.13441 0.130222,0.24701 h 0.467673 c 0,-0.13858 -0.0218,-0.25096 -0.06511,-0.34623 -0.0433,-0.0909 -0.108085,-0.16488 -0.186036,-0.22118 -0.0779,-0.052 -0.173562,-0.091 -0.277503,-0.11265 -0.10826,-0.0216 -0.220835,-0.0346 -0.342099,-0.0346 z m 9.808705,0 c -0.134249,0 -0.260318,0.0133 -0.377237,0.0393 -0.11693,0.026 -0.220668,0.065 -0.311608,0.12557 -0.0953,0.0606 -0.172947,0.13418 -0.233579,0.22945 -0.065,0.0953 -0.108368,0.20816 -0.134358,0.34674 h 0.467672 c 0.0346,-0.13858 0.09967,-0.22986 0.203605,-0.2775 0.0996,-0.0476 0.216437,-0.0734 0.355018,-0.0734 0.0996,0 0.186105,0.0216 0.264064,0.0563 0.0736,0.0346 0.112655,0.10794 0.112655,0.21187 0,0.0866 -0.0218,0.1563 -0.06511,0.20826 -0.0433,0.052 -0.108209,0.082 -0.19482,0.0863 -0.0823,0.009 -0.164733,0.0131 -0.247013,0.0217 -0.0823,0.009 -0.164216,0.0127 -0.246496,0.017 -0.12559,0.009 -0.242427,0.0303 -0.355018,0.0563 -0.112599,0.0303 -0.212588,0.0737 -0.299207,0.13436 -0.0866,0.0606 -0.155768,0.13882 -0.207737,0.23409 -0.052,0.0953 -0.07803,0.20766 -0.07803,0.34624 0,0.0996 0.01733,0.18631 0.05633,0.25993 0.0346,0.0779 0.08696,0.13839 0.151929,0.18603 0.065,0.052 0.138174,0.0867 0.224793,0.11266 0.0823,0.026 0.169304,0.0393 0.264583,0.0393 0.138581,0 0.272444,-0.0215 0.406694,-0.0692 0.129921,-0.0433 0.247139,-0.11692 0.34675,-0.21653 0.004,0.0866 0.03465,0.15577 0.09095,0.20774 0.052,0.052 0.121126,0.078 0.20774,0.078 0.065,0 0.129861,-0.004 0.194818,-0.0176 0.0606,-0.013 0.125728,-0.0261 0.190688,-0.0434 l 0.07751,-0.35501 c -0.0303,0.004 -0.0603,0.009 -0.0863,0.0176 -0.0303,0.009 -0.06081,0.009 -0.08682,0.009 -0.0433,0 -0.06916,-0.009 -0.08217,-0.0258 -0.0173,-0.0173 -0.0217,-0.0393 -0.0217,-0.0739 0,-0.0303 0.0039,-0.0649 0.01291,-0.10387 0.009,-0.0346 0.02188,-0.0735 0.03049,-0.11679 v -5.3e-4 l 0.164848,-0.7922 c 0.02601,-0.12992 0.04289,-0.2427 0.04289,-0.33797 0,-0.039 -0.0088,-0.0866 -0.01704,-0.14727 -0.01299,-0.0606 -0.04774,-0.11682 -0.09974,-0.17312 -0.052,-0.052 -0.138547,-0.0995 -0.251148,-0.13849 -0.112599,-0.039 -0.272595,-0.061 -0.471805,-0.061 z m 3.487643,0 c -0.155901,0 -0.302932,0.0351 -0.437182,0.10439 -0.134249,0.0693 -0.246703,0.16865 -0.333314,0.28991 l -0.0093,-0.009 0.06924,-0.32504 -0.461986,5.3e-4 -0.463537,2.23862 h 0.493509 l 0.251664,-1.21233 c 0.0173,-0.0909 0.04713,-0.17746 0.09043,-0.26407 0.0433,-0.0866 0.09126,-0.1559 0.151929,-0.21652 0.0606,-0.0606 0.125656,-0.10862 0.203605,-0.15193 0.0779,-0.0433 0.164468,-0.0651 0.264068,-0.0651 0.0866,0 0.155963,0.0133 0.203604,0.0393 0.0476,0.026 0.08223,0.0604 0.10387,0.0951 0.0173,0.0346 0.02997,0.0738 0.02997,0.10852 0,0.0347 0.0041,0.0606 0.0041,0.078 0,0.0346 -0.0039,0.0651 -0.01291,0.0997 -0.009,0.0346 -0.01299,0.0733 -0.0217,0.10801 l -0.285768,1.38131 h 0.493509 l 0.299206,-1.42885 c 0.009,-0.039 0.01275,-0.0865 0.01704,-0.1385 0,-0.052 0.0041,-0.0952 0.0041,-0.13849 0,-0.18189 -0.05627,-0.32529 -0.160197,-0.43357 -0.103942,-0.10393 -0.268827,-0.16019 -0.494028,-0.16019 z m 3.013252,0 c -0.134249,0 -0.2598,0.0133 -0.376719,0.0393 -0.116935,0.026 -0.22066,0.065 -0.31161,0.12557 -0.0953,0.0606 -0.173464,0.13418 -0.234093,0.22945 -0.065,0.0953 -0.107863,0.20816 -0.133842,0.34674 h 0.467669 c 0.0346,-0.13858 0.09967,-0.22986 0.203605,-0.2775 0.09961,-0.0476 0.216437,-0.0734 0.355018,-0.0734 0.0996,0 0.186116,0.0216 0.264068,0.0563 0.0736,0.0346 0.112654,0.10794 0.112654,0.21187 0,0.0866 -0.02172,0.1563 -0.06511,0.20826 -0.0433,0.052 -0.108212,0.082 -0.194821,0.0863 -0.0823,0.009 -0.164735,0.0131 -0.247015,0.0217 -0.0823,0.009 -0.164206,0.0127 -0.246497,0.017 -0.125589,0.009 -0.242932,0.0303 -0.355533,0.0563 -0.112599,0.0303 -0.21208,0.0737 -0.298689,0.13436 -0.0866,0.0606 -0.155778,0.13882 -0.20774,0.23409 -0.052,0.0953 -0.07803,0.20766 -0.07803,0.34624 0,0.0996 0.01733,0.18631 0.05633,0.25993 0.0346,0.0779 0.08644,0.13839 0.151414,0.18603 0.065,0.052 0.138697,0.0867 0.225308,0.11266 0.0823,0.026 0.168796,0.0393 0.264065,0.0393 0.138583,0 0.272963,-0.0215 0.407212,-0.0692 0.129919,-0.0433 0.246632,-0.11692 0.346231,-0.21653 0.004,0.0866 0.03465,0.15577 0.09095,0.20774 0.052,0.052 0.121647,0.078 0.208256,0.078 0.065,0 0.12986,-0.004 0.194821,-0.0176 0.0606,-0.013 0.125208,-0.0261 0.190169,-0.0434 l 0.07803,-0.35501 c -0.0303,0.004 -0.0603,0.009 -0.0863,0.0176 -0.0303,0.009 -0.06082,0.009 -0.08682,0.009 -0.0433,0 -0.06916,-0.009 -0.08216,-0.0258 -0.0173,-0.0173 -0.0217,-0.0393 -0.0217,-0.0739 0,-0.0303 0.0039,-0.0649 0.01291,-0.10387 0.009,-0.0346 0.02188,-0.0735 0.03049,-0.11679 v -5.3e-4 l 0.16433,-0.7922 c 0.02601,-0.12992 0.04341,-0.2427 0.04341,-0.33797 0,-0.039 -0.0088,-0.0866 -0.01706,-0.14727 -0.01299,-0.0606 -0.04774,-0.11682 -0.09974,-0.17312 -0.052,-0.052 -0.138549,-0.0995 -0.251148,-0.13849 -0.112591,-0.039 -0.273113,-0.061 -0.472323,-0.061 z m 3.142446,0 c -0.19055,0 -0.355251,0.0435 -0.498163,0.12144 -0.147238,0.0823 -0.268531,0.18635 -0.363802,0.31626 -0.0953,0.12992 -0.168688,0.28141 -0.220657,0.44597 -0.052,0.16456 -0.0739,0.3336 -0.0739,0.49816 0,0.28583 0.07371,0.50672 0.225308,0.67128 0.147244,0.16457 0.363951,0.2465 0.645441,0.2465 0.129918,0 0.25088,-0.0257 0.35915,-0.0863 0.103931,-0.0563 0.194903,-0.13855 0.272852,-0.25115 l 0.0093,0.009 -0.04806,0.22066 c -0.02159,0.0953 -0.04325,0.17785 -0.06925,0.2558 -0.02601,0.078 -0.06506,0.14285 -0.112655,0.19482 -0.0476,0.0563 -0.10795,0.0994 -0.177252,0.12971 -0.0736,0.0346 -0.164581,0.0481 -0.272851,0.0481 -0.14291,0 -0.264388,-0.026 -0.359667,-0.078 -0.0953,-0.052 -0.147082,-0.1388 -0.151413,-0.26872 H 71.17603 c 0,0.12992 0.03016,0.24237 0.08217,0.33331 0.052,0.0909 0.12577,0.16488 0.212389,0.22118 0.0866,0.0563 0.190545,0.095 0.307475,0.12092 0.112599,0.026 0.233561,0.0393 0.359151,0.0393 0.17322,0 0.32503,-0.0175 0.45062,-0.0522 0.12559,-0.0346 0.233783,-0.0864 0.320392,-0.16433 0.0866,-0.0736 0.160226,-0.1733 0.216524,-0.29456 0.0563,-0.12126 0.103659,-0.26448 0.142629,-0.4377 l 0.472321,-2.17816 h -0.467672 l -0.06511,0.37207 h -0.0088 c -0.0606,-0.1559 -0.151603,-0.26402 -0.272851,-0.33331 -0.121261,-0.065 -0.2599,-0.0997 -0.42013,-0.0997 z m 3.420462,0 c -0.19921,0 -0.376875,0.0435 -0.532784,0.12144 -0.1559,0.0779 -0.28571,0.18169 -0.389641,0.31161 -0.103939,0.12992 -0.186259,0.27727 -0.238228,0.44184 -0.0563,0.16456 -0.08217,0.33372 -0.08217,0.50694 0,0.1559 0.02148,0.29009 0.07338,0.41135 0.0476,0.12126 0.116996,0.22085 0.203605,0.30747 0.0866,0.0866 0.186213,0.15151 0.307474,0.19482 0.121251,0.0433 0.251371,0.0651 0.39429,0.0651 0.268492,0 0.493327,-0.0565 0.679546,-0.17776 0.186211,-0.12126 0.320476,-0.31204 0.398425,-0.5762 h -5.29e-4 -0.493509 c -0.0346,0.12127 -0.09954,0.21223 -0.19482,0.27286 -0.0953,0.0606 -0.21218,0.091 -0.342099,0.091 -0.19055,0 -0.324929,-0.0473 -0.407209,-0.14263 -0.0866,-0.0953 -0.125574,-0.22082 -0.125574,-0.37672 v -0.0693 c 0,-0.0216 -2.17e-4,-0.0479 0.0088,-0.0739 h 1.667597 c 0.004,-0.0346 0.0088,-0.078 0.01707,-0.12557 0.004,-0.0433 0.0093,-0.0951 0.0093,-0.15142 0,-0.10827 -0.01328,-0.22548 -0.03927,-0.34674 -0.02601,-0.12125 -0.06921,-0.22938 -0.138493,-0.33332 -0.0693,-0.0996 -0.169162,-0.18185 -0.290423,-0.25114 -0.125579,-0.065 -0.285514,-0.0997 -0.484725,-0.0997 z m 3.540353,0 c -0.155901,0 -0.303128,0.0345 -0.433049,0.10387 -0.129919,0.0693 -0.24289,0.16471 -0.33383,0.28164 l -0.0088,-0.009 0.06511,-0.31626 -0.467672,5.3e-4 -0.463537,2.23862 h 0.494027 l 0.2682,-1.2945 c 0.0173,-0.0866 0.05655,-0.16906 0.108522,-0.24701 0.052,-0.078 0.09944,-0.13871 0.15141,-0.19068 0.0476,-0.0476 0.103828,-0.0909 0.173117,-0.12558 0.0693,-0.0346 0.151744,-0.0522 0.247012,-0.0522 0.103942,0 0.173422,0.0307 0.212392,0.0827 0.039,0.0563 0.06046,0.1212 0.06046,0.19482 0,0.0693 -0.0088,0.13845 -0.02582,0.20774 -0.0173,0.0736 -0.03058,0.13852 -0.03928,0.19482 l -0.255281,1.2299 h 0.493509 l 0.272852,-1.30793 c 0.009,-0.0606 0.03041,-0.12967 0.06511,-0.19896 0.0346,-0.0693 0.07779,-0.13419 0.129709,-0.19482 0.052,-0.0606 0.117065,-0.1083 0.190686,-0.14727 0.0736,-0.039 0.160012,-0.0605 0.255283,-0.0605 0.0606,0 0.112752,0.0127 0.156062,0.03 0.039,0.0173 0.0696,0.0436 0.0956,0.0739 0.02169,0.0303 0.03419,0.0646 0.04289,0.0992 0.009,0.039 0.01344,0.0783 0.01344,0.11731 -0.004,0.0563 -0.01299,0.10791 -0.0217,0.15554 -0.009,0.0476 -0.01741,0.0826 -0.0217,0.10853 l -0.277503,1.32498 H 81.1072 l 0.2858,-1.42867 c 0.009,-0.039 0.01299,-0.0865 0.0217,-0.1385 0.009,-0.052 0.01291,-0.0957 0.01291,-0.13901 0,-0.18189 -0.05216,-0.32477 -0.156062,-0.43305 -0.103942,-0.10393 -0.264062,-0.16019 -0.480592,-0.16019 -0.155908,0 -0.29455,0.039 -0.420129,0.11265 -0.12559,0.078 -0.237837,0.17317 -0.337447,0.28577 -0.0173,-0.0693 -0.0393,-0.13406 -0.0739,-0.18603 -0.0346,-0.052 -0.0777,-0.0911 -0.129707,-0.12144 -0.052,-0.0303 -0.108352,-0.0519 -0.168981,-0.0692 -0.0606,-0.013 -0.125532,-0.0217 -0.194821,-0.0217 z m 4.325318,0 c -0.19921,0 -0.376875,0.0435 -0.532786,0.12144 -0.155898,0.0779 -0.28571,0.18169 -0.389639,0.31161 -0.103941,0.12992 -0.186259,0.27727 -0.238228,0.44184 -0.0563,0.16456 -0.08268,0.33372 -0.08268,0.50694 0,0.1559 0.02199,0.29009 0.07389,0.41135 0.0476,0.12126 0.116996,0.22085 0.203608,0.30747 0.0866,0.0866 0.186213,0.15151 0.307472,0.19482 0.121253,0.0433 0.250865,0.0651 0.393777,0.0651 0.268499,0 0.49385,-0.0565 0.680061,-0.17776 0.186219,-0.12126 0.320474,-0.31204 0.398425,-0.5762 h -5.29e-4 -0.493509 c -0.0346,0.12127 -0.100057,0.21223 -0.195336,0.27286 -0.0953,0.0606 -0.212178,0.091 -0.342099,0.091 -0.19055,0 -0.324413,-0.0473 -0.406693,-0.14263 -0.0866,-0.0953 -0.125574,-0.22082 -0.125574,-0.37672 v -0.0693 c 0,-0.0216 -2.14e-4,-0.0479 0.0088,-0.0739 h 1.667084 c 0.004,-0.0346 0.0093,-0.078 0.01757,-0.12557 0.004,-0.0433 0.0088,-0.0951 0.0088,-0.15142 0,-0.10827 -0.01275,-0.22548 -0.03876,-0.34674 -0.02601,-0.12125 -0.06921,-0.22938 -0.138494,-0.33332 -0.0693,-0.0996 -0.169161,-0.18185 -0.29042,-0.25114 -0.125589,-0.065 -0.285514,-0.0997 -0.484724,-0.0997 z m 3.508828,0 c -0.155898,0 -0.302933,0.0351 -0.437182,0.10439 -0.13425,0.0693 -0.246703,0.16865 -0.333312,0.28991 l -0.0093,-0.009 0.06925,-0.32504 -0.461989,5.3e-4 -0.463537,2.23862 h 0.493511 l 0.251146,-1.21233 c 0.0173,-0.0909 0.04765,-0.17746 0.09095,-0.26407 0.0433,-0.0866 0.09135,-0.1559 0.151929,-0.21652 0.0606,-0.0606 0.12513,-0.10862 0.203089,-0.15193 0.078,-0.0433 0.164973,-0.0651 0.264583,-0.0651 0.0866,0 0.155967,0.0133 0.203605,0.0393 0.0476,0.026 0.08224,0.0604 0.10387,0.0951 0.0173,0.0346 0.02997,0.0738 0.02997,0.10852 0,0.0347 0.0041,0.0606 0.0041,0.078 0,0.0346 -0.0039,0.0651 -0.01291,0.0997 -0.009,0.0346 -0.0131,0.0733 -0.0217,0.10801 l -0.285771,1.38131 h 0.493509 l 0.299207,-1.42885 c 0.009,-0.039 0.01275,-0.0865 0.01707,-0.1385 0,-0.052 0.0041,-0.0952 0.0041,-0.13849 0,-0.18189 -0.05627,-0.32529 -0.160197,-0.43357 -0.103939,-0.10393 -0.268825,-0.16019 -0.494028,-0.16019 z m 15.594911,0 c -0.19921,0 -0.37687,0.0435 -0.53278,0.12144 -0.1559,0.0779 -0.28571,0.18169 -0.38964,0.31161 -0.10394,0.12992 -0.18626,0.27727 -0.23823,0.44184 -0.0563,0.16456 -0.0822,0.33372 -0.0822,0.50694 0,0.1559 0.022,0.29009 0.0739,0.41135 0.0476,0.12126 0.11648,0.22085 0.20309,0.30747 0.0866,0.0866 0.18622,0.15151 0.30748,0.19482 0.12125,0.0433 0.25138,0.0651 0.39429,0.0651 0.2685,0 0.49385,-0.0565 0.68006,-0.17776 0.18622,-0.12126 0.32047,-0.31204 0.39843,-0.5762 h -5.3e-4 -0.49403 c -0.0346,0.12127 -0.0995,0.21223 -0.19482,0.27286 -0.0953,0.0606 -0.21218,0.091 -0.3421,0.091 -0.19055,0 -0.32493,-0.0473 -0.40721,-0.14263 -0.0866,-0.0953 -0.12557,-0.22082 -0.12557,-0.37672 v -0.0693 c 0,-0.0216 2.6e-4,-0.0479 0.009,-0.0739 h 1.66708 c 0.004,-0.0346 0.009,-0.078 0.0176,-0.12557 0.004,-0.0433 0.009,-0.0951 0.009,-0.15142 0,-0.10827 -0.0128,-0.22548 -0.0388,-0.34674 -0.026,-0.12125 -0.0697,-0.22938 -0.13901,-0.33332 -0.0693,-0.0996 -0.16864,-0.18185 -0.2899,-0.25114 -0.12558,-0.065 -0.28604,-0.0997 -0.48525,-0.0997 z m 3.16312,0 c -0.19054,0 -0.35525,0.0435 -0.49816,0.12144 -0.14724,0.0823 -0.26854,0.18635 -0.3638,0.31626 -0.0953,0.12992 -0.16869,0.28141 -0.22066,0.44597 -0.052,0.16456 -0.0734,0.3336 -0.0734,0.49816 0,0.28583 0.0732,0.50672 0.22479,0.67128 0.14724,0.16457 0.36395,0.2465 0.64544,0.2465 0.12992,0 0.2514,-0.0257 0.35967,-0.0863 0.10394,-0.0563 0.1949,-0.13855 0.27285,-0.25115 l 0.009,0.009 -0.0475,0.22066 c -0.0217,0.0953 -0.0433,0.17785 -0.0692,0.2558 -0.026,0.078 -0.065,0.14285 -0.11265,0.19482 -0.0476,0.0563 -0.10848,0.0994 -0.17777,0.12971 -0.0736,0.0346 -0.16459,0.0481 -0.27285,0.0481 -0.14292,0 -0.26387,-0.026 -0.35915,-0.078 -0.0953,-0.052 -0.14708,-0.1388 -0.15141,-0.26872 h -0.49403 c 0,0.12992 0.0302,0.24237 0.0822,0.33331 0.052,0.0909 0.12578,0.16488 0.21239,0.22118 0.0866,0.0563 0.19054,0.095 0.30747,0.12092 0.11259,0.026 0.23408,0.0393 0.35967,0.0393 0.17322,0 0.32451,-0.0175 0.4501,-0.0522 0.12558,-0.0346 0.23378,-0.0864 0.3204,-0.16433 0.0866,-0.0736 0.16023,-0.1733 0.21652,-0.29456 0.0563,-0.12126 0.10416,-0.26448 0.14314,-0.4377 l 0.47181,-2.17816 h -0.46767 l -0.0651,0.37207 h -0.009 c -0.0606,-0.1559 -0.1516,-0.26402 -0.27285,-0.33331 -0.12126,-0.065 -0.25989,-0.0997 -0.42013,-0.0997 z m 5.11183,0 c -0.11693,0 -0.2297,0.0133 -0.33796,0.0393 -0.1126,0.026 -0.20795,0.0695 -0.29456,0.12144 -0.0866,0.0563 -0.1599,0.12526 -0.21187,0.21187 -0.052,0.0866 -0.078,0.19087 -0.078,0.31213 0,0.0866 0.0127,0.15589 0.0387,0.21652 0.026,0.0606 0.0609,0.1169 0.10852,0.1602 0.0433,0.0433 0.0949,0.0824 0.15555,0.11265 0.0606,0.0346 0.1214,0.0605 0.19069,0.0822 0.078,0.0303 0.15593,0.0564 0.23823,0.078 0.0823,0.0217 0.15569,0.0474 0.22065,0.0734 0.065,0.0303 0.1169,0.0651 0.1602,0.0997 0.0433,0.039 0.0651,0.0863 0.0651,0.14262 0,0.065 -0.0173,0.1169 -0.0475,0.1602 -0.0303,0.0433 -0.0694,0.0739 -0.11265,0.0956 -0.0476,0.026 -0.0995,0.043 -0.15142,0.0517 -0.0563,0.009 -0.10822,0.0129 -0.16019,0.0129 -0.0736,0 -0.13884,-0.004 -0.19947,-0.0212 -0.0606,-0.013 -0.11689,-0.0347 -0.1602,-0.0651 -0.0433,-0.0303 -0.0779,-0.0695 -0.10387,-0.12144 -0.026,-0.052 -0.0348,-0.11261 -0.0305,-0.1819 h -0.46767 c 0,0.1559 0.026,0.28176 0.078,0.38137 0.0476,0.0996 0.11286,0.1776 0.19947,0.23823 0.0823,0.0606 0.18196,0.0996 0.29456,0.12557 0.11259,0.026 0.23388,0.0346 0.3638,0.0346 0.12126,0 0.23789,-0.0133 0.35915,-0.0393 0.12126,-0.026 0.22512,-0.0737 0.3204,-0.13436 0.0909,-0.0606 0.16467,-0.13417 0.2253,-0.22944 0.0563,-0.0909 0.0868,-0.20339 0.0868,-0.33331 0,-0.0866 -0.0174,-0.16035 -0.0434,-0.22531 -0.0303,-0.065 -0.0692,-0.12135 -0.11679,-0.16899 -0.0476,-0.0433 -0.10422,-0.0822 -0.16484,-0.11678 -0.065,-0.0303 -0.12986,-0.0603 -0.19483,-0.0863 -0.078,-0.026 -0.15613,-0.0523 -0.23409,-0.0739 -0.078,-0.0216 -0.15124,-0.0433 -0.21187,-0.0693 -0.065,-0.026 -0.11709,-0.0522 -0.15607,-0.0868 -0.039,-0.0303 -0.0563,-0.0736 -0.0563,-0.12558 0,-0.052 0.009,-0.0992 0.0305,-0.13384 0.0216,-0.0346 0.0517,-0.0652 0.0863,-0.0868 0.0346,-0.0216 0.0782,-0.0389 0.12145,-0.0475 0.0433,-0.009 0.0911,-0.0129 0.14314,-0.0129 0.12992,0 0.2381,0.0256 0.32039,0.0775 0.0823,0.052 0.12538,0.13441 0.12971,0.24701 h 0.46767 c 0,-0.13858 -0.0218,-0.25096 -0.0651,-0.34623 -0.0433,-0.0909 -0.10808,-0.16488 -0.18603,-0.22118 -0.078,-0.052 -0.17306,-0.091 -0.27699,-0.11265 -0.10827,-0.0216 -0.22085,-0.0346 -0.3421,-0.0346 z m 5.37177,0 c -0.19921,0 -0.37688,0.0435 -0.53279,0.12144 -0.1559,0.0779 -0.28571,0.18169 -0.38964,0.31161 -0.10394,0.12992 -0.18626,0.27727 -0.23823,0.44184 -0.0563,0.16456 -0.0827,0.33372 -0.0827,0.50694 0,0.1559 0.0219,0.29009 0.0739,0.41135 0.0476,0.12126 0.11699,0.22085 0.20361,0.30747 0.0866,0.0866 0.18621,0.15151 0.30747,0.19482 0.12125,0.0433 0.25086,0.0651 0.39377,0.0651 0.2685,0 0.49385,-0.0565 0.68007,-0.17776 0.18621,-0.12126 0.32047,-0.31204 0.39842,-0.5762 h -5.3e-4 -0.49351 c -0.0346,0.12127 -0.10006,0.21223 -0.19534,0.27286 -0.0953,0.0606 -0.21217,0.091 -0.34209,0.091 -0.19055,0 -0.32442,-0.0473 -0.4067,-0.14263 -0.0866,-0.0953 -0.12557,-0.22082 -0.12557,-0.37672 v -0.0693 c 0,-0.0216 -2.2e-4,-0.0479 0.009,-0.0739 h 1.66708 c 0.004,-0.0346 0.009,-0.078 0.0176,-0.12557 0.004,-0.0433 0.009,-0.0951 0.009,-0.15142 0,-0.10827 -0.0128,-0.22548 -0.0388,-0.34674 -0.026,-0.12125 -0.0692,-0.22938 -0.1385,-0.33332 -0.0693,-0.0996 -0.16916,-0.18185 -0.29042,-0.25114 -0.12558,-0.065 -0.28551,-0.0997 -0.48472,-0.0997 z m 3.42149,0 c -0.0726,0.002 -0.14123,0.0191 -0.20619,0.0476 -0.0736,0.0303 -0.14297,0.0692 -0.2036,0.11679 -0.0606,0.0476 -0.1167,0.0996 -0.16433,0.16019 -0.052,0.0606 -0.0914,0.12127 -0.12609,0.1819 l -0.009,-0.009 0.0909,-0.4377 -0.46715,0.001 -0.46354,2.23863 h 0.49351 l 0.20826,-0.99168 c 0.0216,-0.1126 0.0518,-0.21645 0.0951,-0.32039 0.039,-0.0996 0.0911,-0.19077 0.15606,-0.26872 0.065,-0.0779 0.14295,-0.1386 0.23823,-0.1819 0.0953,-0.0433 0.20339,-0.0692 0.33332,-0.0692 0.026,0 0.056,0.004 0.0863,0.004 0.026,0.004 0.0565,0.009 0.0868,0.0129 l 0.10387,-0.47181 c -0.0433,-0.004 -0.0825,-0.009 -0.12144,-0.009 -0.039,0 -0.0779,-0.004 -0.11679,-0.004 -0.005,0 -0.01,-1.4e-4 -0.0145,0 z m 2.19625,0 c -0.19921,0 -0.37687,0.0435 -0.53278,0.12144 -0.1559,0.0779 -0.28571,0.18169 -0.38964,0.31161 -0.10394,0.12992 -0.18626,0.27727 -0.23823,0.44184 -0.0563,0.16456 -0.0822,0.33372 -0.0822,0.50694 0,0.1559 0.0214,0.29009 0.0734,0.41135 0.0476,0.12126 0.117,0.22085 0.20361,0.30747 0.0866,0.0866 0.18621,0.15151 0.30747,0.19482 0.12125,0.0433 0.25139,0.0651 0.39429,0.0651 0.2685,0 0.49334,-0.0565 0.67955,-0.17776 0.18622,-0.12126 0.32048,-0.31204 0.39843,-0.5762 h -5.3e-4 -0.49352 c -0.0346,0.12127 -0.0995,0.21223 -0.19482,0.27286 -0.0953,0.0606 -0.21217,0.091 -0.34209,0.091 -0.19055,0 -0.32493,-0.0473 -0.40721,-0.14263 -0.0866,-0.0953 -0.12558,-0.22082 -0.12558,-0.37672 v -0.0693 c 0,-0.0216 -2.1e-4,-0.0479 0.009,-0.0739 h 1.66759 c 0.004,-0.0346 0.009,-0.078 0.0171,-0.12557 0.004,-0.0433 0.009,-0.0951 0.009,-0.15142 0,-0.10827 -0.0133,-0.22548 -0.0393,-0.34674 -0.026,-0.12125 -0.0692,-0.22938 -0.13849,-0.33332 -0.0693,-0.0996 -0.16865,-0.18185 -0.28991,-0.25114 -0.12558,-0.065 -0.28603,-0.0997 -0.48524,-0.0997 z m -82.672991,0.061 -0.463537,2.23863 h 0.493511 l 0.463537,-2.23863 z m 3.694866,0 -0.463021,2.23863 h 0.493509 l 0.46354,-2.23863 z m 4.093806,0 -0.463537,2.23863 h 0.493511 l 0.463537,-2.23863 z m 61.328039,0 -0.46302,2.23863 h 0.49351 l 0.46354,-2.23863 z m 16.80208,0.32866 c 0.0866,0 0.16035,0.0174 0.22531,0.0434 0.0606,0.0303 0.11244,0.0697 0.15141,0.11731 0.039,0.0476 0.0695,0.1035 0.0868,0.16846 0.0173,0.0693 0.03,0.13897 0.03,0.20826 0,0.1126 -0.0173,0.23376 -0.0475,0.35502 -0.0346,0.12125 -0.0823,0.23402 -0.14728,0.33796 -0.065,0.10393 -0.14295,0.18619 -0.23823,0.25115 -0.0953,0.0693 -0.20773,0.0992 -0.33331,0.0992 -0.17323,0 -0.2989,-0.0432 -0.38551,-0.1385 -0.0866,-0.0909 -0.12557,-0.22074 -0.12557,-0.38964 0,-0.12125 0.0131,-0.24699 0.0434,-0.37258 0.0303,-0.12559 0.0776,-0.23817 0.14262,-0.3421 0.0606,-0.0996 0.14328,-0.18173 0.24288,-0.24236 0.0953,-0.0606 0.21644,-0.0956 0.35502,-0.0956 z m -75.420723,5.3e-4 c 0.147249,0 0.259612,0.0431 0.346232,0.12971 0.0823,0.0866 0.125574,0.19461 0.125574,0.32453 v 0.0698 c 0,0.0216 -0.0041,0.0433 -0.0041,0.0693 H 49.30452 c 0.0476,-0.17322 0.125626,-0.31218 0.238228,-0.42478 0.108259,-0.1126 0.255622,-0.16847 0.441833,-0.16847 z m 22.550044,0 c 0.0075,-2.6e-4 0.01516,0 0.02273,0 0.16456,0 0.285978,0.0473 0.372586,0.14263 0.0823,0.0953 0.125574,0.22527 0.125574,0.38551 0,0.11259 -0.01741,0.2293 -0.04341,0.34623 -0.02601,0.12125 -0.0696,0.22512 -0.130226,0.32039 -0.0606,0.0953 -0.138295,0.17347 -0.233576,0.2341 -0.0953,0.0606 -0.208045,0.091 -0.337963,0.091 -0.0866,0 -0.155895,-0.0131 -0.216525,-0.0434 -0.0606,-0.026 -0.107976,-0.0649 -0.142626,-0.11679 -0.039,-0.052 -0.06538,-0.10848 -0.08268,-0.17777 -0.0173,-0.0693 -0.02585,-0.13857 -0.02585,-0.21652 0,-0.0996 0.0131,-0.20779 0.04341,-0.32039 0.02601,-0.1126 0.06909,-0.22098 0.12971,-0.31626 0.0606,-0.0953 0.134368,-0.17295 0.225308,-0.23358 0.08119,-0.0568 0.181393,-0.091 0.293521,-0.0951 z m 3.377573,0 c 0.147241,0 0.259623,0.0431 0.346231,0.12971 0.0823,0.0866 0.125574,0.19461 0.125574,0.32453 v 0.0698 c 0,0.0216 -0.0041,0.0433 -0.0041,0.0693 h -1.147734 c 0.0476,-0.17322 0.125627,-0.31218 0.238229,-0.42478 0.108259,-0.1126 0.255614,-0.16847 0.441833,-0.16847 z m 7.865153,0 c 0.147241,0 0.260138,0.0431 0.34675,0.12971 0.0823,0.0866 0.125573,0.19461 0.125573,0.32453 v 0.0698 c 0,0.0216 -0.0041,0.0433 -0.0041,0.0693 h -5.29e-4 -1.147218 c 0.0476,-0.17322 0.125122,-0.31218 0.237713,-0.42478 0.10827,-0.1126 0.255614,-0.16847 0.441833,-0.16847 z m 19.104263,0 c 0.14724,0 0.25962,0.0431 0.34623,0.12971 0.0823,0.0866 0.12557,0.19461 0.12557,0.32453 v 0.0698 c 0,0.0216 -0.004,0.0433 -0.004,0.0693 h -5.3e-4 -1.14773 c 0.0476,-0.17322 0.12562,-0.31218 0.23822,-0.42478 0.10826,-0.1126 0.25562,-0.16847 0.44184,-0.16847 z m 3.20652,0 c 0.007,-2.6e-4 0.0146,0 0.0222,0 0.16456,0 0.28596,0.0473 0.37258,0.14263 0.0823,0.0953 0.12558,0.22527 0.12558,0.38551 0,0.11259 -0.0174,0.2293 -0.0434,0.34623 -0.026,0.12125 -0.0691,0.22512 -0.12971,0.32039 -0.0606,0.0953 -0.13881,0.17347 -0.2341,0.2341 -0.0953,0.0606 -0.20752,0.091 -0.33744,0.091 -0.0866,0 -0.1559,-0.0131 -0.21653,-0.0434 -0.0606,-0.026 -0.10849,-0.0649 -0.14314,-0.11679 -0.039,-0.052 -0.0649,-0.10848 -0.0822,-0.17777 -0.0173,-0.0693 -0.0258,-0.13857 -0.0258,-0.21652 0,-0.0996 0.0131,-0.20779 0.0434,-0.32039 0.026,-0.1126 0.0691,-0.22098 0.1297,-0.31626 0.0606,-0.0953 0.13438,-0.17295 0.22532,-0.23358 0.0812,-0.0568 0.18139,-0.091 0.29352,-0.0951 z m 10.43967,0 c 0.14724,0 0.26014,0.0431 0.34675,0.12971 0.0823,0.0866 0.12558,0.19461 0.12558,0.32453 v 0.0698 c 0,0.0216 -0.004,0.0433 -0.004,0.0693 h -5.3e-4 -1.14722 c 0.0476,-0.17322 0.12512,-0.31218 0.23772,-0.42478 0.10825,-0.1126 0.25561,-0.16847 0.44183,-0.16847 z m 5.61827,0 c 0.14723,0 0.25962,0.0431 0.34623,0.12971 0.0823,0.0866 0.12557,0.19461 0.12557,0.32453 v 0.0698 c 0,0.0216 -0.004,0.0433 -0.004,0.0693 h -1.14773 c 0.0476,-0.17322 0.12562,-0.31218 0.23823,-0.42478 0.10826,-0.1126 0.25561,-0.16847 0.44183,-0.16847 z m 8.42222,0.11214 h 0.48059 l -0.078,0.56328 h -0.48059 z m 19.46083,0.19534 c 0.16456,0 0.29475,0.0518 0.38137,0.15141 0.0866,0.10393 0.12971,0.22929 0.12971,0.38086 0,0.0866 -0.0127,0.17332 -0.0388,0.25993 -0.026,0.0866 -0.0654,0.1648 -0.1173,0.23409 -0.052,0.0693 -0.11687,0.12102 -0.19482,0.16433 -0.0779,0.0433 -0.16446,0.0605 -0.26407,0.0605 -0.0866,0 -0.16035,-0.0126 -0.22531,-0.0429 -0.065,-0.0303 -0.1169,-0.0695 -0.1602,-0.12144 -0.0433,-0.052 -0.0781,-0.10847 -0.0997,-0.17776 -0.026,-0.0693 -0.0341,-0.14271 -0.0341,-0.22066 0,-0.0953 0.0128,-0.18179 0.0388,-0.26407 0.026,-0.0823 0.0695,-0.15622 0.12144,-0.22117 0.052,-0.0606 0.11687,-0.11263 0.19482,-0.14728 0.078,-0.0346 0.16426,-0.0558 0.2682,-0.0558 z m 6.42338,0 c 0.16457,0 0.29476,0.0518 0.38137,0.15141 0.0866,0.10393 0.12971,0.22929 0.12971,0.38086 0,0.0866 -0.0128,0.17332 -0.0388,0.25993 -0.026,0.0866 -0.0649,0.1648 -0.11679,0.23409 -0.052,0.0693 -0.11738,0.12102 -0.19533,0.16433 -0.078,0.0433 -0.16447,0.0605 -0.26407,0.0605 -0.0866,0 -0.16035,-0.0126 -0.22531,-0.0429 -0.065,-0.0303 -0.11689,-0.0695 -0.1602,-0.12144 -0.0433,-0.052 -0.0775,-0.10847 -0.0992,-0.17776 -0.026,-0.0693 -0.0346,-0.14271 -0.0346,-0.22066 0,-0.0953 0.0128,-0.18179 0.0388,-0.26407 0.026,-0.0823 0.0695,-0.15622 0.12144,-0.22117 0.052,-0.0606 0.11687,-0.11263 0.19482,-0.14728 0.078,-0.0346 0.16427,-0.0558 0.2682,-0.0558 z m -63.011143,0.19017 -0.09095,0.46767 h 1.281576 l 0.09095,-0.46767 z m -59.24393,0.3033 0.0093,0.009 c -0.0173,0.10826 -0.0436,0.20756 -0.0739,0.30283 -0.0303,0.0953 -0.07359,0.17307 -0.125574,0.24236 -0.052,0.0693 -0.120809,0.12588 -0.203089,0.16485 -0.0823,0.0433 -0.182081,0.0605 -0.303339,0.0605 -0.0476,0 -0.09521,-0.004 -0.138494,-0.0129 -0.0476,-0.009 -0.09088,-0.0259 -0.125574,-0.0475 -0.039,-0.0217 -0.0696,-0.0522 -0.0956,-0.0868 -0.02601,-0.0346 -0.03462,-0.0822 -0.03462,-0.13849 v -5.3e-4 c 0,-0.0909 0.02588,-0.1599 0.08217,-0.21187 0.0563,-0.052 0.125656,-0.0867 0.203605,-0.11266 0.078,-0.026 0.164338,-0.0389 0.255283,-0.0475 0.0909,-0.004 0.173072,-0.009 0.242361,-0.0176 0.052,-0.004 0.108363,-0.0127 0.168982,-0.03 0.0563,-0.013 0.103854,-0.0393 0.138493,-0.0739 z m 28.902113,0 0.0093,0.009 c -0.0173,0.10826 -0.0436,0.20756 -0.0739,0.30283 -0.0303,0.0953 -0.07358,0.17307 -0.125574,0.24236 -0.052,0.0693 -0.120798,0.12588 -0.203089,0.16485 -0.0823,0.0433 -0.182081,0.0605 -0.303339,0.0605 -0.0476,0 -0.09521,-0.004 -0.138494,-0.0129 -0.0476,-0.009 -0.09088,-0.0259 -0.125574,-0.0475 -0.039,-0.0217 -0.0696,-0.0522 -0.0956,-0.0868 -0.02601,-0.0346 -0.03462,-0.0822 -0.03462,-0.13849 v -5.3e-4 c 0,-0.0909 0.02588,-0.1599 0.08217,-0.21187 0.0563,-0.052 0.125655,-0.0867 0.203604,-0.11266 0.078,-0.026 0.164341,-0.0389 0.255281,-0.0475 0.0909,-0.004 0.173074,-0.009 0.242364,-0.0176 0.052,-0.004 0.108352,-0.0127 0.168981,-0.03 0.0563,-0.013 0.103854,-0.0393 0.138494,-0.0739 z m 6.50141,0 0.0093,0.009 c -0.0173,0.10826 -0.0436,0.20756 -0.0739,0.30283 -0.0303,0.0953 -0.07359,0.17307 -0.125574,0.24236 -0.052,0.0693 -0.120806,0.12588 -0.203087,0.16485 -0.0823,0.0433 -0.182081,0.0605 -0.303342,0.0605 -0.0476,0 -0.09521,-0.004 -0.138493,-0.0129 -0.0476,-0.009 -0.09088,-0.0259 -0.125574,-0.0475 -0.039,-0.0217 -0.0696,-0.0522 -0.0956,-0.0868 -0.02601,-0.0346 -0.03462,-0.0822 -0.03462,-0.13849 v -5.3e-4 c 0,-0.0909 0.02588,-0.1599 0.08216,-0.21187 0.0563,-0.052 0.125645,-0.0867 0.203605,-0.11266 0.0779,-0.026 0.164343,-0.0389 0.255283,-0.0475 0.0909,-0.004 0.173072,-0.009 0.242361,-0.0176 0.052,-0.004 0.108363,-0.0127 0.168984,-0.03 0.0563,-0.013 0.103841,-0.0393 0.138491,-0.0739 z" />
  </g>
</svg>
