<?xml version="1.0" encoding="UTF-8" standalone="no"?>
<!-- Created with Inkscape (http://www.inkscape.org/) -->

<svg
   width="595.90002"
   height="97.515999"
   viewBox="0 0 157.66521 25.80111"
   version="1.1"
   id="svg8"
   inkscape:version="1.1 (c68e22c387, 2021-05-23)"
   sodipodi:docname="brand.svg"
   xmlns:inkscape="http://www.inkscape.org/namespaces/inkscape"
   xmlns:sodipodi="http://sodipodi.sourceforge.net/DTD/sodipodi-0.dtd"
   xmlns:xlink="http://www.w3.org/1999/xlink"
   xmlns="http://www.w3.org/2000/svg"
   xmlns:svg="http://www.w3.org/2000/svg"
   xmlns:rdf="http://www.w3.org/1999/02/22-rdf-syntax-ns#"
   xmlns:cc="http://creativecommons.org/ns#"
   xmlns:dc="http://purl.org/dc/elements/1.1/">
  <defs
     id="defs2">
    <linearGradient
       inkscape:collect="always"
       id="linearGradient1061">
      <stop
         style="stop-color:#383838;stop-opacity:1"
         offset="0"
         id="stop1057" />
      <stop
         id="stop1065"
         offset="0.12679945"
         style="stop-color:#5c5c5c;stop-opacity:1" />
      <stop
         style="stop-color:#626262;stop-opacity:1"
         offset="0.24210788"
         id="stop1067" />
      <stop
         id="stop1069"
         offset="0.40060747"
         style="stop-color:#6e6e6e;stop-opacity:1" />
      <stop
         style="stop-color:#4a4a4a;stop-opacity:1"
         offset="0.53414333"
         id="stop1071" />
      <stop
         id="stop1073"
         offset="0.64984804"
         style="stop-color:#484848;stop-opacity:1" />
      <stop
         style="stop-color:#444444;stop-opacity:1"
         offset="0.77030772"
         id="stop1075" />
      <stop
         style="stop-color:#383838;stop-opacity:1"
         offset="1"
         id="stop1059" />
    </linearGradient>
    <linearGradient
       id="linearGradient943"
       inkscape:collect="always">
      <stop
         id="stop933"
         offset="0"
         style="stop-color:#ffffff;stop-opacity:0" />
      <stop
         style="stop-color:#ffffff;stop-opacity:0.27322406"
         offset="0.27646455"
         id="stop935" />
      <stop
         id="stop937"
         offset="0.50381261"
         style="stop-color:#ffffff;stop-opacity:0.37704918" />
      <stop
         style="stop-color:#ffffff;stop-opacity:0.77049178"
         offset="0.74453408"
         id="stop939" />
      <stop
         id="stop941"
         offset="1"
         style="stop-color:#f8f8f8;stop-opacity:0" />
    </linearGradient>
    <linearGradient
       inkscape:collect="always"
       id="linearGradient919">
      <stop
         style="stop-color:#f8f8f8;stop-opacity:1"
         offset="0"
         id="stop915" />
      <stop
         id="stop923"
         offset="0.27646455"
         style="stop-color:#a7a7a7;stop-opacity:0.72156864" />
      <stop
         style="stop-color:#a6a6a6;stop-opacity:0.49411765"
         offset="0.50381261"
         id="stop925" />
      <stop
         id="stop927"
         offset="0.74453408"
         style="stop-color:#f2f2f2;stop-opacity:0.25098041" />
      <stop
         style="stop-color:#ffffff;stop-opacity:0"
         offset="1"
         id="stop917" />
    </linearGradient>
    <filter
       id="filter833"
       style="color-interpolation-filters:sRGB"
       inkscape:menu-tooltip="Adds a small scale graininess"
       inkscape:menu="Image Effects"
       inkscape:label="BrushedMetal">
      <feTurbulence
         id="feTurbulence823"
         result="result0"
         seed="0"
         baseFrequency="0.0040000000000000001 1"
         numOctaves="3"
         type="fractalNoise" />
      <feColorMatrix
         id="feColorMatrix825"
         type="saturate"
         values="0"
         result="result4" />
      <feComposite
         k4="0.1"
         id="feComposite827"
         result="result2"
         k3="0.6"
         k2="0.2"
         k1="-0.08"
         operator="arithmetic"
         in2="result4"
         in="SourceGraphic" />
      <feBlend
         id="feBlend829"
         in2="SourceGraphic"
         in="result2"
         mode="normal"
         result="result5" />
      <feComposite
         id="feComposite831"
         result="result3"
         operator="in"
         in2="SourceGraphic"
         in="result5" />
    </filter>
    <linearGradient
       inkscape:collect="always"
       xlink:href="#linearGradient919"
       id="linearGradient921"
       x1="1366.8574"
       y1="294.19336"
       x2="1954.377"
       y2="294.19336"
       gradientUnits="userSpaceOnUse" />
    <linearGradient
       inkscape:collect="always"
       xlink:href="#linearGradient943"
       id="linearGradient931"
       gradientUnits="userSpaceOnUse"
       x1="1954.3789"
       y1="294.19336"
       x2="1352.326"
       y2="294.19336"
       gradientTransform="matrix(-0.26458333,0,0,0.26458333,753.55866,38.085905)" />
    <filter
       inkscape:label="Film Grain"
       inkscape:menu="Image Effects"
       inkscape:menu-tooltip="Adds a small scale graininess"
       style="color-interpolation-filters:sRGB"
       id="filter1016">
      <feTurbulence
         type="fractalNoise"
         numOctaves="3"
         baseFrequency="1"
         seed="0"
         result="result0"
         id="feTurbulence1006" />
      <feColorMatrix
         result="result4"
         values="0"
         type="saturate"
         id="feColorMatrix1008" />
      <feComposite
         in="SourceGraphic"
         in2="result4"
         operator="arithmetic"
         k1="1.25"
         k2="0.5"
         k3="0.5"
         result="result2"
         id="feComposite1010"
         k4="0" />
      <feBlend
         result="result5"
         mode="normal"
         in="result2"
         in2="SourceGraphic"
         id="feBlend1012" />
      <feComposite
         in="result5"
         in2="SourceGraphic"
         operator="in"
         result="result3"
         id="feComposite1014" />
    </filter>
    <filter
       inkscape:label="Film Grain"
       inkscape:menu="Image Effects"
       inkscape:menu-tooltip="Adds a small scale graininess"
       style="color-interpolation-filters:sRGB"
       id="filter1028">
      <feTurbulence
         type="fractalNoise"
         numOctaves="3"
         baseFrequency="1"
         seed="0"
         result="result0"
         id="feTurbulence1018" />
      <feColorMatrix
         result="result4"
         values="0"
         type="saturate"
         id="feColorMatrix1020" />
      <feComposite
         in="SourceGraphic"
         in2="result4"
         operator="arithmetic"
         k1="1.25"
         k2="0.5"
         k3="0.5"
         result="result2"
         id="feComposite1022"
         k4="0" />
      <feBlend
         result="result5"
         mode="normal"
         in="result2"
         in2="SourceGraphic"
         id="feBlend1024" />
      <feComposite
         in="result5"
         in2="SourceGraphic"
         operator="in"
         result="result3"
         id="feComposite1026" />
    </filter>
    <filter
       inkscape:label="Film Grain"
       inkscape:menu="Image Effects"
       inkscape:menu-tooltip="Adds a small scale graininess"
       style="color-interpolation-filters:sRGB"
       id="filter1040">
      <feTurbulence
         type="fractalNoise"
         numOctaves="3"
         baseFrequency="0.033000000000000002"
         seed="0"
         result="result0"
         id="feTurbulence1030" />
      <feColorMatrix
         result="result4"
         values="0"
         type="saturate"
         id="feColorMatrix1032" />
      <feComposite
         in="SourceGraphic"
         in2="result4"
         operator="arithmetic"
         k1="1.25"
         k2="0.5"
         k3="0.5"
         result="result2"
         id="feComposite1034"
         k4="0" />
      <feBlend
         result="result5"
         mode="normal"
         in="result2"
         in2="SourceGraphic"
         id="feBlend1036" />
      <feComposite
         in="result5"
         in2="SourceGraphic"
         operator="in"
         result="result3"
         id="feComposite1038" />
    </filter>
    <linearGradient
       inkscape:collect="always"
       xlink:href="#linearGradient1061"
       id="linearGradient1063"
       x1="297.75079"
       y1="77.838684"
       x2="536.22223"
       y2="77.838684"
       gradientUnits="userSpaceOnUse" />
  </defs>
  <sodipodi:namedview
     id="base"
     pagecolor="#ffffff"
     bordercolor="#666666"
     borderopacity="1.0"
     inkscape:pageopacity="0.0"
     inkscape:pageshadow="2"
     inkscape:zoom="1.4"
     inkscape:cx="285.35714"
     inkscape:cy="155.35714"
     inkscape:document-units="px"
     inkscape:current-layer="layer1"
     showgrid="false"
     inkscape:window-width="1920"
     inkscape:window-height="991"
     inkscape:window-x="-9"
     inkscape:window-y="-9"
     inkscape:window-maximized="1"
     inkscape:object-paths="true"
     inkscape:snap-intersection-paths="true"
     inkscape:snap-smooth-nodes="true"
     inkscape:snap-nodes="false"
     units="px"
     inkscape:pagecheckerboard="1"
     height="97.516px" />
  <metadata
     id="metadata5">
    <rdf:RDF>
      <cc:Work
         rdf:about="">
        <dc:format>image/svg+xml</dc:format>
        <dc:type
           rdf:resource="http://purl.org/dc/dcmitype/StillImage" />
      </cc:Work>
    </rdf:RDF>
  </metadata>
  <g
     inkscape:label="Layer 1"
     inkscape:groupmode="layer"
     id="layer1"
     transform="translate(0,-271.199)">
    <flowRoot
       xml:space="preserve"
       id="flowRoot902"
       style="font-style:normal;font-variant:normal;font-weight:normal;font-stretch:normal;font-size:26.6667px;line-height:1.25;font-family:'Product Sans';-inkscape-font-specification:'Product Sans';letter-spacing:0px;word-spacing:0px;fill:#000000;fill-opacity:1;stroke:none"
       transform="translate(-0.47338515,21.959351)"><flowRegion
         id="flowRegion904"><rect
           id="rect906"
           width="61.07143"
           height="31.428572"
           x="305"
           y="682.16254" /></flowRegion><flowPara
         id="flowPara908" /></flowRoot>
    <g
       id="g1793"
       transform="translate(-314.3512,115.12889)">
      <g
         id="g1459">
        <path
           id="path894-1"
           style="fill:#333333;stroke:none;stroke-width:0.651942px;stroke-linecap:butt;stroke-linejoin:miter;stroke-opacity:1"
           d="m 171.70117,22.347656 c -0.89378,0 -1.70618,0.09347 -2.4375,0.283203 -0.73129,0.16252 -1.35454,0.447267 -1.86914,0.853516 -0.48753,0.406274 -0.86588,0.94786 -1.13672,1.625 -0.27086,0.677115 -0.40625,1.503473 -0.40625,2.478516 v 2.478515 h -2.84375 v 3.81836 h 2.84375 v 18.039062 h 5.60547 V 33.884766 h 3.25 v -3.81836 h -3.25 V 28.15625 c 0,-0.622967 0.16327,-1.069003 0.48828,-1.339844 0.32502,-0.270841 0.88056,-0.40625 1.66602,-0.40625 h 0.52734 c 0.24366,0 0.43283,0.0138 0.56836,0.04102 V 22.46875 c -1.00213,-0.08139 -2.0037,-0.121094 -3.00586,-0.121094 z m 158.08008,0 c -1.86885,0 -3.42597,0.310652 -4.67187,0.933594 -1.24592,0.622967 -2.24749,1.556851 -3.00586,2.802734 -0.75838,1.218822 -1.29999,2.750008 -1.625,4.591797 -0.29793,1.841764 -0.44727,3.982303 -0.44727,6.419922 0,2.518904 0.10753,4.739086 0.32422,6.662109 0.21669,1.895938 0.63682,3.494841 1.25976,4.794922 0.65003,1.300057 1.53015,2.259846 2.64063,2.882813 1.13756,0.622942 2.60106,0.935547 4.38867,0.935547 1.38132,0 2.56009,-0.230959 3.53516,-0.691406 1.00213,-0.48751 1.85439,-1.299938 2.55859,-2.4375 h 0.082 v 2.68164 h 4.30664 V 36.283203 h -9.46679 v 4.304688 h 3.85937 v 2.966797 c 0,0.785461 -0.12158,1.476385 -0.36523,2.072265 -0.24366,0.568769 -0.55431,1.042688 -0.9336,1.421875 -0.35212,0.379188 -0.74635,0.663909 -1.17968,0.853516 -0.40628,0.18948 -0.78462,0.283203 -1.13672,0.283203 -0.83964,0 -1.53056,-0.256863 -2.07227,-0.771485 -0.51462,-0.541681 -0.92082,-1.300322 -1.21875,-2.27539 -0.27084,-1.002129 -0.46001,-2.206806 -0.56836,-3.615234 -0.10834,-1.408405 -0.16211,-2.979449 -0.16211,-4.712891 0,-3.629354 0.31065,-6.229859 0.9336,-7.800781 0.62294,-1.570923 1.63844,-2.355469 3.04687,-2.355469 0.59586,0 1.09763,0.161314 1.50391,0.486328 0.43336,0.297928 0.78383,0.690201 1.05469,1.177734 0.27086,0.460448 0.46199,0.976154 0.57031,1.544922 0.13556,0.568794 0.20312,1.124309 0.20312,1.666016 h 5.60547 c 0,-2.952239 -0.70292,-5.214234 -2.11133,-6.785156 -1.4084,-1.59801 -3.71218,-2.396485 -6.9082,-2.396485 z m 104.81836,0 c -2.78972,0 -4.98402,0.704852 -6.58203,2.113282 -1.59801,1.408403 -2.39649,3.546964 -2.39649,6.417968 0,1.191736 0.14934,2.249053 0.44727,3.169922 0.29793,0.893808 0.75789,1.692283 1.38086,2.396484 0.65003,0.677116 1.4485,1.272489 2.39648,1.78711 0.94796,0.51462 2.07297,0.988514 3.37305,1.421875 0.97504,0.325014 1.78745,0.649595 2.4375,0.974609 0.67711,0.297928 1.21873,0.636438 1.625,1.015625 0.40627,0.379188 0.69102,0.813248 0.85352,1.300781 0.18973,0.460449 0.2832,1.015988 0.2832,1.666016 0,1.218822 -0.36442,2.126801 -1.0957,2.722656 -0.70421,0.568794 -1.50268,0.851563 -2.39649,0.851563 -0.75837,0 -1.39552,-0.107526 -1.91016,-0.324219 -0.48753,-0.216693 -0.8798,-0.515344 -1.17773,-0.894531 -0.29793,-0.379188 -0.50103,-0.839178 -0.60937,-1.380859 -0.10835,-0.568795 -0.16407,-1.192026 -0.16407,-1.869141 v -0.853516 h -5.84961 v 1.179688 c 0,2.681423 0.70488,4.738338 2.11328,6.173828 1.4355,1.43549 3.80501,2.154297 7.10938,2.154297 3.16893,0 5.63403,-0.690949 7.39453,-2.072266 1.78759,-1.408428 2.68164,-3.642539 2.68164,-6.703125 0,-0.893783 -0.0816,-1.706187 -0.24414,-2.4375 -0.16252,-0.731288 -0.46117,-1.396332 -0.89453,-1.992187 -0.40627,-0.622967 -0.96181,-1.190483 -1.66602,-1.705078 -0.7042,-0.541709 -1.61022,-1.057389 -2.7207,-1.544922 l -4.50976,-1.949219 c -1.24591,-0.514621 -2.05832,-1.070161 -2.4375,-1.666016 -0.37919,-0.622967 -0.57032,-1.381608 -0.57032,-2.27539 0,-0.433361 0.0419,-0.853492 0.12305,-1.259766 0.10835,-0.406274 0.28359,-0.75676 0.52734,-1.054687 0.27084,-0.325041 0.62328,-0.583857 1.05664,-0.773438 0.43336,-0.18948 0.97498,-0.283203 1.625,-0.283203 1.13757,0 1.94997,0.378344 2.4375,1.136719 0.48754,0.731288 0.73243,1.788579 0.73243,3.169922 h 5.60546 v -0.8125 c 0,-1.381343 -0.229,-2.560114 -0.68945,-3.535157 -0.43336,-1.002129 -1.05659,-1.814533 -1.86914,-2.4375 -0.78546,-0.650028 -1.73327,-1.110018 -2.84375,-1.380859 -1.08339,-0.297953 -2.27609,-0.447266 -3.57617,-0.447266 z m -202.85156,0.244141 v 4.792969 h 5.60742 v -4.792969 z m 266.83984,0 v 4.792969 h 5.60547 v -4.792969 z m -387.9082,0.324219 v 29.007812 h 5.84961 V 40.345703 h 3.1289 c 1.38134,0 2.63978,-0.177196 3.77735,-0.529297 1.13756,-0.352101 2.0993,-0.879757 2.88476,-1.583984 0.81255,-0.704202 1.43578,-1.612181 1.86914,-2.722656 0.46045,-1.110476 0.69141,-2.410728 0.69141,-3.900391 0,-1.083389 -0.13538,-2.138728 -0.40625,-3.167969 -0.27084,-1.056302 -0.71886,-1.990186 -1.3418,-2.802734 -0.62296,-0.812548 -1.44734,-1.463663 -2.47656,-1.951172 -1.00215,-0.51462 -2.24862,-0.771484 -3.73828,-0.771484 z m 190.17578,0 v 29.007812 h 5.60547 V 22.916016 Z m 106.24023,0 v 9.18164 h -0.082 c -0.59585,-0.866721 -1.27287,-1.515858 -2.03125,-1.949218 -0.73129,-0.433337 -1.62531,-0.650391 -2.68164,-0.650391 -2.30221,0 -3.99473,0.906026 -5.07812,2.720703 -1.08339,1.787591 -1.625,4.714604 -1.625,8.777344 0,4.062715 0.54161,6.973846 1.625,8.734375 1.08339,1.760504 2.77591,2.640625 5.07812,2.640625 1.13756,0 2.08538,-0.203101 2.84375,-0.609375 0.78546,-0.406274 1.49032,-1.125081 2.11328,-2.154297 h 0.082 v 2.316406 h 5.36133 V 22.916016 Z m 175.34571,0 c -1.08339,0 -2.08499,0.149338 -3.00586,0.447265 -0.89381,0.270841 -1.66443,0.677043 -2.31446,1.21875 -0.65005,0.514621 -1.16573,1.149829 -1.54492,1.908203 -0.3521,0.731289 -0.52734,1.571576 -0.52734,2.519532 0,0.406274 0.0259,0.798547 0.0801,1.177734 0.0542,0.379187 0.14985,0.773412 0.28515,1.179688 0.13531,0.406274 0.32448,0.83838 0.56836,1.298828 0.27087,0.460447 0.60935,0.990082 1.01563,1.585937 l 1.01562,1.501953 c -1.81468,1.137562 -3.25031,2.397981 -4.30664,3.779297 -1.02921,1.354255 -1.54297,2.883513 -1.54297,4.589844 0,0.812548 0.12158,1.706572 0.36524,2.681641 0.2439,0.975042 0.68994,1.883021 1.33984,2.722656 0.65003,0.839634 1.55801,1.530583 2.72266,2.072265 1.16465,0.514621 2.65404,0.771485 4.46875,0.771485 1.46257,0 2.80266,-0.230959 4.02148,-0.691406 1.24591,-0.460424 2.23551,-1.123514 2.9668,-1.990235 l 1.625,2.234375 h 6.21484 l -3.81836,-5.363281 c 0.86672,-1.245909 1.5716,-2.585994 2.11328,-4.021485 0.5688,-1.462576 0.85352,-2.979858 0.85352,-4.550781 h -5.03906 c 0,0.622942 -0.0937,1.353725 -0.28321,2.19336 -0.18973,0.839634 -0.43462,1.57237 -0.73242,2.195312 l -4.3457,-5.890625 c 1.70633,-1.218822 2.96479,-2.411523 3.77734,-3.576172 0.83964,-1.164649 1.25977,-2.478804 1.25977,-3.941406 0,-0.839609 -0.14934,-1.624181 -0.44727,-2.355469 -0.27086,-0.731313 -0.70297,-1.368474 -1.29883,-1.910156 -0.59588,-0.568794 -1.35452,-1.000901 -2.27539,-1.298828 -0.8938,-0.325014 -1.96503,-0.488281 -3.21093,-0.488281 z m -0.1211,3.574218 c 0.75838,0 1.36771,0.21703 1.82813,0.650391 0.48753,0.406274 0.73242,1.0036 0.73242,1.789063 0,0.514595 -0.14934,1.042277 -0.44727,1.583984 -0.27084,0.514595 -0.73276,1.042277 -1.38281,1.583984 l -1.05469,0.894532 -0.6914,-0.976563 c -0.97504,-1.300057 -1.46289,-2.355421 -1.46289,-3.167969 0,-0.758375 0.23096,-1.339818 0.6914,-1.746094 0.48751,-0.406274 1.08289,-0.611328 1.78711,-0.611328 z M 116.5293,27.222656 h 2.4375 c 1.46257,0 2.50596,0.378319 3.1289,1.136719 0.62297,0.758375 0.9336,1.869455 0.9336,3.332031 0,1.489663 -0.36439,2.586814 -1.09571,3.291016 -0.7042,0.704201 -1.63808,1.056641 -2.80273,1.05664 h -2.60156 z m 36.79492,2.273438 c -0.10273,-3.17e-4 -0.20559,2.6e-4 -0.31055,0.002 -1.59801,0 -2.95202,0.256889 -4.0625,0.771484 -1.08339,0.487534 -1.96546,1.218317 -2.64258,2.19336 -0.67714,0.947981 -1.16301,2.140682 -1.46093,3.576171 -0.29793,1.435516 -0.44727,3.088181 -0.44727,4.957032 0,1.895937 0.13541,3.574533 0.40625,5.037109 0.27084,1.43549 0.73081,2.640166 1.38086,3.615235 0.65003,0.947955 1.53015,1.652834 2.64062,2.113281 1.11049,0.43336 2.50628,0.636461 4.18555,0.609375 1.59801,0 2.9381,-0.230959 4.02149,-0.691406 1.11047,-0.460424 2.00452,-1.163348 2.68164,-2.111329 0.67714,-0.975067 1.16496,-2.181697 1.46289,-3.617187 0.29793,-1.43549 0.44531,-3.086228 0.44531,-4.955078 0,-1.923024 -0.13541,-3.603548 -0.40625,-5.039063 -0.27084,-1.435489 -0.73081,-2.640192 -1.38086,-3.615234 -0.65003,-0.975068 -1.53015,-1.69385 -2.64062,-2.154297 -1.04108,-0.457039 -2.33206,-0.686648 -3.87305,-0.691406 z m 96.16406,0 c -0.10273,-3.17e-4 -0.20559,2.6e-4 -0.31055,0.002 -1.59801,0 -2.95202,0.256889 -4.0625,0.771484 -1.08338,0.487534 -1.96348,1.218317 -2.64062,2.19336 -0.67712,0.947981 -1.16496,2.140682 -1.46289,3.576171 -0.29793,1.435516 -0.44727,3.088181 -0.44727,4.957032 0,1.895937 0.13541,3.574533 0.40625,5.037109 0.27084,1.43549 0.73081,2.640166 1.38086,3.615235 0.65003,0.947955 1.53015,1.652834 2.64063,2.113281 1.11047,0.43336 2.50628,0.636461 4.18554,0.609375 1.59801,0 2.9381,-0.230959 4.02149,-0.691406 1.11047,-0.460424 2.00452,-1.163348 2.68164,-2.111329 0.67714,-0.975067 1.16496,-2.181697 1.46289,-3.617187 0.29793,-1.43549 0.44727,-3.086228 0.44727,-4.955078 0,-1.923024 -0.13541,-3.603548 -0.40625,-5.039063 -0.27087,-1.435489 -0.73279,-2.640192 -1.38282,-3.615234 -0.65003,-0.975068 -1.53015,-1.69385 -2.64062,-2.154297 -1.04107,-0.457039 -2.33206,-0.686648 -3.87305,-0.691406 z m -107.4043,0.002 c -1.16464,0 -2.15229,0.324556 -2.96484,0.974609 -0.81252,0.622942 -1.50347,1.463228 -2.07226,2.519532 h -0.082 v -2.925782 h -5.36328 v 21.857422 h 5.60742 V 38.800781 c 0,-0.731313 0.12159,-1.340616 0.36524,-1.828125 0.24365,-0.51462 0.56823,-0.920822 0.97461,-1.21875 0.40627,-0.325014 0.85426,-0.55402 1.34179,-0.689453 0.48755,-0.135559 0.97536,-0.205078 1.4629,-0.205078 0.29792,0 0.58072,0.0138 0.85156,0.04102 0.29793,0 0.59658,0.0138 0.89453,0.04102 v -5.363281 c -0.16252,-0.02696 -0.33776,-0.03906 -0.52734,-0.03906 -0.16252,-0.02721 -0.32577,-0.04102 -0.48829,-0.04102 z m 42.45508,0 c -1.89593,0 -3.41126,0.310652 -4.54883,0.933594 -1.13756,0.622941 -2.01768,1.463203 -2.64062,2.519531 -0.59588,1.056302 -1.00404,2.261004 -1.2207,3.615234 -0.18948,1.354255 -0.28321,2.762033 -0.28321,4.22461 0,1.381341 0.0538,2.763214 0.16211,4.144531 0.13556,1.381316 0.47407,2.62778 1.01563,3.738281 0.5417,1.110476 1.38197,2.004526 2.51953,2.681641 1.13756,0.677115 2.72252,1.015625 4.75391,1.015625 2.68139,0 4.64474,-0.663091 5.89062,-1.990235 1.24591,-1.327168 1.9229,-3.26458 2.03125,-5.810547 h -5.03711 c -0.16252,1.381318 -0.46117,2.410776 -0.89453,3.087891 -0.43336,0.67714 -1.12431,1.015625 -2.07227,1.015625 -0.51462,0 -0.94868,-0.135384 -1.30078,-0.40625 -0.3521,-0.297927 -0.63487,-0.678225 -0.85156,-1.138672 -0.21669,-0.487534 -0.37996,-1.029145 -0.48828,-1.625 -0.0811,-0.622941 -0.1211,-1.258149 -0.1211,-1.908203 l -0.002,-1.748047 h 11.0918 v -1.259765 c 0,-1.679244 -0.10753,-3.194572 -0.32422,-4.548829 -0.21669,-1.381316 -0.62289,-2.546159 -1.21875,-3.49414 -0.59586,-0.975043 -1.42219,-1.719755 -2.47852,-2.234375 -1.02921,-0.541682 -2.35732,-0.8125 -3.98242,-0.8125 z m 18.20117,0 c -1.43551,0 -2.66805,0.175243 -3.69726,0.527344 -1.00213,0.3521 -1.82846,0.82602 -2.47852,1.421875 -0.65003,0.59588 -1.12394,1.300733 -1.42187,2.113281 -0.29795,0.785461 -0.44531,1.625748 -0.44531,2.519531 0,1.543836 0.39227,2.816204 1.17773,3.81836 0.78546,0.975042 1.9503,1.733683 3.49414,2.27539 l 3.93945,1.421875 c 0.54169,0.216693 1.0156,0.513391 1.42188,0.892578 0.40627,0.352101 0.60937,0.881736 0.60937,1.585938 0,0.866721 -0.25686,1.515857 -0.77148,1.949219 -0.5146,0.43336 -1.20555,0.65039 -2.07227,0.65039 -0.94798,0 -1.67876,-0.284721 -2.19336,-0.853516 -0.48753,-0.595855 -0.73046,-1.366472 -0.73046,-2.314453 v -0.732421 h -5.03907 v 0.771484 c 0,1.056302 0.12354,2.018043 0.36719,2.884766 0.24365,0.839634 0.66186,1.558441 1.25781,2.154296 0.62297,0.595881 1.4493,1.041917 2.47852,1.339844 1.05633,0.297928 2.37051,0.447266 3.9414,0.447266 1.19175,0 2.27494,-0.121581 3.25,-0.365235 1.00214,-0.243653 1.85635,-0.649855 2.56055,-1.21875 0.73132,-0.568768 1.29881,-1.273646 1.70508,-2.113281 0.40625,-0.866721 0.60937,-1.882226 0.60937,-3.046875 0,-1.652183 -0.36441,-2.952434 -1.0957,-3.900391 -0.73129,-0.975067 -1.97778,-1.759613 -3.73828,-2.355468 l -3.37305,-1.138672 c -0.94798,-0.297928 -1.59711,-0.664296 -1.94921,-1.097656 -0.32503,-0.433336 -0.48829,-0.919231 -0.48829,-1.460938 0,-0.785461 0.25882,-1.368859 0.77344,-1.748047 0.54168,-0.406274 1.16296,-0.609375 1.86719,-0.609375 0.92087,0 1.55804,0.270793 1.91016,0.8125 0.37918,0.514596 0.56835,1.340954 0.56835,2.478516 h 5.03907 v -0.894531 c 0,-1.977197 -0.60931,-3.506455 -1.82813,-4.589844 -1.21882,-1.083389 -3.10247,-1.625 -5.64844,-1.625 z m 18.03907,0 c -1.43552,0 -2.66805,0.175243 -3.69727,0.527344 -1.00213,0.3521 -1.82846,0.825994 -2.47851,1.421875 -0.65003,0.595855 -1.12395,1.300733 -1.42188,2.113281 -0.29795,0.785461 -0.44726,1.625723 -0.44726,2.519531 0,1.543836 0.39227,2.816229 1.17773,3.81836 0.78546,0.975067 1.9503,1.733708 3.49414,2.27539 l 3.94141,1.421875 c 0.54168,0.216693 1.0156,0.513416 1.42187,0.892578 0.40628,0.352101 0.60938,0.881736 0.60938,1.585938 0,0.866721 -0.25687,1.515857 -0.77149,1.949219 -0.51459,0.43336 -1.20554,0.65039 -2.07226,0.65039 -0.94798,0 -1.67877,-0.284721 -2.19336,-0.853516 -0.48754,-0.595855 -0.73243,-1.366472 -0.73242,-2.314453 v -0.732421 h -5.03711 v 0.771484 c 0,1.056302 0.12158,2.018043 0.36523,2.884766 0.24365,0.839634 0.66378,1.558441 1.25977,2.154296 0.62294,0.595881 1.44927,1.041917 2.47851,1.339844 1.0563,0.297928 2.37048,0.447266 3.94141,0.447266 1.19173,0 2.27496,-0.121581 3.25,-0.365235 1.00215,-0.243653 1.85439,-0.649855 2.55859,-1.21875 0.73129,-0.568768 1.30076,-1.273646 1.70703,-2.113281 0.40628,-0.866721 0.60938,-1.882226 0.60938,-3.046875 0,-1.652183 -0.36637,-2.952434 -1.09766,-3.900391 -0.73129,-0.975067 -1.9758,-1.759613 -3.73633,-2.355468 l -3.37304,-1.138672 c -0.94798,-0.297928 -1.59712,-0.664296 -1.94922,-1.097656 -0.32502,-0.433361 -0.48828,-0.919231 -0.48828,-1.460938 0,-0.785461 0.25686,-1.368859 0.77148,-1.748047 0.54168,-0.406274 1.16491,-0.609375 1.86914,-0.609375 0.92087,0 1.55806,0.270793 1.91016,0.8125 0.37918,0.514621 0.56836,1.340954 0.56836,2.478516 h 5.03711 v -0.894531 c 0,-1.977197 -0.60931,-3.506455 -1.82813,-4.589844 -1.21882,-1.083389 -3.10052,-1.625 -5.64648,-1.625 z m 51.02734,0 c -1.21882,0 -2.30204,0.256889 -3.25,0.771484 -0.94798,0.487534 -1.72055,1.27208 -2.31641,2.355469 h -0.0801 v -2.558594 h -5.36328 v 21.857422 h 5.60742 V 37.419922 c 0,-2.410558 0.98764,-3.615234 2.96484,-3.615234 0.83964,0 1.44894,0.229005 1.82813,0.689453 0.37918,0.43336 0.56835,1.219859 0.56835,2.357421 v 15.072266 h 5.60743 V 35.712891 c 0,-2.193865 -0.48783,-3.776886 -1.46289,-4.751953 -0.94798,-0.975044 -2.31593,-1.462891 -4.10352,-1.462891 z m 16.94141,0 c -1.05631,0 -2.05788,0.121581 -3.00586,0.365234 -0.9209,0.216693 -1.7333,0.595037 -2.4375,1.136719 -0.67712,0.514595 -1.21873,1.205544 -1.625,2.072266 -0.40628,0.839634 -0.60938,1.896925 -0.60938,3.169922 v 0.527343 h 5.03711 v -0.609375 c 0,-0.866721 0.21706,-1.55767 0.65039,-2.072265 0.43336,-0.514621 1.0825,-0.771485 1.94922,-0.771485 0.94798,0 1.613,0.244888 1.99219,0.732422 0.40625,0.460447 0.60937,1.109609 0.60937,1.949219 0,0.731288 -0.16326,1.286828 -0.48828,1.666015 -0.32501,0.379189 -0.90646,0.675886 -1.74609,0.892579 l -3.16992,0.853515 c -0.97507,0.270866 -1.81533,0.583446 -2.51953,0.935547 -0.67712,0.352101 -1.24464,0.798137 -1.70508,1.339844 -0.43336,0.514595 -0.75794,1.151781 -0.97461,1.910156 -0.21669,0.731288 -0.32617,1.611384 -0.32617,2.640625 0,0.731288 0.0957,1.476 0.28515,2.234375 0.18948,0.731288 0.48621,1.394378 0.89258,1.990235 0.40627,0.59588 0.94789,1.069774 1.625,1.421874 0.67714,0.325016 1.50347,0.488282 2.47852,0.488282 1.35425,0 2.45138,-0.163266 3.29101,-0.488282 0.8667,-0.3521 1.62534,-1.096812 2.27539,-2.234374 h 0.082 c 0.0811,0.379187 0.16081,0.77146 0.24219,1.177734 0.10835,0.379187 0.25769,0.745555 0.44727,1.097656 h 5.36328 c -0.27087,-0.650028 -0.46004,-1.259331 -0.56836,-1.828125 -0.0811,-0.568768 -0.12305,-1.367243 -0.12305,-2.396484 V 36.201172 c 0,-0.975043 -0.10752,-1.869093 -0.32422,-2.681641 -0.18973,-0.839634 -0.56807,-1.556463 -1.13672,-2.152343 -0.56879,-0.595857 -1.36922,-1.057799 -2.39843,-1.382813 -1.02924,-0.325014 -2.38326,-0.486328 -4.0625,-0.486328 z m 81.94531,0 c -1.05633,0 -2.0579,0.121581 -3.00586,0.365234 -0.92089,0.216693 -1.7333,0.595037 -2.4375,1.136719 -0.67711,0.514595 -1.21873,1.205544 -1.625,2.072266 -0.40627,0.839634 -0.60937,1.896925 -0.60938,3.169922 v 0.527343 h 5.03711 v -0.609375 c 0,-0.866721 0.21703,-1.55767 0.65039,-2.072265 0.43338,-0.514621 1.0825,-0.771485 1.94922,-0.771485 0.94796,0 1.613,0.244888 1.99219,0.732422 0.40628,0.460447 0.60938,1.109609 0.60938,1.949219 0,0.731288 -0.16326,1.286828 -0.48829,1.666015 -0.32501,0.379189 -0.90841,0.675886 -1.74804,0.892579 l -3.16797,0.853515 c -0.97507,0.270866 -1.81533,0.583446 -2.51953,0.935547 -0.67712,0.352101 -1.24463,0.798137 -1.70508,1.339844 -0.43336,0.514595 -0.75989,1.151781 -0.97656,1.910156 -0.2167,0.731288 -0.32422,1.611384 -0.32422,2.640625 0,0.731288 0.0954,1.476 0.28516,2.234375 0.18948,0.731288 0.4862,1.394378 0.89257,1.990235 0.40628,0.59588 0.94789,1.069774 1.625,1.421874 0.67712,0.325016 1.50345,0.488282 2.47852,0.488282 1.35423,0 2.45138,-0.163266 3.29101,-0.488282 0.86673,-0.3521 1.62536,-1.096812 2.2754,-2.234374 h 0.082 c 0.0811,0.379187 0.1608,0.77146 0.24218,1.177734 0.10835,0.379187 0.25769,0.745555 0.44727,1.097656 h 5.36328 c -0.27084,-0.650028 -0.46001,-1.259331 -0.56836,-1.828125 -0.0811,-0.568768 -0.12305,-1.367243 -0.12305,-2.396484 V 36.201172 c 0,-0.975043 -0.10752,-1.869093 -0.32421,-2.681641 -0.18948,-0.839634 -0.56783,-1.556463 -1.13672,-2.152343 -0.5688,-0.595857 -1.36922,-1.057799 -2.39844,-1.382813 -1.02924,-0.325014 -2.38326,-0.486328 -4.0625,-0.486328 z m 22.38672,0 c -1.16465,0 -2.15425,0.324556 -2.9668,0.974609 -0.81255,0.622942 -1.5035,1.463228 -2.07226,2.519532 h -0.0801 v -2.925782 h -5.36328 v 21.857422 h 5.60546 V 38.800781 c 0,-0.731313 0.12329,-1.340616 0.36719,-1.828125 0.24366,-0.51462 0.56824,-0.920822 0.97461,-1.21875 0.40628,-0.325014 0.85231,-0.55402 1.33985,-0.689453 0.48753,-0.135559 0.97538,-0.205078 1.46289,-0.205078 0.29795,0 0.58267,0.0138 0.85351,0.04102 0.29793,0 0.59661,0.0138 0.89453,0.04102 v -5.363281 c -0.16252,-0.02696 -0.33971,-0.03906 -0.52929,-0.03906 -0.16252,-0.02721 -0.32384,-0.04102 -0.48633,-0.04102 z m 62.07812,0 c -1.89593,0 -3.41322,0.310652 -4.55078,0.933594 -1.13756,0.622941 -2.01768,1.463203 -2.64062,2.519531 -0.59588,1.056302 -1.00209,2.261004 -1.21875,3.615234 -0.18948,1.354255 -0.28516,2.762033 -0.28516,4.22461 0,1.381341 0.0538,2.763214 0.16211,4.144531 0.13556,1.381316 0.47407,2.62778 1.01562,3.738281 0.54172,1.110476 1.38197,2.004526 2.51954,2.681641 1.13756,0.677115 2.72253,1.015625 4.7539,1.015625 2.6814,0 4.64472,-0.663091 5.89063,-1.990235 1.24588,-1.327168 1.9229,-3.26458 2.03125,-5.810547 h -5.03711 c -0.16252,1.381318 -0.46117,2.410776 -0.89453,3.087891 -0.43336,0.67714 -1.12431,1.015625 -2.07227,1.015625 -0.51462,0 -0.94673,-0.135384 -1.29883,-0.40625 -0.3521,-0.297927 -0.63684,-0.678225 -0.85351,-1.138672 -0.2167,-0.487534 -0.37994,-1.029145 -0.48828,-1.625 -0.0811,-0.622941 -0.1211,-1.258149 -0.1211,-1.908203 v -1.748047 h 11.08985 v -1.259765 c 0,-1.679244 -0.10753,-3.194572 -0.32422,-4.548829 -0.2167,-1.381316 -0.6229,-2.546159 -1.21875,-3.49414 -0.59586,-0.975043 -1.42222,-1.719755 -2.47852,-2.234375 -1.02924,-0.541682 -2.35537,-0.8125 -3.98047,-0.8125 z m 21.41016,0 c -1.16465,0 -2.15425,0.324556 -2.9668,0.974609 -0.81255,0.622942 -1.50349,1.463228 -2.07226,2.519532 h -0.0801 v -2.925782 h -5.36328 v 21.857422 h 5.60742 V 38.800781 c 0,-0.731313 0.12158,-1.340616 0.36523,-1.828125 0.24366,-0.51462 0.56824,-0.920822 0.97461,-1.21875 0.40628,-0.325014 0.85231,-0.55402 1.33985,-0.689453 0.48753,-0.135559 0.97538,-0.205078 1.46289,-0.205078 0.29795,0 0.58267,0.0138 0.85351,0.04102 0.29793,0 0.59661,0.0138 0.89453,0.04102 v -5.363281 c -0.16252,-0.02696 -0.33971,-0.03906 -0.52929,-0.03906 -0.16252,-0.02721 -0.32384,-0.04102 -0.48633,-0.04102 z m 39.61133,0 c -1.30006,0 -2.49276,0.175243 -3.57617,0.527344 -1.08339,0.3521 -2.01728,0.975358 -2.80274,1.86914 -0.78546,0.866721 -1.39476,2.045493 -1.82812,3.535157 -0.43334,1.462601 -0.65039,3.318368 -0.65039,5.566406 0,2.193864 0.17719,4.033774 0.52929,5.523437 0.3521,1.462577 0.86586,2.641348 1.54297,3.535157 0.7042,0.866721 1.57039,1.476024 2.59961,1.828124 1.05633,0.325016 2.28886,0.488282 3.69727,0.488282 2.97932,0 5.10591,-0.744712 6.3789,-2.234375 1.30008,-1.51675 1.94922,-3.711027 1.94922,-6.582031 h -5.36133 c 0,1.787615 -0.21703,3.087842 -0.65039,3.90039 -0.43336,0.812548 -1.12431,1.21875 -2.07226,1.21875 -0.62297,0 -1.1367,-0.135384 -1.54297,-0.40625 -0.37919,-0.297927 -0.67787,-0.757918 -0.89453,-1.380859 -0.2167,-0.622967 -0.36603,-1.409466 -0.44727,-2.357422 -0.0814,-0.975068 -0.12109,-2.139911 -0.12109,-3.494141 0,-1.272995 0.0397,-2.370121 0.12109,-3.291015 0.0811,-0.947956 0.23047,-1.718573 0.44727,-2.314453 0.21669,-0.622943 0.54127,-1.082932 0.97461,-1.38086 0.43336,-0.325014 0.9889,-0.488281 1.66601,-0.488281 0.54171,0 0.97577,0.135409 1.30078,0.40625 0.32502,0.243653 0.56795,0.582163 0.73047,1.015625 0.18948,0.406274 0.31106,0.866239 0.36524,1.380859 0.0814,0.514596 0.12304,1.042278 0.12304,1.583985 h 5.36133 c 0,-2.600139 -0.66306,-4.657079 -1.99023,-6.173828 -1.30006,-1.516751 -3.24945,-2.275391 -5.84961,-2.275391 z m 18.64843,0 c -1.89593,0 -3.41321,0.310652 -4.55078,0.933594 -1.13756,0.622941 -2.01765,1.463203 -2.64062,2.519531 -0.59586,1.056302 -1.00206,2.261004 -1.21875,3.615234 -0.18948,1.354255 -0.28516,2.762033 -0.28516,4.22461 0,1.381341 0.0538,2.763214 0.16211,4.144531 0.13531,1.381316 0.47382,2.62778 1.01563,3.738281 0.54168,1.110476 1.38197,2.004526 2.51953,2.681641 1.13759,0.677115 2.72256,1.015625 4.7539,1.015625 2.6814,0 4.64472,-0.663091 5.89063,-1.990235 1.24591,-1.327168 1.9229,-3.26458 2.03125,-5.810547 h -5.03711 c -0.16252,1.381318 -0.4612,2.410776 -0.89453,3.087891 -0.43336,0.67714 -1.12429,1.015625 -2.07227,1.015625 -0.51459,0 -0.94671,-0.135384 -1.29883,-0.40625 -0.3521,-0.297927 -0.63682,-0.678225 -0.85351,-1.138672 -0.21669,-0.487534 -0.37996,-1.029145 -0.48828,-1.625 -0.0814,-0.622941 -0.1211,-1.258149 -0.1211,-1.908203 v -1.748047 h 11.08985 v -1.259765 c 0,-1.679244 -0.10753,-3.194572 -0.32422,-4.548829 -0.21669,-1.381316 -0.6229,-2.546159 -1.21875,-3.49414 -0.59588,-0.975043 -1.42221,-1.719755 -2.47852,-2.234375 -1.02921,-0.541682 -2.35536,-0.8125 -3.98047,-0.8125 z m 18.19922,0 c -1.43549,0 -2.66802,0.175243 -3.69726,0.527344 -1.00213,0.3521 -1.82654,0.825994 -2.47656,1.421875 -0.65006,0.595855 -1.12395,1.300733 -1.42188,2.113281 -0.29793,0.785461 -0.44726,1.625723 -0.44726,2.519531 0,1.543836 0.39227,2.816229 1.17773,3.81836 0.78546,0.975067 1.9503,1.733708 3.49414,2.27539 l 3.94141,1.421875 c 0.5417,0.216693 1.0156,0.513416 1.42187,0.892578 0.40628,0.352101 0.60938,0.881736 0.60938,1.585938 0,0.866721 -0.25882,1.515857 -0.77344,1.949219 -0.51462,0.43336 -1.20359,0.65039 -2.07031,0.65039 -0.94796,0 -1.6807,-0.284721 -2.19532,-0.853516 -0.4875,-0.595855 -0.73046,-1.366472 -0.73046,-2.314453 v -0.732421 h -5.03711 v 0.771484 c 0,1.056302 0.12158,2.018043 0.36523,2.884766 0.24365,0.839634 0.66381,1.558441 1.25977,2.154296 0.62296,0.595881 1.44734,1.041917 2.47656,1.339844 1.0563,0.297928 2.37048,0.447266 3.9414,0.447266 1.19174,0 2.27494,-0.121581 3.25,-0.365235 1.00213,-0.243653 1.85635,-0.649855 2.56055,-1.21875 0.73129,-0.568768 1.29881,-1.273646 1.70508,-2.113281 0.40627,-0.866721 0.60937,-1.882226 0.60937,-3.046875 0,-1.652183 -0.36441,-2.952434 -1.0957,-3.900391 -0.73129,-0.975067 -1.97778,-1.759613 -3.73828,-2.355468 l -3.37109,-1.138672 c -0.94796,-0.297928 -1.59907,-0.664296 -1.95118,-1.097656 -0.32501,-0.433361 -0.48828,-0.919231 -0.48828,-1.460938 0,-0.785461 0.25885,-1.368859 0.77344,-1.748047 0.54171,-0.406274 1.16494,-0.609375 1.86914,-0.609375 0.9209,0 1.5561,0.270793 1.9082,0.8125 0.37919,0.514621 0.56836,1.340954 0.56836,2.478516 h 5.03907 v -0.894531 c 0,-1.977197 -0.60931,-3.506455 -1.82813,-4.589844 -1.21882,-1.083389 -3.10247,-1.625 -5.64844,-1.625 z m -321.27929,0.568359 v 21.857422 h 5.60742 V 30.066406 Z m 110.99414,0 v 16.210938 c 0,2.193864 0.47389,3.764909 1.42187,4.71289 0.97504,0.92087 2.35692,1.38086 4.14453,1.38086 1.2188,0 2.30202,-0.230959 3.25,-0.691406 0.94798,-0.460424 1.7186,-1.231039 2.31446,-2.314454 h 0.082 v 2.558594 h 5.36328 V 30.066406 h -5.60742 v 14.503906 c 0,2.410534 -0.98765,3.615235 -2.96485,3.615235 -0.83961,0 -1.44893,-0.21703 -1.82812,-0.650391 -0.37919,-0.460422 -0.57031,-1.258922 -0.57031,-2.396484 V 30.066406 Z m 135.9375,0 5.64843,21.857422 h 6.5 l 5.48438,-21.857422 h -5.60547 l -2.9668,15.640625 h -0.082 l -3.12695,-15.640625 z m 19.9082,0 v 21.857422 h 5.60547 V 30.066406 Z m -345.57422,3.25 c 1.13756,0 1.92211,0.595374 2.35547,1.78711 0.43336,1.191735 0.65039,3.157006 0.65039,5.892578 0,2.735571 -0.21703,4.698889 -0.65039,5.890625 -0.43336,1.191735 -1.21791,1.787109 -2.35547,1.787109 -0.67711,0 -1.21872,-0.189147 -1.625,-0.568359 -0.40627,-0.379188 -0.71884,-0.908823 -0.93555,-1.585938 -0.18948,-0.677115 -0.31106,-1.489519 -0.36523,-2.4375 -0.0542,-0.947956 -0.082,-1.975462 -0.082,-3.085937 0,-1.110476 0.0279,-2.13991 0.082,-3.087891 0.0542,-0.947956 0.17575,-1.76036 0.36523,-2.4375 0.21671,-0.677115 0.52928,-1.20675 0.93555,-1.585937 0.40628,-0.379188 0.94789,-0.56836 1.625,-0.56836 z m 31.32227,0 c 0.56879,0 1.02876,0.121581 1.38086,0.365235 0.37918,0.216693 0.66393,0.555203 0.85351,1.015625 0.2167,0.43336 0.36601,0.974971 0.44727,1.625 0.0811,0.622967 0.13489,1.355677 0.16211,2.195312 h -5.72852 v -0.853516 c 0,-0.514595 0.0419,-1.030301 0.12305,-1.544921 0.10835,-0.514621 0.26966,-0.974611 0.48633,-1.38086 0.21669,-0.43336 0.50141,-0.771845 0.85351,-1.015625 0.37919,-0.270841 0.85311,-0.40625 1.42188,-0.40625 z m 64.84179,0 c 1.13757,0 1.92211,0.595374 2.35547,1.78711 0.43334,1.191735 0.65039,3.157006 0.65039,5.892578 0,2.735571 -0.21705,4.698889 -0.65039,5.890625 -0.43336,1.191735 -1.2179,1.787109 -2.35547,1.787109 -0.67714,0 -1.21872,-0.189147 -1.625,-0.568359 -0.40627,-0.379188 -0.71887,-0.908823 -0.93554,-1.585938 -0.18948,-0.677115 -0.31106,-1.489519 -0.36524,-2.4375 -0.0542,-0.947956 -0.0801,-1.975462 -0.0801,-3.085937 0,-1.110476 0.0259,-2.13991 0.0801,-3.087891 0.0542,-0.947956 0.17576,-1.76036 0.36524,-2.4375 0.21669,-0.677115 0.5293,-1.20675 0.93554,-1.585937 0.40628,-0.379188 0.94786,-0.56836 1.625,-0.56836 z m 205.77539,0 c 0.56878,0 1.03072,0.121581 1.38282,0.365235 0.37918,0.216693 0.66391,0.555203 0.85351,1.015625 0.2167,0.43336 0.36408,0.974971 0.44532,1.625 0.0814,0.622967 0.1371,1.355677 0.16406,2.195312 h -5.72852 v -0.853516 c 0,-0.514595 0.04,-1.030301 0.1211,-1.544921 0.10834,-0.514621 0.27158,-0.974611 0.48828,-1.38086 0.21669,-0.43336 0.49948,-0.771845 0.85156,-1.015625 0.37919,-0.270841 0.85308,-0.40625 1.42187,-0.40625 z m 79.67188,0 c 0.56879,0 1.02876,0.121581 1.38086,0.365235 0.37919,0.216693 0.66392,0.555203 0.85352,1.015625 0.21669,0.43336 0.366,0.974971 0.44726,1.625 0.0811,0.622967 0.1349,1.355677 0.16211,2.195312 h -5.72852 v -0.853516 c 0,-0.514595 0.0397,-1.030301 0.1211,-1.544921 0.10834,-0.514621 0.27161,-0.974611 0.48828,-1.38086 0.21669,-0.43336 0.50141,-0.771845 0.85351,-1.015625 0.3792,-0.270841 0.85311,-0.40625 1.42188,-0.40625 z m -130.49609,0.488282 c 1.2459,0 2.04633,0.609302 2.39843,1.828124 0.37919,1.191737 0.56836,2.979811 0.56836,5.363282 0,2.383471 -0.18917,4.183546 -0.56836,5.402344 -0.3521,1.191735 -1.15253,1.787109 -2.39843,1.787109 -1.21883,0 -2.0173,-0.595374 -2.39649,-1.787109 -0.3521,-1.218798 -0.52734,-3.018873 -0.52734,-5.402344 0,-2.383471 0.17524,-4.171545 0.52734,-5.363282 0.37919,-1.218822 1.17766,-1.828124 2.39649,-1.828124 z M 69.927734,34.115234 c -1.375707,-0.01363 -12.382812,0.127006 -12.382812,8.089844 0,8.493732 7.047513,9.017578 11.357422,9.017578 h 14.736328 c 0,0 3.232422,-0.348777 3.232422,1.919922 0,2.26885 -1.574091,2.238281 -3.496094,2.238281 H 56.410156 l -5.474609,7.359375 H 83.375 c 0,0 12.203125,0.350009 12.203125,-8.871093 0,-9.220914 -11.298828,-8.261719 -11.298828,-8.261719 H 68.757812 c 0,0 -2.708984,0.232708 -2.708984,-1.919922 0,-2.152516 2.125068,-2.123047 3.75586,-2.123047 h 19.220703 l 5.621093,-7.445312 H 70.068359 c 0,0 -0.04891,-0.003 -0.140625,-0.0039 z m 510.808596,5.091797 4.875,6.90625 c -0.97507,1.218822 -2.23546,1.830078 -3.7793,1.830078 -0.65003,0 -1.23147,-0.109479 -1.74609,-0.326171 -0.5146,-0.243655 -0.94868,-0.542305 -1.30078,-0.894532 -0.32504,-0.379187 -0.58191,-0.797365 -0.77149,-1.257812 -0.16252,-0.460422 -0.24414,-0.908437 -0.24414,-1.341797 0,-0.893808 0.2031,-1.720141 0.60938,-2.478516 0.43336,-0.758375 1.21986,-1.570779 2.35742,-2.4375 z m -289.42774,1.789063 v 4.304687 c 0,0.595881 -0.10948,1.111562 -0.32617,1.544922 -0.21669,0.433361 -0.50141,0.7858 -0.85351,1.056641 -0.32502,0.270841 -0.68943,0.473942 -1.09571,0.609375 -0.40627,0.108346 -0.79854,0.162109 -1.17773,0.162109 -0.75838,0 -1.30194,-0.298651 -1.62695,-0.894531 -0.32504,-0.595855 -0.48633,-1.312709 -0.48633,-2.152344 0,-0.975068 0.24293,-1.747638 0.73047,-2.316406 0.48753,-0.568794 1.29993,-0.974996 2.4375,-1.21875 0.3521,-0.08139 0.74632,-0.202966 1.17968,-0.365235 0.43336,-0.189732 0.83957,-0.432667 1.21875,-0.730468 z m 81.94532,0 v 4.304687 c 0,0.595881 -0.10948,1.111562 -0.32618,1.544922 -0.21669,0.433361 -0.50141,0.7858 -0.85351,1.056641 -0.32502,0.270841 -0.68943,0.473942 -1.0957,0.609375 -0.40628,0.108346 -0.8005,0.162109 -1.17969,0.162109 -0.75838,0 -1.29999,-0.298651 -1.625,-0.894531 -0.32502,-0.595855 -0.48633,-1.312709 -0.48633,-2.152344 0,-0.975068 0.24293,-1.747638 0.73047,-2.316406 0.48751,-0.568794 1.29994,-0.974996 2.4375,-1.21875 0.3521,-0.08139 0.74437,-0.202966 1.17773,-0.365235 0.43336,-0.189732 0.84152,-0.432667 1.22071,-0.730468 z m -329.685551,4.02539 -5.251953,6.25 h 7.41211 v 4.105469 h -11.1875 c -4.640164,2.790614 -13.337891,1.919922 -13.337891,1.919922 5.358236,6.224844 16.015625,5.410156 16.015625,5.410156 h 11.503906 l 5.707032,-7.330078 h -0.0293 V 45.021484 Z m 52.28125,14.152344 c -0.337716,0.595286 -0.738865,1.124618 -1.193359,1.583984 -0.469417,0.474483 -0.990363,0.881883 -1.537109,1.230469 -1.093493,0.697247 -2.294226,1.162772 -3.408203,1.472657 -1.114017,0.309921 -2.141106,0.463535 -2.890626,0.541015 -0.749518,0.07748 -1.220703,0.07813 -1.220703,0.07813 l -0.02148,0.0078 c -6.020258,14.699867 -20.43437,25.02539 -37.337891,25.02539 -16.905977,0 -31.321513,-10.329934 -37.339843,-25.033203 H 1.9863281 C 8.431065,83.471397 26.717073,97.515625 48.240234,97.515625 c 21.520252,0 39.786677,-14.047024 46.230469,-33.435547 0.533405,-1.604938 1.012784,-3.232826 1.378906,-4.90625 z"
           transform="matrix(0.26458334,0,0,0.26458334,314.3512,156.07011)" />
        <path
           id="path1253"
           style="fill:#008000;stroke:none;stroke-width:0.651942px;stroke-linecap:butt;stroke-linejoin:miter;stroke-opacity:1"
           d="M 48.240234,0 C 27.006584,-3.7795275e-5 8.9430685,13.677417 2.2714844,32.664062 1.6660797,34.387037 1.1859718,36.165739 0.76757812,37.966797 L 5.2109375,32.664062 H 11.224609 C 17.426058,18.372649 31.63163,8.4042969 48.240234,8.4042969 c 16.608605,0 30.813874,9.9683521 37.015625,24.2597651 h 8.953125 C 87.5374,13.677417 69.473922,0 48.240234,0 Z M 35.353516,34.185547 c -3.11141,0.0051 -15.673047,0.738096 -17.546875,12.148437 l 9.060547,-0.04102 c 0,0 0.410452,-4.689453 8.976562,-4.689453 H 55.9375 c -0.01134,-0.100158 -0.02552,-0.07021 -0.0293,-0.183594 -0.02268,-0.382791 -0.01593,-0.838792 0.05664,-1.339844 0.0737,-0.501014 0.213327,-1.048621 0.457031,-1.61914 0.24378,-0.570521 0.591473,-1.162637 1.078125,-1.753907 0.486652,-0.591231 1.113584,-1.180953 1.916016,-1.74414 0.385862,-0.270708 0.95607,-0.507731 1.427734,-0.763672 H 36.050781 c 0,0 -0.252778,-0.0144 -0.697265,-0.01367 z M 6.0566406,34.259766 0,41.648438 h 17.474609 c 1.863723,-5.410395 8.154297,-7.388672 8.154297,-7.388672 z m 28.3085934,9.191406 c 0,0 -2.736985,0.174528 -3.814453,1.076172 0,0 0.145338,3.578125 -3.261719,3.578125 H 1.4882812 l 0.029297,14.601562 h 8.9687498 v -7.271484 h 14.384766 c 0,0 15.492778,0.872557 14.61914,-11.984375 z M 519.30273,60.125 c -0.62195,0 -1.17888,0.09744 -1.66992,0.277344 -0.49103,0.179905 -0.91727,0.426561 -1.27734,0.753906 -0.36019,0.327307 -0.65366,0.737045 -0.88281,1.195312 -0.22904,0.458307 -0.37638,0.964987 -0.47461,1.521485 h 1.76757 c 0.11453,-0.621959 0.35923,-1.144738 0.75196,-1.570313 0.39284,-0.409171 0.9168,-0.623047 1.58789,-0.623046 0.45827,0 0.86918,0.130543 1.21289,0.392578 0.34394,0.261921 0.52344,0.65592 0.52344,1.179687 0,0.40921 -0.0831,0.735691 -0.23047,0.964844 -0.1474,0.245669 -0.34222,0.425679 -0.58789,0.556641 -0.24567,0.130771 -0.52496,0.228836 -0.83594,0.261718 -0.32731,0.04913 -0.65312,0.06641 -0.98047,0.06641 h -0.39453 l -0.29297,1.392579 h 0.49024 c 0.26192,0 0.50764,0.03308 0.76953,0.06445 0.26192,0.04913 0.49107,0.131195 0.6875,0.246094 0.19653,0.114519 0.35938,0.277371 0.49023,0.490234 0.13077,0.212787 0.19727,0.475389 0.19727,0.802734 0,0.736555 -0.22982,1.326379 -0.67188,1.751953 -0.44194,0.425537 -1.02981,0.636719 -1.75,0.636719 -0.65469,0 -1.18016,-0.163324 -1.55664,-0.523437 -0.37644,-0.343559 -0.55664,-0.818234 -0.55664,-1.423829 v -0.228515 c 0,-0.08164 0.0163,-0.163451 0.0352,-0.261719 h -1.76758 c -0.0151,0.130772 -0.0352,0.24586 -0.0352,0.34375 v 0.408203 c 0,1.014803 0.31215,1.817762 0.9668,2.390625 0.63832,0.572901 1.50567,0.851563 2.58594,0.851563 0.62196,0 1.2267,-0.08206 1.7832,-0.246094 0.5565,-0.163654 1.03146,-0.426561 1.45703,-0.753906 0.42554,-0.327307 0.75257,-0.719902 0.99805,-1.210938 0.24567,-0.491036 0.37695,-1.047184 0.37695,-1.685547 0,-0.540132 -0.11338,-1.013916 -0.32617,-1.439453 -0.21279,-0.425575 -0.57389,-0.737171 -1.09766,-0.933593 v -0.03516 c 0.622,-0.147401 1.12868,-0.458181 1.52149,-0.949219 0.39284,-0.490998 0.58984,-1.096217 0.58984,-1.816406 0,-0.491036 -0.0984,-0.917229 -0.29492,-1.277344 -0.19654,-0.360188 -0.44097,-0.653659 -0.75195,-0.882812 -0.32731,-0.229039 -0.68845,-0.393255 -1.09766,-0.507812 C 520.15333,60.190167 519.72831,60.125 519.30273,60.125 Z m -406.18359,0.002 -2.43945,11.685547 h 2.04492 l 1.08203,-5.1875 h 5.13867 l 0.35938,-1.669922 h -5.1543 l 0.63672,-3.060547 h 5.94141 L 121.08984,60.127 Z m 36.79102,0 -0.35938,1.767578 h 1.84961 L 151.75977,60.127 Z m 6.98437,0 -2.42383,11.685547 h 1.86719 L 158.75977,60.127 Z m 6.98242,0 -0.36133,1.767578 h 1.84961 L 165.72656,60.127 Z m 15.47071,0 -0.35938,1.767578 h 1.84961 L 181.19727,60.127 Z m 38.19531,0 -2.42188,11.685547 h 1.96289 l 1.78516,-9.361328 h 0.0332 L 220.375,71.8125 h 1.60547 l 5.28515,-9.361328 h 0.0352 l -2.0293,9.361328 h 1.9629 l 2.40624,-11.685547 h -2.89648 l -5.07422,8.904297 h -0.0332 l -1.27734,-8.904297 z m 154.36523,0 -2.42187,11.685547 h 2.07812 l 1,-4.8125 h 2.4375 c 0.26192,0 0.54085,0.01626 0.80274,0.03516 0.26192,0.01512 0.49034,0.06447 0.70312,0.146485 0.19654,0.08164 0.36134,0.212559 0.49219,0.392578 0.13077,0.196535 0.19531,0.459764 0.19531,0.787109 0,0.425575 -0.0334,0.849854 -0.0976,1.275391 -0.0654,0.425575 -0.0977,0.851807 -0.0977,1.277343 0,0.163655 -10e-4,0.327986 0.0137,0.458985 0.0151,0.147401 0.0498,0.293891 0.11524,0.441406 h 2.14453 c -0.0983,-0.147401 -0.14719,-0.310994 -0.17969,-0.474609 -0.034,-0.163654 -0.0352,-0.326505 -0.0352,-0.490235 -0.0151,-0.392806 0.0151,-0.803681 0.082,-1.21289 0.0654,-0.392807 0.0996,-0.801766 0.0996,-1.210938 0,-0.491036 -0.0981,-0.915315 -0.26171,-1.27539 -0.16366,-0.360189 -0.49139,-0.639516 -0.98243,-0.835938 v -0.0332 c 0.81838,-0.147402 1.4726,-0.47428 1.94727,-0.998047 0.45827,-0.523767 0.70312,-1.244758 0.70312,-2.177734 0,-0.703824 -0.1469,-1.2595 -0.4414,-1.652344 -0.29481,-0.392806 -0.63845,-0.703969 -1.03125,-0.900391 -0.39285,-0.196535 -0.80177,-0.312194 -1.21094,-0.361328 -0.42557,-0.03402 -0.75253,-0.06445 -0.99805,-0.06445 z m 39.23242,0 -0.35937,1.767578 h 1.84961 L 412.99023,60.127 Z m 66.1211,0 -0.93164,4.386719 h -0.0352 c -0.22904,-0.507402 -0.5554,-0.867291 -1.01367,-1.080078 -0.45831,-0.196536 -0.98256,-0.3125 -1.53906,-0.3125 -0.73656,0 -1.39077,0.163592 -1.94727,0.474609 -0.57286,0.311055 -1.04856,0.721114 -1.4414,1.228516 -0.39281,0.523804 -0.70396,1.097263 -0.9004,1.751953 -0.21278,0.654727 -0.31054,1.308635 -0.31054,1.996094 0,0.802015 0.11503,1.424544 0.37695,1.882812 0.24567,0.458306 0.54028,0.817722 0.90039,1.046875 0.36019,0.229039 0.71923,0.375945 1.0957,0.441406 0.3602,0.06539 0.6705,0.09961 0.91602,0.09961 0.491,0 0.96552,-0.09877 1.42383,-0.294922 0.44194,-0.196536 0.85204,-0.556784 1.22851,-1.113281 l 0.0332,0.0332 -0.26172,1.146484 1.78515,-0.002 2.48829,-11.685547 z m 91.00586,0 c -0.85115,0 -1.58851,0.162851 -2.17774,0.490235 -0.60559,0.327307 -1.11301,0.737479 -1.50586,1.228515 -0.40917,0.507364 -0.73572,1.047491 -0.96484,1.636719 -0.22904,0.589228 -0.40884,1.161002 -0.52344,1.701172 -0.13077,0.556497 -0.19796,1.032234 -0.23047,1.441406 -0.034,0.409209 -0.0488,0.669858 -0.0488,0.800781 0,0.720189 0.0655,1.376356 0.21289,1.949219 0.1474,0.572863 0.37574,1.046609 0.70312,1.439453 0.32731,0.392806 0.73674,0.703228 1.24414,0.916016 0.5074,0.212787 1.12942,0.3125 1.84961,0.3125 0.54013,0 1.04803,-0.09971 1.53906,-0.3125 0.49104,-0.212788 0.91727,-0.506372 1.27735,-0.882813 0.36019,-0.376441 0.65444,-0.817992 0.86719,-1.341797 0.21278,-0.507401 0.32617,-1.065067 0.32617,-1.654297 0,-0.507401 -0.0802,-0.981887 -0.21094,-1.423828 -0.1474,-0.425537 -0.3605,-0.801561 -0.63867,-1.128906 -0.29443,-0.311055 -0.63888,-0.556271 -1.06445,-0.736328 -0.42555,-0.179906 -0.89933,-0.279297 -1.43946,-0.279297 -0.49103,0 -0.94942,0.09807 -1.375,0.261719 -0.42554,0.179905 -0.78667,0.458756 -1.09765,0.851562 l -0.0332,-0.0332 c 0.0983,-0.392806 0.2447,-0.817863 0.40821,-1.259765 0.16365,-0.425575 0.37675,-0.835237 0.63867,-1.195313 0.26192,-0.360189 0.57348,-0.655613 0.93359,-0.884765 0.36019,-0.229041 0.78557,-0.343751 1.29297,-0.34375 0.45827,0 0.83382,0.147608 1.0957,0.425781 0.26192,0.294425 0.41016,0.671813 0.41016,1.146484 h 1.86719 c -0.0151,-0.507401 -0.11565,-0.94899 -0.2793,-1.341797 -0.16365,-0.392844 -0.39289,-0.720538 -0.6875,-0.982422 -0.29443,-0.261921 -0.65407,-0.456967 -1.04687,-0.58789 -0.40922,-0.130772 -0.85077,-0.212891 -1.3418,-0.212891 z m 24.27734,0 c -0.85111,0 -1.5885,0.162851 -2.17773,0.490235 -0.60563,0.327307 -1.11306,0.737479 -1.50586,1.228515 -0.40921,0.507364 -0.73569,1.047491 -0.96485,1.636719 -0.22903,0.589228 -0.40888,1.161002 -0.52343,1.701172 -0.13077,0.556497 -0.19797,1.032234 -0.23047,1.441406 -0.034,0.409209 -0.0488,0.669858 -0.0488,0.800781 0,0.720189 0.0655,1.376356 0.21289,1.949219 0.1474,0.572863 0.37773,1.046609 0.70508,1.439453 0.32731,0.392806 0.73478,0.703228 1.24219,0.916016 0.5074,0.212787 1.12945,0.3125 1.84961,0.3125 0.54017,0 1.04806,-0.09971 1.53906,-0.3125 0.49103,-0.212788 0.91727,-0.506372 1.27734,-0.882813 0.36019,-0.376441 0.6544,-0.817992 0.86719,-1.341797 0.21279,-0.507401 0.32812,-1.065067 0.32812,-1.654297 0,-0.507401 -0.0817,-0.981887 -0.21289,-1.423828 -0.1474,-0.425537 -0.36053,-0.801561 -0.63867,-1.128906 -0.29442,-0.311055 -0.63891,-0.556271 -1.06445,-0.736328 -0.42558,-0.179906 -0.89932,-0.279297 -1.43945,-0.279297 -0.49104,0 -0.94947,0.09807 -1.375,0.261719 -0.42558,0.179905 -0.78664,0.458756 -1.09766,0.851562 l -0.0332,-0.0332 c 0.0983,-0.392806 0.24466,-0.817863 0.4082,-1.259765 0.16365,-0.425575 0.37679,-0.835237 0.63867,-1.195313 0.26192,-0.360189 0.57351,-0.655613 0.9336,-0.884765 0.36018,-0.229041 0.78556,-0.343751 1.29296,-0.34375 0.45831,0 0.83382,0.147608 1.09571,0.425781 0.26192,0.294425 0.41015,0.671813 0.41015,1.146484 h 1.86719 c -0.0151,-0.507401 -0.11564,-0.94899 -0.2793,-1.341797 -0.16365,-0.392844 -0.39284,-0.720538 -0.6875,-0.982422 -0.29442,-0.261921 -0.65403,-0.456967 -1.04687,-0.58789 -0.40917,-0.130772 -0.85076,-0.212891 -1.3418,-0.212891 z m -45.46289,0.226563 -6.30078,0.002 -1.88281,6.251953 h 1.65429 c 0.22904,-0.327307 0.52274,-0.571897 0.88282,-0.751953 0.36019,-0.179906 0.77021,-0.279297 1.22851,-0.279297 0.58923,0 1.06372,0.197891 1.42383,0.574219 0.36019,0.376441 0.55664,0.915317 0.55664,1.61914 0,0.376441 -0.0661,0.737109 -0.19726,1.064453 -0.13078,0.327307 -0.32744,0.62167 -0.55665,0.867188 -0.22903,0.245669 -0.50663,0.443258 -0.83398,0.574219 -0.32731,0.147401 -0.67043,0.21289 -1.04687,0.21289 -0.65473,0 -1.13043,-0.164805 -1.44141,-0.492187 -0.31106,-0.327307 -0.47508,-0.801832 -0.50781,-1.423828 h -1.86524 c -0.034,0.589228 0.0486,1.095909 0.22852,1.521484 0.1799,0.425575 0.44215,0.785464 0.76953,1.080078 0.32731,0.294803 0.71943,0.508924 1.17773,0.65625 0.45831,0.147402 0.94937,0.212891 1.50586,0.212891 0.65473,0 1.27675,-0.09909 1.84961,-0.328125 0.5565,-0.212788 1.04904,-0.523172 1.47461,-0.916016 0.40921,-0.392806 0.73569,-0.884909 0.96485,-1.441406 0.22903,-0.556498 0.34375,-1.1934 0.34375,-1.88086 0,-0.47467 -0.0811,-0.916962 -0.22852,-1.326171 -0.16365,-0.409172 -0.37605,-0.769098 -0.6543,-1.080079 -0.27817,-0.294425 -0.62282,-0.541386 -1.01562,-0.705078 -0.39285,-0.163653 -0.83518,-0.261718 -1.32617,-0.261718 -0.39285,0 -0.7688,0.05017 -1.12891,0.148437 -0.36019,0.09827 -0.68707,0.276631 -0.99805,0.505859 l -0.0351,-0.0332 0.85156,-2.701171 h 4.7793 z m 36.41602,0 -6.30078,0.002 -1.88282,6.251953 h 1.6543 c 0.22904,-0.327307 0.5227,-0.571897 0.88281,-0.751953 0.36019,-0.179906 0.77025,-0.279297 1.22852,-0.279297 0.58926,0 1.06371,0.197891 1.42383,0.574219 0.36019,0.376441 0.55664,0.915317 0.55664,1.61914 0,0.376441 -0.0661,0.737109 -0.19727,1.064453 -0.13077,0.327307 -0.32745,0.62167 -0.55664,0.867188 -0.22904,0.245669 -0.50664,0.443258 -0.83398,0.574219 -0.32731,0.147401 -0.67044,0.21289 -1.04688,0.21289 -0.65473,0 -1.13043,-0.164805 -1.4414,-0.492187 -0.31107,-0.327307 -0.47509,-0.801832 -0.50782,-1.423828 h -1.86523 c -0.034,0.589228 0.0486,1.095909 0.22851,1.521484 0.17991,0.425575 0.44214,0.785464 0.76954,1.080078 0.3273,0.294803 0.72141,0.508924 1.17968,0.65625 0.45831,0.147402 0.94936,0.212891 1.50586,0.212891 0.65473,0 1.27675,-0.09909 1.84961,-0.328125 0.55654,-0.212788 1.04712,-0.523172 1.47266,-0.916016 0.40921,-0.392806 0.73569,-0.884909 0.96484,-1.441406 0.22904,-0.556498 0.34375,-1.1934 0.34375,-1.88086 0,-0.47467 -0.0811,-0.916962 -0.22851,-1.326171 -0.16366,-0.409172 -0.37605,-0.769098 -0.6543,-1.080079 -0.27817,-0.294425 -0.62282,-0.541386 -1.01563,-0.705078 -0.39284,-0.163653 -0.83513,-0.261718 -1.32617,-0.261718 -0.39284,0 -0.76879,0.05017 -1.1289,0.148437 -0.36019,0.09827 -0.68703,0.276631 -0.99805,0.505859 l -0.0352,-0.0332 0.85156,-2.701171 h 4.7793 z m -90.6836,0.002 -0.47461,3.4375 h -1.53711 l -0.16406,1.226562 h 1.53906 l -0.29492,2.128907 h -1.55469 L 490.16406,68.375 h 1.53906 l -0.4746,3.4375 h 1.30859 l 0.49219,-3.4375 h 1.79882 l -0.4746,3.4375 h 1.31054 l 0.49024,-3.4375 h 1.55468 l 0.16407,-1.226562 h -1.55469 l 0.29492,-2.128907 h 1.57031 l 0.16407,-1.226562 h -1.57032 l 0.49024,-3.4375 h -1.32617 l -0.47461,3.4375 h -1.81641 l 0.49023,-3.4375 z m 14.85743,0 c -0.19655,0.327307 -0.42562,0.622409 -0.6875,0.851562 -0.26194,0.24567 -0.57305,0.441778 -0.9004,0.605469 -0.3273,0.163654 -0.68676,0.278364 -1.04687,0.34375 -0.37644,0.06539 -0.75442,0.09766 -1.13086,0.09766 l -0.31055,1.472656 c 0.49104,0 0.98236,-0.01481 1.45703,-0.04883 0.47464,-0.03402 0.966,-0.113996 1.45704,-0.228515 l -1.73633,8.363281 h 1.98047 l 2.40625,-11.457031 z m 20.23437,0 -0.35937,1.669922 h 5.82617 c -1.37492,1.407647 -2.56918,2.914019 -3.58399,4.550781 -1.0148,1.6368 -1.80045,3.386741 -2.32422,5.236328 h 2.07813 c 0.1799,-0.687458 0.39241,-1.358982 0.6543,-2.013672 0.24566,-0.654727 0.54101,-1.308902 0.88476,-1.947266 0.42554,-0.78565 0.86713,-1.505466 1.3418,-2.160156 0.4583,-0.654727 0.9006,-1.227714 1.32617,-1.71875 0.40921,-0.491036 0.7691,-0.883592 1.08008,-1.210937 0.31105,-0.311055 0.52407,-0.524115 0.63867,-0.638672 l 0.35937,-1.767578 z m 24.27734,0 -0.35937,1.669922 h 5.82617 c -1.37488,1.407647 -2.56918,2.914019 -3.58398,4.550781 -1.01481,1.6368 -1.80046,3.386741 -2.32422,5.236328 h 2.07812 c 0.17991,-0.687458 0.39242,-1.358982 0.6543,-2.013672 0.24567,-0.654727 0.54104,-1.308902 0.88477,-1.947266 0.42557,-0.78565 0.86712,-1.505466 1.34179,-2.160156 0.45831,-0.654727 0.9006,-1.227714 1.32617,-1.71875 0.40918,-0.491036 0.7691,-0.883592 1.08008,-1.210937 l 0.63867,-0.638672 0.35938,-1.767578 z m -380.94726,0.458984 -0.52344,2.537109 h -1.47266 l -0.29492,1.390626 h 1.47266 l -0.9668,4.632812 c -0.034,0.08202 -0.0476,0.211781 -0.0801,0.408203 -0.034,0.196536 -0.0352,0.377324 -0.0352,0.541016 0,0.196535 0.0161,0.391468 0.0664,0.58789 0.0491,0.196536 0.13057,0.3606 0.26172,0.507813 0.13077,0.147401 0.2941,0.262112 0.52344,0.34375 0.21279,0.09827 0.49027,0.130859 0.83398,0.130859 0.22904,0 0.49129,-0.01481 0.76954,-0.04883 0.26192,-0.03402 0.52401,-0.06547 0.76953,-0.130859 l 0.31054,-1.375 c -0.19653,0.04913 -0.37537,0.08203 -0.53906,0.08203 h -0.45898 c -0.29443,0 -0.47482,-0.04954 -0.55664,-0.164063 -0.0816,-0.114519 -0.11328,-0.2626 -0.11329,-0.458984 0,-0.09827 0.0148,-0.228773 0.0488,-0.392578 0.034,-0.163654 0.0642,-0.326977 0.11328,-0.523438 l 0.86719,-4.140624 h 1.6875 l 0.29297,-1.392579 h -1.68555 l 0.52344,-2.535156 z m 167.76562,0 -0.52343,2.537109 h -1.47461 l -0.29297,1.390626 h 1.47265 L 337.2168,69.375 c -0.034,0.08202 -0.0491,0.211781 -0.082,0.408203 -0.034,0.196536 -0.0332,0.377324 -0.0332,0.541016 0,0.196535 0.0142,0.391468 0.0645,0.58789 0.0491,0.196536 0.13056,0.3606 0.26171,0.507813 0.13078,0.147401 0.29643,0.262112 0.52539,0.34375 0.2128,0.09827 0.49024,0.130859 0.83399,0.130859 0.22904,0 0.49128,-0.01481 0.76953,-0.04883 0.26192,-0.03402 0.52401,-0.06547 0.76953,-0.130859 l 0.31055,-1.375 c -0.19654,0.04913 -0.37537,0.08203 -0.53906,0.08203 h -0.45899 c -0.2948,0 -0.47481,-0.04954 -0.55664,-0.164063 -0.082,-0.114519 -0.11523,-0.2626 -0.11523,-0.458984 0,-0.09827 0.0148,-0.228773 0.0488,-0.392578 0.034,-0.163654 0.0661,-0.326977 0.11524,-0.523438 l 0.86719,-4.140624 h 1.68554 l 0.29493,-1.392579 h -1.68555 l 0.52344,-2.535156 z m 90.72071,0 -0.52344,2.537109 h -1.47461 l -0.29492,1.390626 h 1.47461 L 427.9375,69.375 c -0.034,0.08202 -0.0495,0.211781 -0.082,0.408203 -0.034,0.196536 -0.0332,0.377324 -0.0332,0.541016 0,0.196535 0.0142,0.391468 0.0645,0.58789 0.0491,0.196536 0.13057,0.3606 0.26172,0.507813 0.13077,0.147401 0.29605,0.262112 0.52539,0.34375 0.21279,0.09827 0.49027,0.130859 0.83398,0.130859 0.22904,0 0.49128,-0.01481 0.76953,-0.04883 0.26193,-0.03402 0.52401,-0.06547 0.76954,-0.130859 l 0.31054,-1.375 c -0.19653,0.04913 -0.37537,0.08203 -0.53906,0.08203 h -0.45898 c -0.29482,0 -0.47482,-0.04954 -0.55665,-0.164063 -0.082,-0.114519 -0.11523,-0.2626 -0.11523,-0.458984 0,-0.09827 0.0148,-0.228773 0.0488,-0.392578 0.034,-0.163654 0.0661,-0.326977 0.11523,-0.523438 l 0.86719,-4.140624 h 1.68555 l 0.29492,-1.392579 h -1.6836 l 0.52344,-2.535156 z m -56.07813,0.982422 h 2.86328 c 0.26192,0 0.52523,0.03308 0.78711,0.06445 0.24567,0.03402 0.4735,0.114623 0.66992,0.212891 0.19654,0.114519 0.34424,0.278111 0.45899,0.474609 0.11452,0.196536 0.17969,0.458552 0.17969,0.769531 0,0.687459 -0.24501,1.227815 -0.70313,1.587891 -0.47467,0.360189 -1.14619,0.539063 -2.01367,0.539062 h -2.9961 z m -245.29297,1.324219 c -0.5074,0 -0.98388,0.05017 -1.42578,0.148437 -0.44194,0.09827 -0.83402,0.245608 -1.17773,0.47461 -0.36019,0.229039 -0.65366,0.507112 -0.88282,0.867187 -0.24566,0.360189 -0.40962,0.78678 -0.50781,1.310547 h 1.76758 c 0.13077,-0.523767 0.37672,-0.868771 0.76953,-1.048828 0.37644,-0.179906 0.81803,-0.277344 1.3418,-0.277344 0.37644,0 0.70342,0.08174 0.99805,0.212891 0.27817,0.130771 0.42578,0.407975 0.42578,0.800781 0,0.327307 -0.0824,0.590725 -0.2461,0.787109 -0.16365,0.196536 -0.40894,0.30992 -0.73633,0.326172 -0.31105,0.03402 -0.62261,0.04953 -0.93359,0.08203 -0.31105,0.03401 -0.62066,0.0482 -0.93164,0.06445 -0.47467,0.03401 -0.91622,0.114623 -1.3418,0.21289 -0.42557,0.11452 -0.80347,0.278584 -1.13086,0.507813 -0.3273,0.229039 -0.58873,0.52469 -0.78515,0.884765 -0.19654,0.360189 -0.29492,0.784827 -0.29492,1.308594 0,0.376441 0.0655,0.704173 0.21289,0.982422 0.13077,0.294425 0.32861,0.523068 0.57422,0.703125 0.24566,0.196535 0.52226,0.327551 0.8496,0.425781 0.31106,0.09827 0.63794,0.148438 0.99805,0.148438 0.52377,0 1.03166,-0.08144 1.53906,-0.261719 0.49104,-0.163654 0.93411,-0.441881 1.31055,-0.818359 0.0151,0.327307 0.13096,0.588734 0.34375,0.785156 0.19654,0.196535 0.45781,0.294922 0.78516,0.294922 0.24567,0 0.4908,-0.01614 0.73633,-0.06641 0.22903,-0.04913 0.47518,-0.09868 0.7207,-0.164062 l 0.29297,-1.341797 c -0.11452,0.01512 -0.22791,0.03504 -0.32617,0.06641 -0.11453,0.03402 -0.22986,0.0332 -0.32813,0.0332 -0.16365,0 -0.26141,-0.0334 -0.31055,-0.09766 -0.0654,-0.06539 -0.082,-0.148525 -0.082,-0.279297 0,-0.114519 0.0148,-0.245403 0.0488,-0.392578 0.034,-0.130771 0.0827,-0.277677 0.11523,-0.441406 v -0.002 l 0.6211,-2.994141 c 0.0983,-0.491036 0.16406,-0.917268 0.16406,-1.277343 0,-0.147403 -0.0331,-0.327451 -0.0644,-0.556641 -0.0491,-0.229039 -0.18042,-0.44151 -0.37696,-0.654297 -0.19653,-0.196535 -0.52364,-0.376111 -0.94921,-0.523438 -0.42554,-0.147401 -1.03029,-0.230468 -1.78321,-0.230468 z m 12.20313,0 c -0.75288,0 -1.44007,0.147608 -2.0293,0.425781 -0.58927,0.294803 -1.09669,0.671073 -1.50586,1.162109 -0.42557,0.490999 -0.73643,1.047223 -0.94922,1.685547 -0.22904,0.654728 -0.32812,1.325474 -0.32812,2.029297 0,0.540132 0.0649,1.032668 0.22851,1.47461 0.1474,0.44194 0.36171,0.817186 0.65625,1.144531 0.29481,0.327307 0.65451,0.572674 1.08008,0.736328 0.42554,0.179905 0.91612,0.263672 1.47266,0.263672 1.11299,0 2.02985,-0.246655 2.75,-0.753907 0.72019,-0.491036 1.2437,-1.292041 1.55469,-2.388671 h -1.86524 c -0.16365,0.523767 -0.40942,0.931948 -0.76953,1.226562 -0.36019,0.294425 -0.80288,0.441406 -1.35938,0.441406 -0.36018,0 -0.65366,-0.04759 -0.88281,-0.162109 -0.24567,-0.11452 -0.44255,-0.27815 -0.58984,-0.474609 -0.1474,-0.196536 -0.24516,-0.425617 -0.31055,-0.6875 -0.0654,-0.261922 -0.0996,-0.557383 -0.0996,-0.884766 0,-0.392806 0.0495,-0.817863 0.16406,-1.259766 0.11452,-0.44194 0.2941,-0.852074 0.52344,-1.228515 0.22904,-0.360189 0.50907,-0.670498 0.86914,-0.916016 0.34356,-0.229039 0.75189,-0.361328 1.22656,-0.361328 0.50742,0 0.91754,0.132459 1.22852,0.394531 0.31106,0.261922 0.45777,0.638343 0.44141,1.16211 h 1.86523 c 0,-0.490999 -0.0805,-0.917703 -0.24414,-1.310547 -0.16365,-0.376441 -0.40972,-0.687336 -0.7207,-0.949219 -0.31106,-0.245669 -0.67091,-0.441305 -1.08008,-0.572266 -0.42558,-0.130771 -0.86787,-0.197265 -1.32617,-0.197265 z m 48.41406,0 c -0.75292,0 -1.42444,0.16437 -2.01367,0.458984 -0.58923,0.294425 -1.07981,0.686698 -1.47266,1.177734 -0.3928,0.491038 -0.704,1.047926 -0.90039,1.669922 -0.21279,0.621959 -0.31055,1.261326 -0.31055,1.916016 0,0.589228 0.0808,1.096381 0.27735,1.554688 0.1799,0.458305 0.44218,0.834726 0.76953,1.162109 0.32731,0.327307 0.7038,0.572637 1.16211,0.736328 0.4583,0.163654 0.9501,0.246094 1.49023,0.246094 1.01481,0 1.86649,-0.21357 2.57032,-0.671875 0.70382,-0.458306 1.20929,-1.179335 1.5039,-2.177735 h -0.002 -1.86524 c -0.13077,0.458306 -0.37621,0.802098 -0.73632,1.03125 -0.36019,0.22904 -0.80194,0.34375 -1.29297,0.34375 -0.72015,0 -1.22805,-0.178835 -1.53906,-0.539062 -0.32732,-0.360189 -0.47461,-0.8346 -0.47461,-1.423828 V 68.34375 c 0,-0.08164 -8.2e-4,-0.181029 0.0332,-0.279297 h 6.30273 c 0.0151,-0.130772 0.0331,-0.294742 0.0645,-0.474609 0.0151,-0.163654 0.0352,-0.359592 0.0352,-0.572266 0,-0.409209 -0.0502,-0.852241 -0.14843,-1.310547 -0.0983,-0.458267 -0.2616,-0.866921 -0.52344,-1.259765 -0.26192,-0.376441 -0.6374,-0.687336 -1.09571,-0.949219 -0.47467,-0.245669 -1.08106,-0.376953 -1.83398,-0.376953 z m 11.54687,0 c -0.4419,0 -0.86813,0.05017 -1.27734,0.148437 -0.42554,0.09827 -0.78398,0.2626 -1.11133,0.458985 -0.3273,0.212787 -0.60631,0.473436 -0.80273,0.800781 -0.19654,0.327307 -0.29492,0.721382 -0.29492,1.179687 0,0.327307 0.0502,0.589207 0.14843,0.81836 0.0983,0.229039 0.22804,0.441815 0.40821,0.605468 0.16365,0.163655 0.3608,0.311262 0.58984,0.425782 0.22904,0.130771 0.45882,0.228531 0.7207,0.310547 0.29481,0.114519 0.58941,0.213284 0.9004,0.294921 0.31105,0.08202 0.58846,0.179077 0.83398,0.277344 0.24567,0.11452 0.44178,0.246182 0.60547,0.376953 0.16365,0.147402 0.24609,0.326238 0.24609,0.539063 0,0.245669 -0.0652,0.441815 -0.17969,0.605469 -0.11452,0.163653 -0.26212,0.279312 -0.42578,0.361328 -0.1799,0.09827 -0.37779,0.16243 -0.57422,0.195312 -0.21278,0.03402 -0.40908,0.04883 -0.60546,0.04883 -0.27818,0 -0.5228,-0.01356 -0.75196,-0.08008 -0.22904,-0.04913 -0.44177,-0.131196 -0.60547,-0.246093 -0.16365,-0.114521 -0.29419,-0.262638 -0.39257,-0.458985 -0.0983,-0.196535 -0.13149,-0.425616 -0.11524,-0.6875 h -1.76758 c 0,0.589228 0.0988,1.064928 0.29493,1.441406 0.1799,0.376441 0.42457,0.671238 0.75195,0.900391 0.31105,0.229039 0.6877,0.376379 1.11328,0.474609 0.42557,0.09827 0.88396,0.13086 1.375,0.13086 0.45827,0 0.90107,-0.05017 1.35937,-0.148438 0.45831,-0.09827 0.85083,-0.278584 1.21094,-0.507812 0.34356,-0.22904 0.62241,-0.507112 0.85156,-0.867188 0.21279,-0.343559 0.32618,-0.768729 0.32618,-1.259765 0,-0.327307 -0.0658,-0.606045 -0.16407,-0.851563 -0.11452,-0.245669 -0.26138,-0.458615 -0.4414,-0.638672 -0.17991,-0.163653 -0.39194,-0.310521 -0.6211,-0.441406 -0.24567,-0.11452 -0.49276,-0.227904 -0.73828,-0.326172 -0.29442,-0.09827 -0.58816,-0.197659 -0.88281,-0.279297 -0.29443,-0.08164 -0.57358,-0.163451 -0.80273,-0.261718 -0.24567,-0.09827 -0.44057,-0.197353 -0.58789,-0.328126 -0.14742,-0.114519 -0.2129,-0.278111 -0.2129,-0.474609 0,-0.196535 0.0328,-0.374899 0.11329,-0.505859 0.0816,-0.130772 0.19735,-0.246487 0.32812,-0.328125 0.13077,-0.08164 0.29547,-0.147184 0.45899,-0.179688 0.16365,-0.03401 0.34248,-0.04883 0.53906,-0.04883 0.49103,0 0.89991,0.09681 1.21094,0.292969 0.31105,0.196535 0.47582,0.508019 0.49218,0.933594 h 1.76758 c 0,-0.523767 -0.0824,-0.948519 -0.24609,-1.308594 -0.16366,-0.343559 -0.40851,-0.62315 -0.70313,-0.835938 -0.29442,-0.196535 -0.65598,-0.343765 -1.04883,-0.425781 -0.40917,-0.08164 -0.83465,-0.130859 -1.29297,-0.130859 z m 37.07227,0 c -0.5074,0 -0.98388,0.05017 -1.42578,0.148437 -0.44194,0.09827 -0.83402,0.245608 -1.17773,0.47461 -0.3602,0.229039 -0.65366,0.507112 -0.88282,0.867187 -0.24567,0.360189 -0.40958,0.78678 -0.50781,1.310547 h 1.76758 c 0.13077,-0.523767 0.37669,-0.868771 0.76953,-1.048828 0.37644,-0.179906 0.81803,-0.277344 1.3418,-0.277344 0.37644,0 0.70339,0.08174 0.99804,0.212891 0.27818,0.130771 0.42578,0.407975 0.42578,0.800781 0,0.327307 -0.0824,0.590725 -0.24609,0.787109 -0.16365,0.196536 -0.40898,0.30992 -0.73633,0.326172 -0.31105,0.03402 -0.62261,0.04953 -0.93359,0.08203 -0.31106,0.03401 -0.62066,0.0482 -0.93164,0.06445 -0.47467,0.03401 -0.91626,0.114623 -1.3418,0.21289 -0.42557,0.11452 -0.80348,0.278584 -1.13086,0.507813 -0.32731,0.229039 -0.58873,0.52469 -0.78515,0.884765 -0.19654,0.360189 -0.29493,0.784827 -0.29493,1.308594 0,0.376441 0.0655,0.704173 0.21289,0.982422 0.13078,0.294425 0.32867,0.523068 0.57422,0.703125 0.24567,0.196535 0.52223,0.327551 0.84961,0.425781 0.31106,0.09827 0.63989,0.148438 1,0.148438 0.52377,0 1.02971,-0.08144 1.53711,-0.261719 0.49104,-0.163654 0.93407,-0.441881 1.31055,-0.818359 0.0151,0.327307 0.13096,0.588734 0.34375,0.785156 0.19653,0.196535 0.4578,0.294922 0.78516,0.294922 0.24566,0 0.49081,-0.01614 0.73632,-0.06641 0.22904,-0.04913 0.47519,-0.09868 0.72071,-0.164062 l 0.29297,-1.341797 c -0.11453,0.01512 -0.22791,0.03504 -0.32618,0.06641 -0.11452,0.03402 -0.22985,0.0332 -0.32812,0.0332 -0.16366,0 -0.26141,-0.0334 -0.31055,-0.09766 -0.0654,-0.06539 -0.082,-0.148525 -0.082,-0.279297 0,-0.114519 0.0148,-0.245403 0.0488,-0.392578 0.034,-0.130771 0.0827,-0.277677 0.11523,-0.441406 v -0.002 l 0.62305,-2.994141 c 0.0983,-0.491036 0.16211,-0.917268 0.16211,-1.277343 0,-0.147403 -0.0331,-0.327451 -0.0644,-0.556641 -0.0491,-0.229039 -0.18042,-0.44151 -0.37696,-0.654297 -0.19653,-0.196535 -0.52364,-0.376111 -0.94922,-0.523438 -0.42557,-0.147401 -1.03028,-0.230468 -1.7832,-0.230468 z m 13.18164,0 c -0.58923,0 -1.14494,0.132459 -1.65234,0.394531 -0.5074,0.261921 -0.93242,0.637398 -1.25977,1.095703 l -0.0351,-0.0332 0.26171,-1.228516 -1.74609,0.002 -1.75195,8.460938 h 1.86523 l 0.95117,-4.582031 c 0.0654,-0.343559 0.17815,-0.670702 0.3418,-0.998047 0.16365,-0.327307 0.34492,-0.589244 0.57422,-0.81836 0.22904,-0.229039 0.47492,-0.410527 0.76953,-0.574218 0.29443,-0.163654 0.62161,-0.246094 0.99805,-0.246094 0.3273,0 0.58947,0.05017 0.76953,0.148438 0.1799,0.09827 0.31079,0.228225 0.39258,0.359374 0.0654,0.130773 0.11328,0.279121 0.11328,0.410157 0,0.131149 0.0156,0.229158 0.0156,0.294922 0,0.130771 -0.0148,0.246181 -0.0488,0.376953 -0.034,0.130771 -0.0491,0.277167 -0.082,0.408203 l -1.08007,5.220703 h 1.86523 l 1.13086,-5.400391 c 0.034,-0.147401 0.0482,-0.326977 0.0644,-0.523437 0,-0.196536 0.0156,-0.35986 0.0156,-0.523438 0,-0.687458 -0.21266,-1.229461 -0.60547,-1.638672 -0.39285,-0.392806 -1.01604,-0.605468 -1.86719,-0.605468 z m 11.38867,0 c -0.5074,0 -0.98192,0.05017 -1.42382,0.148437 -0.44196,0.09827 -0.83399,0.245608 -1.17774,0.47461 -0.36019,0.229039 -0.65561,0.507112 -0.88476,0.867187 -0.24568,0.360189 -0.40767,0.78678 -0.50586,1.310547 h 1.76757 c 0.13078,-0.523767 0.37669,-0.868771 0.76953,-1.048828 0.37646,-0.179906 0.81803,-0.277344 1.3418,-0.277344 0.37644,0 0.70343,0.08174 0.99805,0.212891 0.27817,0.130771 0.42578,0.407975 0.42578,0.800781 0,0.327307 -0.0821,0.590725 -0.24609,0.787109 -0.16366,0.196536 -0.40899,0.30992 -0.73633,0.326172 -0.31106,0.03402 -0.62262,0.04953 -0.9336,0.08203 -0.31105,0.03401 -0.62062,0.0482 -0.93164,0.06445 -0.47467,0.03401 -0.91817,0.114623 -1.34375,0.21289 -0.42557,0.11452 -0.80156,0.278584 -1.1289,0.507813 -0.32731,0.229039 -0.58877,0.52469 -0.78516,0.884765 -0.19653,0.360189 -0.29492,0.784827 -0.29492,1.308594 0,0.376441 0.0655,0.704173 0.21289,0.982422 0.13077,0.294425 0.32671,0.523068 0.57227,0.703125 0.24566,0.196535 0.52421,0.327551 0.85156,0.425781 0.31105,0.09827 0.63797,0.148438 0.99804,0.148438 0.52378,0 1.03167,-0.08144 1.53907,-0.261719 0.49103,-0.163654 0.93215,-0.441881 1.30859,-0.818359 0.0151,0.327307 0.13096,0.588734 0.34375,0.785156 0.19654,0.196535 0.45977,0.294922 0.78711,0.294922 0.24567,0 0.49081,-0.01614 0.73633,-0.06641 0.22904,-0.04913 0.47323,-0.09868 0.71875,-0.164062 l 0.29492,-1.341797 c -0.11452,0.01512 -0.2279,0.03504 -0.32617,0.06641 -0.11452,0.03402 -0.22986,0.0332 -0.32813,0.0332 -0.16365,0 -0.26141,-0.0334 -0.31054,-0.09766 -0.0654,-0.06539 -0.082,-0.148525 -0.082,-0.279297 0,-0.114519 0.0148,-0.245403 0.0488,-0.392578 0.034,-0.130771 0.0827,-0.277677 0.11524,-0.441406 v -0.002 l 0.62109,-2.994141 c 0.0983,-0.491036 0.16406,-0.917268 0.16406,-1.277343 0,-0.147403 -0.0331,-0.327451 -0.0645,-0.556641 -0.0491,-0.229039 -0.18042,-0.44151 -0.37695,-0.654297 -0.19654,-0.196535 -0.52365,-0.376111 -0.94922,-0.523438 -0.42554,-0.147401 -1.03224,-0.230468 -1.78516,-0.230468 z m 11.87696,0 c -0.72019,0 -1.34268,0.164332 -1.88282,0.458984 -0.55649,0.311055 -1.01492,0.704314 -1.375,1.195313 -0.36019,0.491036 -0.63756,1.063586 -0.83398,1.685547 -0.19654,0.621959 -0.2793,1.260853 -0.2793,1.882812 0,1.080302 0.27859,1.91515 0.85156,2.537109 0.55651,0.621997 1.37556,0.931641 2.43946,0.931641 0.49103,0 0.94821,-0.09713 1.35742,-0.326172 0.39281,-0.212787 0.73664,-0.523644 1.03125,-0.949219 l 0.0352,0.0332 -0.18164,0.833985 c -0.0816,0.360189 -0.16346,0.672183 -0.26172,0.966797 -0.0983,0.294803 -0.24588,0.539906 -0.42578,0.736328 -0.17991,0.212787 -0.408,0.375639 -0.66993,0.490234 -0.27817,0.130772 -0.62204,0.181641 -1.03125,0.181641 -0.54013,0 -0.99926,-0.09839 -1.35937,-0.294922 -0.36019,-0.196535 -0.5559,-0.524589 -0.57227,-1.015625 h -1.86523 c 0,0.491036 0.11401,0.916055 0.31055,1.259766 0.19653,0.343559 0.47535,0.62315 0.80273,0.835937 0.32731,0.212788 0.72017,0.358915 1.16211,0.457031 0.42557,0.09827 0.88275,0.148438 1.35742,0.148438 0.65469,0 1.22846,-0.06612 1.70313,-0.197266 0.47467,-0.130771 0.88359,-0.326441 1.21093,-0.621094 0.32731,-0.278173 0.60558,-0.654975 0.81836,-1.113281 0.21279,-0.458305 0.39178,-0.999607 0.53907,-1.654297 l 1.78515,-8.232422 h -1.76758 l -0.24609,1.40625 h -0.0332 c -0.22904,-0.589228 -0.57299,-0.997882 -1.03125,-1.259765 -0.45831,-0.245669 -0.9823,-0.376953 -1.58789,-0.376953 z m 12.92773,0 c -0.75292,0 -1.42441,0.16437 -2.01367,0.458984 -0.58923,0.294425 -1.07985,0.686698 -1.47266,1.177734 -0.39284,0.491038 -0.70397,1.047926 -0.90039,1.669922 -0.21279,0.621959 -0.31055,1.261326 -0.31055,1.916016 0,0.589228 0.0812,1.096381 0.27735,1.554688 0.1799,0.458305 0.44219,0.834726 0.76953,1.162109 0.32731,0.327307 0.7038,0.572637 1.16211,0.736328 0.45827,0.163654 0.95006,0.246094 1.49023,0.246094 1.01477,0 1.86454,-0.21357 2.56836,-0.671875 0.70379,-0.458306 1.21125,-1.179335 1.50586,-2.177735 h -0.002 -1.86523 c -0.13079,0.458306 -0.37622,0.802098 -0.73633,1.03125 -0.36019,0.22904 -0.80194,0.34375 -1.29297,0.34375 -0.72019,0 -1.22808,-0.178835 -1.53906,-0.539062 -0.32731,-0.360189 -0.47461,-0.8346 -0.47461,-1.423828 V 68.34375 c 0,-0.08164 -8.2e-4,-0.181029 0.0332,-0.279297 h 6.30273 c 0.0151,-0.130772 0.0331,-0.294742 0.0645,-0.474609 0.0151,-0.163654 0.0352,-0.359592 0.0352,-0.572266 0,-0.409209 -0.0502,-0.852241 -0.14843,-1.310547 -0.0983,-0.458267 -0.2616,-0.866921 -0.52344,-1.259765 -0.26192,-0.376441 -0.63935,-0.687336 -1.09766,-0.949219 -0.47463,-0.245669 -1.07911,-0.376953 -1.83203,-0.376953 z m 13.38086,0 c -0.58923,0 -1.14568,0.130505 -1.63672,0.392578 -0.49103,0.261921 -0.91801,0.622513 -1.26172,1.064453 l -0.0332,-0.0332 0.24609,-1.195313 -1.76758,0.002 -1.75195,8.460938 h 1.86719 l 1.01367,-4.892578 c 0.0654,-0.327307 0.21374,-0.63898 0.41016,-0.933594 0.19653,-0.294803 0.37584,-0.524281 0.57226,-0.720703 0.17991,-0.179906 0.39242,-0.343498 0.6543,-0.474609 0.26192,-0.130772 0.57352,-0.197266 0.93359,-0.197266 0.39285,0 0.65545,0.115965 0.80274,0.3125 0.1474,0.212787 0.22851,0.458079 0.22851,0.736328 0,0.261921 -0.0334,0.523273 -0.0976,0.785156 -0.0654,0.278174 -0.11556,0.523541 -0.14844,0.736328 l -0.96484,4.648438 h 1.86523 l 1.03125,-4.943359 c 0.034,-0.22904 0.11494,-0.49007 0.24609,-0.751953 0.13078,-0.261923 0.29401,-0.507176 0.49024,-0.736329 0.19653,-0.229039 0.44245,-0.409352 0.7207,-0.55664 0.27818,-0.147402 0.60477,-0.228516 0.96485,-0.228516 0.22903,0 0.42615,0.0479 0.58984,0.113281 0.1474,0.06539 0.26306,0.164778 0.36133,0.279297 0.082,0.11452 0.12922,0.244229 0.16211,0.375 0.034,0.147402 0.0508,0.295845 0.0508,0.44336 -0.0151,0.212787 -0.0491,0.407834 -0.082,0.58789 -0.034,0.179906 -0.0658,0.312039 -0.082,0.410157 l -1.04883,5.007812 h 1.86719 l 1.08007,-5.400391 c 0.034,-0.147401 0.0491,-0.326977 0.082,-0.523437 0.034,-0.196536 0.0488,-0.361813 0.0488,-0.525391 0,-0.687458 -0.19715,-1.227508 -0.58984,-1.636719 -0.39285,-0.392806 -0.99803,-0.605468 -1.81641,-0.605468 -0.58926,0 -1.11326,0.147608 -1.58789,0.425781 -0.47467,0.294803 -0.89891,0.654503 -1.27539,1.080078 -0.0654,-0.261921 -0.14852,-0.506703 -0.2793,-0.703125 -0.13077,-0.196535 -0.29366,-0.344238 -0.49023,-0.458984 -0.19654,-0.11452 -0.40952,-0.196333 -0.63867,-0.261719 -0.22904,-0.04913 -0.47445,-0.08203 -0.73633,-0.08203 z m 16.34766,0 c -0.75292,0 -1.42441,0.16437 -2.01368,0.458984 -0.58922,0.294425 -1.07985,0.686698 -1.47265,1.177734 -0.39285,0.491038 -0.70397,1.047926 -0.90039,1.669922 -0.21279,0.621959 -0.3125,1.261326 -0.3125,1.916016 0,0.589228 0.0831,1.096381 0.27929,1.554688 0.17991,0.458305 0.44219,0.834726 0.76954,1.162109 0.3273,0.327307 0.7038,0.572637 1.1621,0.736328 0.45828,0.163654 0.94815,0.246094 1.48829,0.246094 1.0148,0 1.86652,-0.21357 2.57031,-0.671875 0.70382,-0.458306 1.21124,-1.179335 1.50586,-2.177735 h -0.002 -1.86523 c -0.13077,0.458306 -0.37817,0.802098 -0.73828,1.03125 -0.36019,0.22904 -0.80193,0.34375 -1.29297,0.34375 -0.72019,0 -1.22613,-0.178835 -1.53711,-0.539062 -0.32731,-0.360189 -0.47461,-0.8346 -0.47461,-1.423828 V 68.34375 c 0,-0.08164 -8.1e-4,-0.181029 0.0332,-0.279297 h 6.30079 c 0.0151,-0.130772 0.035,-0.294742 0.0664,-0.474609 0.0151,-0.163654 0.0332,-0.359592 0.0332,-0.572266 0,-0.409209 -0.0482,-0.852241 -0.14649,-1.310547 -0.0983,-0.458267 -0.26159,-0.866921 -0.52344,-1.259765 -0.26192,-0.376441 -0.63935,-0.687336 -1.09765,-0.949219 -0.47467,-0.245669 -1.07911,-0.376953 -1.83203,-0.376953 z m 13.26171,0 c -0.58922,0 -1.14494,0.132459 -1.65234,0.394531 -0.5074,0.261921 -0.93242,0.637398 -1.25976,1.095703 l -0.0352,-0.0332 0.26172,-1.228516 -1.7461,0.002 -1.75195,8.460938 h 1.86524 l 0.94921,-4.582031 c 0.0654,-0.343559 0.1801,-0.670702 0.34375,-0.998047 0.16366,-0.327307 0.34526,-0.589244 0.57422,-0.81836 0.22904,-0.229039 0.47293,-0.410527 0.76758,-0.574218 0.2948,-0.163654 0.62352,-0.246094 1,-0.246094 0.32731,0 0.58948,0.05017 0.76953,0.148438 0.17991,0.09827 0.31083,0.228225 0.39258,0.359374 0.0654,0.130773 0.11328,0.279121 0.11328,0.410157 0,0.131149 0.0156,0.229158 0.0156,0.294922 0,0.130771 -0.0148,0.246181 -0.0488,0.376953 -0.034,0.130771 -0.0495,0.277167 -0.082,0.408203 l -1.08008,5.220703 h 1.86523 l 1.13086,-5.400391 c 0.034,-0.147401 0.0482,-0.326977 0.0645,-0.523437 0,-0.196536 0.0156,-0.35986 0.0156,-0.523438 0,-0.687458 -0.21266,-1.229461 -0.60547,-1.638672 -0.39284,-0.392806 -1.01603,-0.605468 -1.86719,-0.605468 z m 58.94141,0 c -0.75292,0 -1.4244,0.16437 -2.01367,0.458984 -0.58923,0.294425 -1.07985,0.686698 -1.47266,1.177734 -0.39284,0.491038 -0.70397,1.047926 -0.90039,1.669922 -0.21278,0.621959 -0.31054,1.261326 -0.31054,1.916016 0,0.589228 0.0831,1.096381 0.27929,1.554688 0.17991,0.458305 0.44024,0.834726 0.76758,1.162109 0.32731,0.327307 0.7038,0.572637 1.16211,0.736328 0.45827,0.163654 0.9501,0.246094 1.49023,0.246094 1.01481,0 1.86653,-0.21357 2.57032,-0.671875 0.70382,-0.458306 1.21124,-1.179335 1.50586,-2.177735 h -0.002 -1.86718 c -0.13078,0.458306 -0.37622,0.802098 -0.73633,1.03125 -0.36019,0.22904 -0.80194,0.34375 -1.29297,0.34375 -0.72019,0 -1.22808,-0.178835 -1.53906,-0.539062 -0.32731,-0.360189 -0.47461,-0.8346 -0.47461,-1.423828 V 68.34375 c 0,-0.08164 10e-4,-0.181029 0.0352,-0.279297 h 6.30078 c 0.0151,-0.130772 0.035,-0.294742 0.0664,-0.474609 0.0151,-0.163654 0.0332,-0.359592 0.0332,-0.572266 0,-0.409209 -0.0482,-0.852241 -0.14648,-1.310547 -0.0983,-0.458267 -0.26355,-0.866921 -0.52539,-1.259765 -0.26192,-0.376441 -0.6374,-0.687336 -1.0957,-0.949219 -0.47464,-0.245669 -1.08107,-0.376953 -1.83399,-0.376953 z m 11.95508,0 c -0.72015,0 -1.34268,0.164332 -1.88281,0.458984 -0.5565,0.311055 -1.01493,0.704314 -1.375,1.195313 -0.36019,0.491036 -0.63757,1.063586 -0.83399,1.685547 -0.19653,0.621959 -0.27734,1.260853 -0.27734,1.882812 0,1.080302 0.27663,1.91515 0.84961,2.537109 0.5565,0.621997 1.37555,0.931641 2.43945,0.931641 0.49104,0 0.9502,-0.09713 1.35938,-0.326172 0.39284,-0.212787 0.73663,-0.523644 1.03125,-0.949219 l 0.0332,0.0332 -0.17969,0.833985 c -0.082,0.360189 -0.16345,0.672183 -0.26172,0.966797 -0.0983,0.294803 -0.24587,0.539906 -0.42578,0.736328 -0.1799,0.212787 -0.40999,0.375639 -0.67187,0.490234 -0.27818,0.130772 -0.62208,0.181641 -1.03125,0.181641 -0.54017,0 -0.9973,-0.09839 -1.35743,-0.294922 -0.36018,-0.196535 -0.5559,-0.524589 -0.57226,-1.015625 h -1.86719 c 0,0.491036 0.11401,0.916055 0.31055,1.259766 0.19653,0.343559 0.47539,0.62315 0.80273,0.835937 0.32731,0.212788 0.72017,0.358915 1.16211,0.457031 0.42554,0.09827 0.88471,0.148438 1.35938,0.148438 0.65469,0 1.2265,-0.06612 1.70117,-0.197266 0.47463,-0.130771 0.88359,-0.326441 1.21094,-0.621094 0.3273,-0.278173 0.60561,-0.654975 0.81836,-1.113281 0.21278,-0.458305 0.39369,-0.999607 0.54101,-1.654297 l 1.7832,-8.232422 h -1.76757 l -0.2461,1.40625 h -0.0332 c -0.22904,-0.589228 -0.57298,-0.997882 -1.03125,-1.259765 -0.45831,-0.245669 -0.98226,-0.376953 -1.58789,-0.376953 z m 19.32031,0 c -0.44194,0 -0.86817,0.05017 -1.27734,0.148437 -0.42558,0.09827 -0.78594,0.2626 -1.11328,0.458985 -0.32731,0.212787 -0.60436,0.473436 -0.80078,0.800781 -0.19654,0.327307 -0.29493,0.721382 -0.29493,1.179687 0,0.327307 0.0482,0.589207 0.14649,0.81836 0.0983,0.229039 0.22998,0.441815 0.41015,0.605468 0.16366,0.163655 0.35886,0.311262 0.58789,0.425782 0.22905,0.130771 0.45882,0.228531 0.72071,0.310547 0.2948,0.114519 0.58937,0.213284 0.90039,0.294921 0.31105,0.08202 0.58847,0.179077 0.83398,0.277344 0.24567,0.11452 0.44182,0.246182 0.60547,0.376953 0.16366,0.147402 0.2461,0.326238 0.2461,0.539063 0,0.245669 -0.0652,0.441815 -0.17969,0.605469 -0.11452,0.163653 -0.26213,0.279312 -0.42578,0.361328 -0.17991,0.09827 -0.37585,0.16243 -0.57227,0.195312 -0.21279,0.03402 -0.40905,0.04883 -0.60547,0.04883 -0.27817,0 -0.52475,-0.01356 -0.7539,-0.08008 -0.22904,-0.04913 -0.44178,-0.131196 -0.60547,-0.246093 -0.16366,-0.114521 -0.29454,-0.262638 -0.39258,-0.458985 -0.0983,-0.196535 -0.1315,-0.425616 -0.11523,-0.6875 h -1.76758 c 0,0.589228 0.0984,1.064928 0.29492,1.441406 0.1799,0.376441 0.42656,0.671238 0.7539,0.900391 0.31107,0.229039 0.68771,0.376379 1.11329,0.474609 0.42553,0.09827 0.88396,0.13086 1.375,0.13086 0.4583,0 0.89911,-0.05017 1.35742,-0.148438 0.4583,-0.09827 0.85086,-0.278584 1.21094,-0.507812 0.34355,-0.22904 0.62241,-0.507112 0.85156,-0.867188 0.21279,-0.343559 0.32812,-0.768729 0.32812,-1.259765 0,-0.327307 -0.0658,-0.606045 -0.16406,-0.851563 -0.11452,-0.245669 -0.26139,-0.458615 -0.44141,-0.638672 -0.1799,-0.163653 -0.39389,-0.310521 -0.62304,-0.441406 -0.24567,-0.11452 -0.49081,-0.227904 -0.73633,-0.326172 -0.2948,-0.09827 -0.59011,-0.197659 -0.88477,-0.279297 -0.2948,-0.08164 -0.57162,-0.163451 -0.80078,-0.261718 -0.24567,-0.09827 -0.44252,-0.197353 -0.58984,-0.328126 -0.1474,-0.114519 -0.21289,-0.278111 -0.21289,-0.474609 0,-0.196535 0.0347,-0.374899 0.11523,-0.505859 0.0816,-0.130772 0.1954,-0.246487 0.32617,-0.328125 0.13078,-0.08164 0.29549,-0.147184 0.45899,-0.179688 0.16365,-0.03401 0.34444,-0.04883 0.54101,-0.04883 0.49104,0 0.89992,0.09681 1.21094,0.292969 0.31106,0.196535 0.47387,0.508019 0.49024,0.933594 h 1.76757 c 0,-0.523767 -0.0824,-0.948519 -0.24609,-1.308594 -0.16365,-0.343559 -0.40851,-0.62315 -0.70312,-0.835938 -0.29481,-0.196535 -0.65407,-0.343765 -1.04688,-0.425781 -0.40921,-0.08164 -0.8347,-0.130859 -1.29297,-0.130859 z m 20.30274,0 c -0.75292,0 -1.42441,0.16437 -2.01368,0.458984 -0.58922,0.294425 -1.07985,0.686698 -1.47265,1.177734 -0.39285,0.491038 -0.70397,1.047926 -0.90039,1.669922 -0.21279,0.621959 -0.3125,1.261326 -0.3125,1.916016 0,0.589228 0.0828,1.096381 0.27929,1.554688 0.17991,0.458305 0.44219,0.834726 0.76954,1.162109 0.3273,0.327307 0.70379,0.572637 1.16211,0.736328 0.45826,0.163654 0.94814,0.246094 1.48828,0.246094 1.0148,0 1.86652,-0.21357 2.57031,-0.671875 0.70382,-0.458306 1.21124,-1.179335 1.50586,-2.177735 h -0.002 -1.86524 c -0.13077,0.458306 -0.37817,0.802098 -0.73828,1.03125 -0.36019,0.22904 -0.80193,0.34375 -1.29297,0.34375 -0.72019,0 -1.22613,-0.178835 -1.53711,-0.539062 -0.32731,-0.360189 -0.47461,-0.8346 -0.47461,-1.423828 V 68.34375 c 0,-0.08164 -8.2e-4,-0.181029 0.0332,-0.279297 h 6.30078 c 0.0151,-0.130772 0.035,-0.294742 0.0664,-0.474609 0.0151,-0.163654 0.0332,-0.359592 0.0332,-0.572266 0,-0.409209 -0.0482,-0.852241 -0.14649,-1.310547 -0.0983,-0.458267 -0.26159,-0.866921 -0.52344,-1.259765 -0.26192,-0.376441 -0.63935,-0.687336 -1.09765,-0.949219 -0.47464,-0.245669 -1.07911,-0.376953 -1.83203,-0.376953 z m 12.93164,0 c -0.27442,0.0076 -0.53378,0.07232 -0.7793,0.179687 -0.27817,0.11452 -0.54038,0.261424 -0.76953,0.441407 -0.22904,0.179905 -0.44108,0.376278 -0.62109,0.605468 -0.19655,0.22904 -0.34546,0.458347 -0.47657,0.6875 l -0.0332,-0.0332 0.34375,-1.654297 -1.76563,0.0039 -1.75195,8.460938 h 1.86524 l 0.7871,-3.748047 c 0.0816,-0.425575 0.19573,-0.818093 0.35938,-1.210937 0.1474,-0.376441 0.34417,-0.721011 0.58984,-1.015625 0.24567,-0.294426 0.54028,-0.523847 0.90039,-0.6875 0.36019,-0.163654 0.76873,-0.261719 1.25977,-0.261719 0.0983,0 0.21165,0.01563 0.32617,0.01563 0.0983,0.01512 0.21361,0.03371 0.32813,0.04883 l 0.39258,-1.783203 c -0.16367,-0.01512 -0.31174,-0.03516 -0.45899,-0.03516 -0.1474,0 -0.29427,-0.01367 -0.44141,-0.01367 -0.0184,0 -0.0364,-5.07e-4 -0.0547,0 z m 8.30078,0 c -0.75292,0 -1.42441,0.16437 -2.01367,0.458984 -0.58923,0.294425 -1.07985,0.686698 -1.47266,1.177734 -0.39284,0.491038 -0.70397,1.047926 -0.90039,1.669922 -0.21279,0.621959 -0.31055,1.261326 -0.31055,1.916016 0,0.589228 0.0808,1.096381 0.27735,1.554688 0.1799,0.458305 0.44218,0.834726 0.76953,1.162109 0.3273,0.327307 0.7038,0.572637 1.16211,0.736328 0.45826,0.163654 0.9501,0.246094 1.49023,0.246094 1.0148,0 1.86457,-0.21357 2.56836,-0.671875 0.70382,-0.458306 1.21125,-1.179335 1.50586,-2.177735 h -0.002 -1.86524 c -0.13077,0.458306 -0.37621,0.802098 -0.73633,1.03125 -0.36018,0.22904 -0.80193,0.34375 -1.29296,0.34375 -0.72019,0 -1.22809,-0.178835 -1.53907,-0.539062 -0.3273,-0.360189 -0.47461,-0.8346 -0.47461,-1.423828 V 68.34375 c 0,-0.08164 -8.1e-4,-0.181029 0.0332,-0.279297 h 6.30273 c 0.0151,-0.130772 0.0331,-0.294742 0.0645,-0.474609 0.0151,-0.163654 0.0352,-0.359592 0.0352,-0.572266 0,-0.409209 -0.0502,-0.852241 -0.14844,-1.310547 -0.0983,-0.458267 -0.26159,-0.866921 -0.52343,-1.259765 -0.26193,-0.376441 -0.6374,-0.687336 -1.09571,-0.949219 -0.47463,-0.245669 -1.08106,-0.376953 -1.83398,-0.376953 z m -312.46485,0.230468 -1.75195,8.460938 h 1.86524 l 1.75195,-8.460938 z m 13.96485,0 -1.75,8.460938 h 1.86523 l 1.75196,-8.460938 z m 15.47265,0 -1.75195,8.460938 h 1.86524 l 1.75195,-8.460938 z m 231.79102,0 -1.75,8.460938 h 1.86523 l 1.75196,-8.460938 z m 63.50391,1.242188 c 0.3273,0 0.60604,0.06579 0.85156,0.164062 0.22904,0.114521 0.42498,0.263341 0.57226,0.44336 0.14741,0.179905 0.26274,0.391201 0.32813,0.636719 0.0654,0.261921 0.11328,0.525226 0.11328,0.787109 0,0.425575 -0.0652,0.883491 -0.17969,1.341797 -0.13077,0.458268 -0.31119,0.8845 -0.55664,1.277344 -0.24567,0.392806 -0.54027,0.7037 -0.90039,0.949218 -0.36019,0.261922 -0.78513,0.375 -1.25976,0.375 -0.65473,0 -1.12969,-0.163324 -1.45703,-0.523437 -0.32732,-0.343559 -0.47461,-0.834294 -0.47461,-1.472656 0,-0.458268 0.0495,-0.933532 0.16406,-1.408204 0.11452,-0.47467 0.29335,-0.900162 0.53906,-1.292968 0.22904,-0.376441 0.54153,-0.686863 0.91797,-0.916016 0.36019,-0.229039 0.81803,-0.361328 1.3418,-0.361328 z m -285.05469,0.002 c 0.55653,0 0.98121,0.162851 1.30859,0.490235 0.31106,0.327307 0.47461,0.735526 0.47461,1.226562 v 0.263672 c 0,0.08164 -0.0156,0.163451 -0.0156,0.261719 h -4.33789 c 0.1799,-0.65469 0.47481,-1.179894 0.90039,-1.605469 0.40917,-0.425575 0.96613,-0.636719 1.66992,-0.636719 z m 85.22851,0 c 0.0283,-0.001 0.0573,0 0.0859,0 0.62196,0 1.08086,0.178836 1.4082,0.539063 0.31107,0.360189 0.47461,0.851399 0.47461,1.457031 0,0.425537 -0.0658,0.866653 -0.16406,1.308594 -0.0983,0.458267 -0.26307,0.850862 -0.49219,1.210937 -0.22903,0.360189 -0.52269,0.655613 -0.88281,0.884766 -0.36019,0.229039 -0.78631,0.34375 -1.27734,0.34375 -0.32731,0 -0.58921,-0.04954 -0.81836,-0.164063 -0.22904,-0.09827 -0.4081,-0.245135 -0.53906,-0.441406 -0.14741,-0.196535 -0.24712,-0.409992 -0.3125,-0.671875 -0.0654,-0.261921 -0.0977,-0.523745 -0.0977,-0.818359 0,-0.376441 0.0495,-0.785363 0.16406,-1.210938 0.0983,-0.425575 0.26112,-0.835199 0.49024,-1.195312 0.22904,-0.360189 0.50785,-0.65366 0.85156,-0.882813 0.30685,-0.214724 0.68558,-0.344128 1.10937,-0.359375 z m 12.76563,0 c 0.5565,0 0.98125,0.162851 1.30859,0.490235 0.31106,0.327307 0.47461,0.735526 0.47461,1.226562 v 0.263672 c 0,0.08164 -0.0156,0.163451 -0.0156,0.261719 h -4.33789 c 0.1799,-0.65469 0.47481,-1.179894 0.90039,-1.605469 0.40917,-0.425575 0.9661,-0.636719 1.66992,-0.636719 z m 29.72656,0 c 0.5565,0 0.9832,0.162851 1.31055,0.490235 0.31105,0.327307 0.47461,0.735526 0.47461,1.226562 v 0.263672 c 0,0.08164 -0.0156,0.163451 -0.0156,0.261719 h -0.002 -4.33594 c 0.17991,-0.65469 0.4729,-1.179894 0.89844,-1.605469 0.40921,-0.425575 0.9661,-0.636719 1.66992,-0.636719 z m 72.20508,0 c 0.5565,0 0.98125,0.162851 1.30859,0.490235 0.31106,0.327307 0.47461,0.735526 0.47461,1.226562 v 0.263672 c 0,0.08164 -0.0137,0.163451 -0.0137,0.261719 h -0.002 -4.33789 c 0.1799,-0.65469 0.47481,-1.179894 0.90039,-1.605469 0.40917,-0.425575 0.9661,-0.636719 1.66992,-0.636719 z m 12.11914,0 c 0.0282,-0.001 0.0553,0 0.084,0 0.62199,0 1.08082,0.178836 1.4082,0.539063 0.31105,0.360189 0.47461,0.851399 0.47461,1.457031 0,0.425537 -0.0658,0.866653 -0.16407,1.308594 -0.0983,0.458267 -0.26111,0.850862 -0.49023,1.210937 -0.22904,0.360189 -0.52464,0.655613 -0.88477,0.884766 -0.36018,0.229039 -0.78435,0.34375 -1.27539,0.34375 -0.3273,0 -0.5892,-0.04954 -0.81835,-0.164063 -0.22905,-0.09827 -0.41006,-0.245135 -0.54102,-0.441406 -0.1474,-0.196535 -0.24516,-0.409992 -0.31055,-0.671875 -0.0654,-0.261921 -0.0976,-0.523745 -0.0976,-0.818359 0,-0.376441 0.0495,-0.785363 0.16406,-1.210938 0.0983,-0.425575 0.26112,-0.835199 0.49023,-1.195312 0.22904,-0.360189 0.50786,-0.65366 0.85157,-0.882813 0.30685,-0.214724 0.68558,-0.344128 1.10937,-0.359375 z m 39.45703,0 c 0.5565,0 0.9832,0.162851 1.31055,0.490235 0.31105,0.327307 0.47461,0.735526 0.47461,1.226562 v 0.263672 c 0,0.08164 -0.0156,0.163451 -0.0156,0.261719 h -0.002 -4.33594 c 0.17991,-0.65469 0.47287,-1.179894 0.89844,-1.605469 0.40917,-0.425575 0.9661,-0.636719 1.66992,-0.636719 z m 21.23438,0 c 0.55649,0 0.98125,0.162851 1.30859,0.490235 0.31106,0.327307 0.47461,0.735526 0.47461,1.226562 v 0.263672 c 0,0.08164 -0.0156,0.163451 -0.0156,0.261719 h -4.3379 c 0.17991,-0.65469 0.47481,-1.179894 0.9004,-1.605469 0.40917,-0.425575 0.96609,-0.636719 1.66992,-0.636719 z m 31.83203,0.423828 h 1.8164 l -0.29492,2.128907 h -1.8164 z m 73.55273,0.738281 c 0.62196,0 1.11403,0.195901 1.44141,0.572266 0.32731,0.392806 0.49023,0.86659 0.49023,1.439453 0,0.327307 -0.0482,0.655077 -0.14648,0.982422 -0.0983,0.327307 -0.24709,0.622882 -0.44336,0.884766 -0.19654,0.261921 -0.44171,0.457402 -0.73633,0.621093 -0.29442,0.163655 -0.62157,0.228516 -0.99805,0.228516 -0.3273,0 -0.60604,-0.04759 -0.85156,-0.162109 -0.24567,-0.11452 -0.44181,-0.262638 -0.60547,-0.458985 -0.16365,-0.196535 -0.29531,-0.409991 -0.37695,-0.671875 -0.0983,-0.261921 -0.12891,-0.53937 -0.12891,-0.833984 0,-0.360189 0.0482,-0.687067 0.14649,-0.998047 0.0983,-0.311055 0.2626,-0.590457 0.45898,-0.835937 0.19654,-0.22904 0.44172,-0.42568 0.73633,-0.556641 0.2948,-0.130772 0.62083,-0.210937 1.01367,-0.210938 z m 24.27735,0 c 0.62199,0 1.11406,0.195901 1.4414,0.572266 0.32731,0.392806 0.49024,0.86659 0.49024,1.439453 0,0.327307 -0.0482,0.655077 -0.14649,0.982422 -0.0983,0.327307 -0.24517,0.622882 -0.4414,0.884766 -0.19654,0.261921 -0.44367,0.457402 -0.73828,0.621093 -0.29482,0.163655 -0.62161,0.228516 -0.99805,0.228516 -0.32731,0 -0.60605,-0.04759 -0.85156,-0.162109 -0.24567,-0.11452 -0.44178,-0.262638 -0.60547,-0.458985 -0.16366,-0.196535 -0.29299,-0.409991 -0.375,-0.671875 -0.0983,-0.261921 -0.13086,-0.53937 -0.13086,-0.833984 0,-0.360189 0.0482,-0.687067 0.14648,-0.998047 0.0983,-0.311055 0.26264,-0.590457 0.45899,-0.835937 0.19653,-0.22904 0.44171,-0.42568 0.73632,-0.556641 0.29481,-0.130772 0.62087,-0.210937 1.01368,-0.210938 z m -238.15235,0.71875 -0.34375,1.767579 h 4.84375 l 0.34375,-1.767579 z M 129.25,67.623047 l 0.0352,0.03516 c -0.0654,0.409172 -0.16478,0.784456 -0.2793,1.144531 -0.11452,0.360189 -0.27815,0.654133 -0.47461,0.916016 -0.19654,0.261921 -0.4566,0.475759 -0.76758,0.623047 -0.31105,0.163653 -0.68818,0.228515 -1.14648,0.228515 -0.17991,0 -0.35986,-0.01481 -0.52344,-0.04883 -0.17991,-0.03401 -0.3435,-0.09805 -0.47461,-0.179687 -0.1474,-0.08202 -0.26306,-0.197353 -0.36133,-0.328125 -0.0983,-0.130772 -0.13086,-0.310726 -0.13086,-0.523438 v -0.002 c 0,-0.343559 0.0978,-0.604359 0.31055,-0.800781 0.21279,-0.196535 0.47492,-0.327551 0.76953,-0.425781 0.2948,-0.09827 0.62112,-0.147184 0.96485,-0.179688 0.34355,-0.01512 0.65413,-0.03504 0.91601,-0.06641 0.19654,-0.01512 0.40956,-0.04789 0.63867,-0.113281 0.21279,-0.04913 0.39252,-0.148525 0.52344,-0.279297 z m 109.23633,0 0.0351,0.03516 c -0.0654,0.409172 -0.16477,0.784456 -0.27929,1.144531 -0.11452,0.360189 -0.27811,0.654133 -0.47461,0.916016 -0.19654,0.261921 -0.45656,0.475759 -0.76758,0.623047 -0.31106,0.163653 -0.68818,0.228515 -1.14648,0.228515 -0.17991,0 -0.35986,-0.01481 -0.52344,-0.04883 -0.17991,-0.03401 -0.3435,-0.09805 -0.47461,-0.179687 -0.1474,-0.08202 -0.26306,-0.197353 -0.36133,-0.328125 -0.0983,-0.130772 -0.13086,-0.310726 -0.13086,-0.523438 v -0.002 c 0,-0.343559 0.0978,-0.604359 0.31055,-0.800781 0.21279,-0.196535 0.47492,-0.327551 0.76953,-0.425781 0.2948,-0.09827 0.62113,-0.147184 0.96484,-0.179688 0.34356,-0.01512 0.65414,-0.03504 0.91602,-0.06641 0.19653,-0.01512 0.40952,-0.04789 0.63867,-0.113281 0.21279,-0.04913 0.39252,-0.148525 0.52344,-0.279297 z m 24.57226,0 0.0352,0.03516 c -0.0654,0.409172 -0.16478,0.784456 -0.2793,1.144531 -0.11452,0.360189 -0.27815,0.654133 -0.47461,0.916016 -0.19653,0.261921 -0.45659,0.475759 -0.76757,0.623047 -0.31106,0.163653 -0.68818,0.228515 -1.14649,0.228515 -0.1799,0 -0.35986,-0.01481 -0.52344,-0.04883 -0.1799,-0.03401 -0.34349,-0.09805 -0.47461,-0.179687 -0.1474,-0.08202 -0.26306,-0.197353 -0.36132,-0.328125 -0.0983,-0.130772 -0.13086,-0.310726 -0.13086,-0.523438 v -0.002 c 0,-0.343559 0.0978,-0.604359 0.31054,-0.800781 0.21279,-0.196535 0.47488,-0.327551 0.76953,-0.425781 0.29444,-0.09827 0.62114,-0.147184 0.96485,-0.179688 0.34356,-0.01512 0.65413,-0.03504 0.91601,-0.06641 0.19654,-0.01512 0.40956,-0.04789 0.63868,-0.113281 0.21278,-0.04913 0.39247,-0.148525 0.52343,-0.279297 z"
           transform="matrix(0.26458334,0,0,0.26458334,314.3512,156.07011)" />
      </g>
    </g>
  </g>
</svg>
